<?xml version="1.0" encoding="UTF-8" standalone="no"?>
<!-- Created with Inkscape (http://www.inkscape.org/) -->

<svg
   xmlns:dc="http://purl.org/dc/elements/1.1/"
   xmlns:cc="http://creativecommons.org/ns#"
   xmlns:rdf="http://www.w3.org/1999/02/22-rdf-syntax-ns#"
   xmlns:svg="http://www.w3.org/2000/svg"
   xmlns="http://www.w3.org/2000/svg"
   xmlns:sodipodi="http://sodipodi.sourceforge.net/DTD/sodipodi-0.dtd"
   xmlns:inkscape="http://www.inkscape.org/namespaces/inkscape"
   width="40mm"
   height="40mm"
   viewBox="0 0 141.73228 141.73229"
   id="svg2"
   version="1.1"
   inkscape:version="0.91 r13725"
   sodipodi:docname="icon.svg"
   inkscape:export-filename="/home/sevikon/Downloads/favicon.png"
   inkscape:export-xdpi="325.12"
   inkscape:export-ydpi="325.12">
  <defs
     id="defs4" />
  <sodipodi:namedview
     id="base"
     pagecolor="#ffffff"
     bordercolor="#666666"
     borderopacity="1.0"
     inkscape:pageopacity="0.0"
     inkscape:pageshadow="2"
     inkscape:zoom="2.8"
     inkscape:cx="168.72374"
     inkscape:cy="13.716532"
     inkscape:document-units="px"
     inkscape:current-layer="layer1"
     showgrid="false"
     inkscape:window-width="1920"
     inkscape:window-height="1015"
     inkscape:window-x="0"
     inkscape:window-y="36"
     inkscape:window-maximized="1"
     fit-margin-top="0"
     fit-margin-left="0"
     fit-margin-right="0"
     fit-margin-bottom="0" />
  <metadata
     id="metadata7">
    <rdf:RDF>
      <cc:Work
         rdf:about="">
        <dc:format>image/svg+xml</dc:format>
        <dc:type
           rdf:resource="http://purl.org/dc/dcmitype/StillImage" />
        <dc:title></dc:title>
      </cc:Work>
    </rdf:RDF>
  </metadata>
  <g
     inkscape:label="Layer 1"
     inkscape:groupmode="layer"
     id="layer1"
     transform="translate(-321.78571,-262.48454)">
    <g
       id="g4147"
       transform="translate(8.5714286,-1.7857143)">
      <g
         id="g4155"
         transform="translate(-95.714286,31.428571)">
        <path
           sodipodi:nodetypes="sssssssssssssscssscscsccssssssssssscccssssssssssssssssss"
           inkscape:connector-curvature="0"
           id="path4153"
           d="m 447.5,358.15501 c -14.025,-8.03577 -26.5125,-15.53353 -27.75,-16.66168 -2.24323,-2.04502 -2.25,-2.14689 -2.25,-33.87687 0,-29.74525 0.11537,-31.82569 1.76481,-31.82569 1.89551,0 48.61552,25.95176 50.98413,28.32037 1.22912,1.22912 1.03752,1.68913 -1.41355,3.39381 -6.90035,4.7991 -23.47144,13.44759 -24.79404,12.94006 -1.06384,-0.40823 -1.53432,-2.65393 -1.74842,-8.34554 -0.24698,-6.56543 -0.575,-7.84088 -2.09097,-8.13043 -3.84249,-0.7339 -4.70196,1.52887 -4.70196,12.37907 0,5.67186 0.42348,11.42629 0.94106,12.78764 1.10059,2.89476 19.89683,14.02547 22.75506,13.47503 2.16609,-0.41716 2.89792,-3.39931 1.30516,-5.31847 -0.64014,-0.77132 -3.6023,-2.77855 -6.58258,-4.46051 -2.98029,-1.68197 -5.40548,-3.61678 -5.38933,-4.29958 0.0162,-0.6828 5.9081,-4.57514 13.09322,-8.64964 10.46681,-5.93549 13.24106,-7.12826 13.95531,-6 0.98629,1.55797 1.25164,53.07662 0.29181,56.65819 -0.33163,1.2375 -1.11299,2.24431 -1.73634,2.23736 -0.62335,-0.007 -12.60837,-6.58735 -26.63337,-14.62312 z m 36.66667,13.96909 C 483.8,371.75744 483.5,358.25744 483.5,342.1241 c 0,-22.80922 0.27802,-29.32948 1.25,-29.31604 1.86005,0.0257 26.05096,14.29832 26.47618,15.62089 0.20127,0.62599 -2.60853,2.80159 -6.24399,4.83466 -7.05477,3.94525 -8.44081,5.66717 -6.47162,8.03989 1.84697,2.22547 2.92295,1.928 12.69429,-3.50951 12.83015,-7.13966 12.41179,-6.40856 12.07701,-21.105 -0.25783,-11.31857 -0.4468,-12.4055 -2.21577,-12.74479 -3.11111,-0.5967 -4.5661,2.60182 -4.5661,10.0377 0,5.26465 -0.32711,6.80887 -1.44232,6.80887 -0.79328,0 -6.53078,-2.97015 -12.75,-6.60032 C 490.19215,307.11858 488.5,305.96668 488.5,304.79108 c 0,-1.33323 50.20742,-29.13469 51.62958,-28.58896 1.12024,0.42988 1.37042,6.25024 1.37042,31.88295 0,31.22759 -0.009,31.36577 -2.25,33.4637 -2.0909,1.95766 -52.54111,31.23392 -53.83333,31.23949 -0.32084,0.001 -0.88334,-0.29749 -1.25,-0.66416 z m -34.66735,-88.35037 c -13.47463,-7.61645 -24.93921,-14.54106 -25.47684,-15.38801 -0.6367,-1.003 -0.6367,-1.86938 0,-2.48488 2.46966,-2.38742 53.71439,-31.11007 55.50419,-31.11007 1.80486,0 47.34574,25.36778 54.23161,30.20881 1.89302,1.33086 2.50762,2.38708 1.95923,3.36701 -1.11027,1.98393 -50.13392,29.59387 -51.28411,28.88302 -1.04824,-0.64785 -1.30474,-29.75417 -0.27131,-30.78759 0.36415,-0.36415 3.47476,0.91085 6.91248,2.83333 3.43772,1.92248 6.90968,3.49542 7.71547,3.49542 2.01785,0 3.863,-2.43761 3.18418,-4.20659 -0.72172,-1.88077 -19.54696,-12.79341 -22.06973,-12.79341 -1.05419,0 -6.41396,2.59077 -11.9106,5.75726 -8.44599,4.86554 -9.99389,6.14334 -9.99389,8.25 0,3.78819 3.31341,3.62538 10.36846,-0.50947 3.3825,-1.98243 6.59585,-3.32887 7.14077,-2.99209 1.53396,0.94804 1.29324,28.99838 -0.25991,30.28739 -0.9155,0.75979 -7.8166,-2.67337 -25.75,-12.81013 z"
           style="fill:#31c9fe" />
      </g>
    </g>
  </g>
</svg>
