<?xml version="1.0" encoding="UTF-8" standalone="no"?>
<!-- Created with Inkscape (http://www.inkscape.org/) -->

<svg
   xmlns:dc="http://purl.org/dc/elements/1.1/"
   xmlns:cc="http://creativecommons.org/ns#"
   xmlns:rdf="http://www.w3.org/1999/02/22-rdf-syntax-ns#"
   xmlns:svg="http://www.w3.org/2000/svg"
   xmlns="http://www.w3.org/2000/svg"
   xmlns:sodipodi="http://sodipodi.sourceforge.net/DTD/sodipodi-0.dtd"
   xmlns:inkscape="http://www.inkscape.org/namespaces/inkscape"
   width="75.635559mm"
   height="18.81131mm"
   viewBox="0 0 268.00001 66.654247"
   id="svg2"
   version="1.1"
   inkscape:version="0.91 r13725"
   sodipodi:docname="white.svg">
  <defs
     id="defs4" />
  <sodipodi:namedview
     id="base"
     pagecolor="#ffffff"
     bordercolor="#666666"
     borderopacity="1.0"
     inkscape:pageopacity="0.0"
     inkscape:pageshadow="2"
     inkscape:zoom="1.4"
     inkscape:cx="12.902819"
     inkscape:cy="142.83966"
     inkscape:document-units="px"
     inkscape:current-layer="g4149"
     showgrid="false"
     inkscape:window-width="1920"
     inkscape:window-height="1015"
     inkscape:window-x="0"
     inkscape:window-y="36"
     inkscape:window-maximized="1"
     fit-margin-top="0"
     fit-margin-left="0"
     fit-margin-right="0"
     fit-margin-bottom="0" />
  <metadata
     id="metadata7">
    <rdf:RDF>
      <cc:Work
         rdf:about="">
        <dc:format>image/svg+xml</dc:format>
        <dc:type
           rdf:resource="http://purl.org/dc/dcmitype/StillImage" />
        <dc:title></dc:title>
      </cc:Work>
    </rdf:RDF>
  </metadata>
  <g
     inkscape:label="Layer 1"
     inkscape:groupmode="layer"
     id="layer1"
     transform="translate(-366.81618,-284.79642)">
    <g
       id="g4149"
       transform="translate(3.0304576,220.21326)">
      <path
         style="fill:#ffffff"
         d="m 364.45239,130.55269 c -0.36667,-0.36666 -0.66667,-14.48657 -0.66667,-31.377555 0,-27.378214 0.17989,-30.859823 1.65767,-32.083333 1.23842,-1.025332 5.34831,-1.371305 16.25,-1.367938 16.68949,0.0052 19.10507,0.769477 24.06315,7.613909 5.52,7.620135 5.02167,17.403733 -1.25031,24.54712 -4.74482,5.404057 -7.93042,6.334467 -21.68839,6.334467 l -12.03212,0 0,11.91821 c 0,6.55502 -0.27314,12.63002 -0.60699,13.5 -0.60359,1.57295 -4.4533,2.18817 -5.72634,0.91512 z m 33.02748,-34.831658 c 1.17653,-0.824079 2.91845,-3.538889 3.87093,-6.032912 2.18832,-5.73004 0.86058,-11.091365 -3.69642,-14.925823 -2.99808,-2.522721 -3.46038,-2.59564 -14.73194,-2.323695 l -11.63672,0.280755 -0.28078,12.25 -0.28078,12.25 12.30827,0 c 9.31611,0 12.82831,-0.364246 14.44744,-1.498325 z m 9.0147,34.873848 c -0.38987,-0.38987 -0.70885,-1.57232 -0.70885,-2.62768 0,-3.25944 27.33509,-61.828901 29.37183,-62.933476 1.4324,-0.776826 2.29702,-0.580742 3.68296,0.835245 2.63392,2.691017 29.04066,60.483321 28.71791,62.850391 -0.19006,1.39395 -1.03027,2 -2.7727,2 -2.20076,0 -3.18595,-1.40972 -8.23083,-11.77758 l -5.73082,-11.77757 -14.26873,0.27757 -14.26873,0.27758 -1.76652,3.5 c -0.9716,1.925 -3.4468,7.1 -5.50045,11.5 -2.68057,5.74317 -4.30974,8.08243 -5.77507,8.29218 -1.12263,0.1607 -2.36013,-0.0268 -2.75,-0.41666 z m 38.68214,-36.125523 c -1.42108,-3.1625 -3.73101,-8.353133 -5.13317,-11.53474 -1.40216,-3.181607 -2.95167,-5.650643 -3.44336,-5.486745 -0.72969,0.243228 -10.81446,21.128054 -10.81446,22.395948 0,0.20655 4.94433,0.37554 10.98739,0.37554 l 10.98739,0 z m 28.216,35.168213 c -0.33385,-0.86998 -0.60699,-15.23784 -0.60699,-31.928572 0,-26.238388 0.21247,-30.559258 1.56945,-31.91623 1.18468,-1.184682 2.04273,-1.316147 3.5,-0.536245 1.0618,0.568261 1.99325,1.129869 2.06989,1.248018 0.0766,0.118149 0.41414,5.814906 0.75,12.659461 l 0.61066,12.444645 14.37232,-12.944645 c 10.72795,-9.662285 15.03862,-12.944645 17,-12.944645 1.92092,0 2.70954,0.573967 2.93203,2.133975 0.23521,1.649215 -3.05866,5.164438 -14.5,15.474435 -8.14239,7.337252 -14.80435,13.865654 -14.80435,14.507559 0,0.641905 7.2,7.109894 16,14.373314 8.8,7.26342 16.37516,13.86456 16.83368,14.66921 0.45853,0.80464 0.58515,2.11065 0.28139,2.90225 -1.33459,3.47788 -5.49016,1.15169 -21.6276,-12.10663 l -16.48747,-13.5459 -0.5,12.2959 c -0.275,6.76274 -0.86406,12.85839 -1.30902,13.54589 -1.15126,1.7788 -5.36221,1.54916 -6.08399,-0.33179 z m 129.86516,0.33179 c -0.25579,-0.6875 -0.57917,-13.85 -0.71861,-29.25 l -0.25354,-28.000003 -11,-0.5 c -10.97061,-0.498664 -11.00081,-0.506986 -11.30333,-3.114334 -0.41788,-3.60163 1.63214,-3.892322 27.17833,-3.853863 21.7913,0.03281 24.625,0.518587 24.625,4.221451 0,2.272243 -2.17352,2.746746 -12.58179,2.746746 l -9.41821,0 0,27.918213 c 0,15.35502 -0.27314,28.63002 -0.60699,29.5 -0.71928,1.87443 -5.25239,2.12845 -5.92086,0.33179 z M 528.8209,128.2851 c -0.64381,-1.20297 -1.03518,-12.66188 -1.03518,-30.308872 0,-22.921391 0.27267,-28.747671 1.4188,-30.315741 1.32308,-1.81016 2.77612,-1.94113 21.53575,-1.94113 16.46956,0 20.27911,0.262194 21.01142,1.446118 0.53464,0.864362 0.50611,2.171799 -0.0709,3.25 -0.87388,1.6328 -2.62182,1.803882 -18.43025,1.803882 l -17.46482,0 0,10.5 0,10.5 8.75,0.01365 c 10.06624,0.01571 12.87707,0.572135 13.69808,2.711635 1.28633,3.352139 -1.3256,4.274718 -12.10226,4.274718 l -10.40929,0 0.28173,11.75 0.28174,11.75 19.14517,0.27122 c 15.43492,0.21867 19.38301,0.55781 20.37245,1.75 0.9705,1.16939 0.96681,1.79261 -0.0176,2.97878 -1.03859,1.25143 -4.94733,1.5 -23.58726,1.5 -21.06579,0 -22.40152,-0.11052 -23.37756,-1.93426 z"
         id="path4163"
         inkscape:connector-curvature="0"
         sodipodi:nodetypes="csssssscsccsssscccssssssssscccssssssssscscssscscsssssscsscsscsscssssscssscsssscscccssscccsssscc"
         inkscape:export-xdpi="171.94"
         inkscape:export-ydpi="171.94" />
    </g>
  </g>
</svg>
