<?xml version="1.0" encoding="UTF-8" standalone="no"?>
<!-- Created with Inkscape (http://www.inkscape.org/) -->

<svg
   xmlns:dc="http://purl.org/dc/elements/1.1/"
   xmlns:cc="http://creativecommons.org/ns#"
   xmlns:rdf="http://www.w3.org/1999/02/22-rdf-syntax-ns#"
   xmlns:svg="http://www.w3.org/2000/svg"
   xmlns="http://www.w3.org/2000/svg"
   xmlns:sodipodi="http://sodipodi.sourceforge.net/DTD/sodipodi-0.dtd"
   xmlns:inkscape="http://www.inkscape.org/namespaces/inkscape"
   width="140.399mm"
   height="103.82331mm"
   viewBox="0 0 140.399 103.82331"
   version="1.1"
   id="svg1255"
   inkscape:version="0.92.3 (2405546, 2018-03-11)"
   sodipodi:docname="marker_users.svg"
   inkscape:export-filename="/home/sevikon/www/paket_ico/public/images/map/user_1.png"
   inkscape:export-xdpi="23.5"
   inkscape:export-ydpi="23.5">
  <defs
     id="defs1249">
    <clipPath
       clipPathUnits="userSpaceOnUse"
       id="clipPath6446">
      <path
         d="m 38.8356,737.822 h 9.8752 v -5.816 h -9.8752 z"
         id="path6444"
         inkscape:connector-curvature="0" />
    </clipPath>
    <clipPath
       clipPathUnits="userSpaceOnUse"
       id="clipPath1228">
      <path
         d="m 662.216,738.508 h 10.1 v -5.944 h -10.1 z"
         id="path1226"
         inkscape:connector-curvature="0" />
    </clipPath>
    <clipPath
       clipPathUnits="userSpaceOnUse"
       id="clipPath616">
      <path
         d="m 751.009,738.259 h 10.006 v -5.897 h -10.006 z"
         id="path614"
         inkscape:connector-curvature="0" />
    </clipPath>
    <clipPath
       clipPathUnits="userSpaceOnUse"
       id="clipPath2416">
      <path
         d="m 750.948,560.655 h 10.007 v -5.899 h -10.007 z"
         id="path2414"
         inkscape:connector-curvature="0" />
    </clipPath>
    <clipPath
       clipPathUnits="userSpaceOnUse"
       id="clipPath3214">
      <path
         d="m 751.7,472.412 h 10.478 v -6.174 H 751.7 Z"
         id="path3212"
         inkscape:connector-curvature="0" />
    </clipPath>
    <clipPath
       clipPathUnits="userSpaceOnUse"
       id="clipPath3934">
      <path
         d="m 750.814,384.832 h 10.735 v -6.328 h -10.735 z"
         id="path3932"
         inkscape:connector-curvature="0" />
    </clipPath>
    <clipPath
       clipPathUnits="userSpaceOnUse"
       id="clipPath7206">
      <path
         d="m 752.622,27.7806 h 10.006 v -5.8987 h -10.006 z"
         id="path7204"
         inkscape:connector-curvature="0" />
    </clipPath>
    <clipPath
       clipPathUnits="userSpaceOnUse"
       id="clipPath7206-3">
      <path
         d="m 752.622,27.7806 h 10.006 v -5.8987 h -10.006 z"
         id="path7204-6"
         inkscape:connector-curvature="0" />
    </clipPath>
    <clipPath
       clipPathUnits="userSpaceOnUse"
       id="clipPath3934-7">
      <path
         d="m 750.814,384.832 h 10.735 v -6.328 h -10.735 z"
         id="path3932-5"
         inkscape:connector-curvature="0" />
    </clipPath>
    <clipPath
       clipPathUnits="userSpaceOnUse"
       id="clipPath3214-3">
      <path
         d="m 751.7,472.412 h 10.478 v -6.174 H 751.7 Z"
         id="path3212-5"
         inkscape:connector-curvature="0" />
    </clipPath>
    <clipPath
       clipPathUnits="userSpaceOnUse"
       id="clipPath616-6">
      <path
         d="m 751.009,738.259 h 10.006 v -5.897 h -10.006 z"
         id="path614-2"
         inkscape:connector-curvature="0" />
    </clipPath>
    <clipPath
       clipPathUnits="userSpaceOnUse"
       id="clipPath1228-9">
      <path
         d="m 662.216,738.508 h 10.1 v -5.944 h -10.1 z"
         id="path1226-1"
         inkscape:connector-curvature="0" />
    </clipPath>
  </defs>
  <sodipodi:namedview
     id="base"
     pagecolor="#ffffff"
     bordercolor="#666666"
     borderopacity="1.0"
     inkscape:pageopacity="0.0"
     inkscape:pageshadow="2"
     inkscape:zoom="1.4"
     inkscape:cx="201.95047"
     inkscape:cy="108.22467"
     inkscape:document-units="mm"
     inkscape:current-layer="layer1"
     showgrid="false"
     fit-margin-top="0"
     fit-margin-left="0"
     fit-margin-right="0"
     fit-margin-bottom="0"
     inkscape:window-width="1920"
     inkscape:window-height="1025"
     inkscape:window-x="0"
     inkscape:window-y="0"
     inkscape:window-maximized="1" />
  <metadata
     id="metadata1252">
    <rdf:RDF>
      <cc:Work
         rdf:about="">
        <dc:format>image/svg+xml</dc:format>
        <dc:type
           rdf:resource="http://purl.org/dc/dcmitype/StillImage" />
        <dc:title></dc:title>
      </cc:Work>
    </rdf:RDF>
  </metadata>
  <g
     inkscape:label="Layer 1"
     inkscape:groupmode="layer"
     id="layer1"
     transform="translate(-7.7769284,38.643289)">
    <rect
       y="48.447853"
       x="29.035858"
       height="16.732172"
       width="1.1539429"
       id="rect8292"
       style="color:#000000;clip-rule:nonzero;display:inline;overflow:visible;visibility:visible;opacity:1;isolation:auto;mix-blend-mode:normal;color-interpolation:sRGB;color-interpolation-filters:linearRGB;solid-color:#000000;solid-opacity:1;fill:#f09076;fill-opacity:1;fill-rule:nonzero;stroke:none;stroke-width:0.50676066;stroke-miterlimit:4;stroke-dasharray:none;stroke-opacity:1;color-rendering:auto;image-rendering:auto;shape-rendering:auto;text-rendering:auto;enable-background:accumulate"
       inkscape:export-xdpi="23"
       inkscape:export-ydpi="23" />
    <circle
       r="21.232098"
       cy="27.262842"
       cx="29.39447"
       id="path8250"
       style="color:#000000;clip-rule:nonzero;display:inline;overflow:visible;visibility:visible;opacity:1;isolation:auto;mix-blend-mode:normal;color-interpolation:sRGB;color-interpolation-filters:linearRGB;solid-color:#000000;solid-opacity:1;fill:#92d7f0;fill-opacity:0.46113987;fill-rule:nonzero;stroke:#f09076;stroke-width:0.77088845;stroke-miterlimit:4;stroke-dasharray:none;stroke-opacity:1;color-rendering:auto;image-rendering:auto;shape-rendering:auto;text-rendering:auto;enable-background:accumulate"
       inkscape:export-xdpi="23"
       inkscape:export-ydpi="23" />
    <g
       id="g5141"
       transform="translate(63.498718,-106.04784)">
      <g
         id="g1210"
         transform="matrix(0.35277777,0,0,-0.35277777,25.162427,101.26646)">
        <path
           d="m 0,0 c 0,-5.777 -7.86,-10.46 -17.557,-10.46 -9.693,0 -17.556,4.683 -17.556,10.46 0,5.775 7.863,10.459 17.556,10.459 C -7.86,10.459 0,5.775 0,0"
           style="fill:#211915;fill-opacity:1;fill-rule:nonzero;stroke:none"
           id="path1212"
           inkscape:connector-curvature="0" />
      </g>
      <g
         id="g1214"
         transform="matrix(0.35277777,0,0,-0.35277777,18.888415,97.949929)">
        <path
           d="m 0,0 v -33.405 h -18.223 c -0.293,0.125 -0.451,0.191 -0.451,0.191 0,2.978 0.307,5.501 0.834,7.626 2.565,10.7 10.328,11.629 10.328,11.629 h 0.088 c 0.076,0.015 0.164,0.027 0.243,0.052 0.921,0.255 1.547,1.604 1.968,3.543 0.076,0.329 0.141,0.671 0.19,1.041 0.103,0.611 0.191,1.263 0.255,1.936 0.041,0.41 0.079,0.817 0.117,1.238 0.164,2.05 0.219,4.279 0.219,6.393 C -4.432,0.244 -1.98,0 0,0"
           style="fill:#dcc5a1;fill-opacity:1;fill-rule:nonzero;stroke:none"
           id="path1216"
           inkscape:connector-curvature="0" />
      </g>
      <g
         id="g1218"
         transform="matrix(0.35277777,0,0,-0.35277777,25.498761,109.66691)">
        <path
           d="m 0,0 c 0,0 -0.164,-0.067 -0.433,-0.192 h -18.305 v 33.406 h 0.041 c 1.98,0 4.446,0.244 4.446,0.244 0,-2.105 0.05,-4.307 0.22,-6.345 0.037,-0.406 0.075,-0.815 0.113,-1.208 0.076,-0.703 0.153,-1.364 0.252,-1.989 v -0.01 c 0.041,-0.283 0.094,-0.537 0.143,-0.792 0.384,-1.871 0.945,-3.246 1.764,-3.707 0.064,-0.025 0.129,-0.062 0.193,-0.076 0.129,-0.049 0.269,-0.076 0.41,-0.076 0,0 0.129,-0.012 0.357,-0.064 1.187,-0.254 5.072,-1.424 7.836,-6.137 C -1.264,10.201 0,6.033 0,0"
           style="fill:#edd9b4;fill-opacity:1;fill-rule:nonzero;stroke:none"
           id="path1220"
           inkscape:connector-curvature="0" />
      </g>
      <g
         transform="matrix(0.35277777,0,0,-0.35277777,-216.50048,360.63252)"
         id="g1222">
        <g
           id="g1224" />
        <g
           id="g1236">
          <g
             clip-path="url(#clipPath1228-9)"
             id="g1234"
             style="opacity:0.69999701">
            <g
               transform="translate(672.316,735.3127)"
               id="g1232">
              <path
                 d="m 0,0 v -0.012 c -0.448,-0.715 -1.995,-2.737 -5.049,-2.737 h -0.023 c -2.905,0.014 -4.592,2.112 -5.028,2.723 0.102,0.614 0.19,1.264 0.257,1.936 0.038,0.408 0.076,0.817 0.114,1.237 1.419,-0.355 2.955,-0.571 4.601,-0.599 h 0.056 C -3.39,2.576 -1.831,2.804 -0.374,3.195 -0.333,2.792 -0.298,2.384 -0.257,1.988 -0.181,1.286 -0.105,0.624 0,0"
                 style="fill:#bc9f82;fill-opacity:1;fill-rule:nonzero;stroke:none"
                 id="path1230"
                 inkscape:connector-curvature="0" />
            </g>
          </g>
        </g>
      </g>
      <g
         id="g1238"
         transform="matrix(0.35277777,0,0,-0.35277777,26.022956,106.69829)">
        <path
           d="M 0,0 C 0,0 -5.294,10.408 -12.666,10.84 -12.859,10.854 -7.184,2.573 -14.74,0.652 -16.603,0.179 -18.457,0.013 -20.183,0.08 h -0.021 -0.02 c -1.726,-0.067 -3.577,0.099 -5.441,0.572 -7.558,1.921 -1.881,10.202 -2.07,10.188 C -35.113,10.408 -40.404,0 -40.404,0 l 2.34,-0.79 3.296,-1.106 c 0,0 -1.152,-2.994 -1.214,-6.711 h 15.778 15.778 c -0.061,3.717 -1.214,6.711 -1.214,6.711 l 3.3,1.106 z"
           style="fill:#856da5;fill-opacity:1;fill-rule:nonzero;stroke:none"
           id="path1240"
           inkscape:connector-curvature="0" />
      </g>
      <g
         id="g1242"
         transform="matrix(0.35277777,0,0,-0.35277777,18.882171,85.284851)">
        <path
           d="m 0,0 c -19.022,0.035 -19.13,-15.195 -18.285,-25.13 -1.307,2.331 -5.162,1.468 -4.849,-2.267 0.304,-3.571 5.756,-5.192 5.68,-4.797 1.559,-8.095 10.522,-12.59 17.454,-13.227 0.047,-0.006 0.099,-0.003 0.143,-0.006 V -0.001 C 0.099,-0.001 0.047,0 0,0"
           style="fill:#ccad8b;fill-opacity:1;fill-rule:nonzero;stroke:none"
           id="path1244"
           inkscape:connector-curvature="0" />
      </g>
      <g
         id="g1246"
         transform="matrix(0.35277777,0,0,-0.35277777,11.058298,94.392869)">
        <path
           d="M 0,0 C 0.954,1.44 2.428,0.822 2.79,0.505 3.171,0.154 3.475,-0.301 3.241,-1.156 3.106,-1.632 2.574,-1.674 2.703,-2.402 2.843,-3.22 3.247,-3.274 3.475,-3.464 3.7,-3.645 3.984,-3.788 4.127,-4.136 4.262,-4.482 4.288,-4.85 4.212,-5.164 4.066,-5.755 3.156,-5.284 2.548,-5.025 2.147,-4.852 0.872,-3.834 0.55,-3.489 -0.263,-2.625 -0.635,-0.958 0,0"
           style="fill:#bc9f82;fill-opacity:1;fill-rule:nonzero;stroke:none"
           id="path1248"
           inkscape:connector-curvature="0" />
      </g>
      <g
         id="g1250"
         transform="matrix(0.35277777,0,0,-0.35277777,18.91526,85.284851)">
        <path
           d="m 0,0 c 19.022,0.035 19.133,-15.195 18.287,-25.13 1.305,2.331 5.163,1.468 4.844,-2.267 -0.304,-3.571 -5.75,-5.192 -5.68,-4.797 C 15.895,-40.289 6.932,-44.784 0,-45.421 c -0.047,-0.006 -0.099,-0.003 -0.146,-0.006 V -0.001 C -0.097,-0.001 -0.047,0 0,0"
           style="fill:#d9bf9f;fill-opacity:1;fill-rule:nonzero;stroke:none"
           id="path1252"
           inkscape:connector-curvature="0" />
      </g>
      <g
         id="g1254"
         transform="matrix(0.35277777,0,0,-0.35277777,26.78661,94.392869)">
        <path
           d="m 0,0 c -0.957,1.44 -2.425,0.822 -2.788,0.505 -0.383,-0.351 -0.687,-0.806 -0.453,-1.661 0.135,-0.476 0.67,-0.518 0.538,-1.246 -0.143,-0.818 -0.544,-0.872 -0.772,-1.062 -0.222,-0.181 -0.509,-0.324 -0.65,-0.672 -0.14,-0.346 -0.163,-0.714 -0.087,-1.028 0.149,-0.591 1.059,-0.12 1.667,0.139 0.398,0.173 1.673,1.191 1.995,1.536 C 0.263,-2.625 0.638,-0.958 0,0"
           style="fill:#bc9f82;fill-opacity:1;fill-rule:nonzero;stroke:none"
           id="path1256"
           inkscape:connector-curvature="0" />
      </g>
      <g
         id="g1258"
         transform="matrix(0.35277777,0,0,-0.35277777,18.847103,86.805501)">
        <path
           d="m 0,0 c -6.353,0 -11.001,-1.745 -13.818,-5.192 -3.929,-4.81 -3.779,-12.163 -2.328,-17.44 0.444,-1.611 0.669,-5.957 0.976,-7.556 1.37,-7.134 9.691,-10.936 15.17,-10.936 0.047,0 0.099,0.008 0.146,0.008 V -0.004 C 0.096,-0.004 0.05,0 0,0"
           style="fill:#dcc5a1;fill-opacity:1;fill-rule:nonzero;stroke:none"
           id="path1260"
           inkscape:connector-curvature="0" />
      </g>
      <g
         id="g1262"
         transform="matrix(0.35277777,0,0,-0.35277777,23.710426,88.639841)">
        <path
           d="m 0,0 c -2.793,3.424 -7.389,5.167 -13.64,5.195 v -41.112 c 6.257,0.067 13.737,4.226 15.021,10.928 0.307,1.6 0.532,5.946 0.977,7.557 C 3.803,-12.167 3.946,-4.827 0,0"
           style="fill:#edd9b4;fill-opacity:1;fill-rule:nonzero;stroke:none"
           id="path1264"
           inkscape:connector-curvature="0" />
      </g>
      <g
         id="g1266"
         transform="matrix(0.35277777,0,0,-0.35277777,20.027602,99.036623)">
        <path
           d="m 0,0 c 0,0 -1.439,-1.531 -3.206,-1.531 -1.772,0 -3.124,1.495 -3.124,1.495 0,0 1.352,0.234 3.124,0.234 C -1.439,0.198 0,0 0,0"
           style="fill:#b47070;fill-opacity:1;fill-rule:nonzero;stroke:none"
           id="path1268"
           inkscape:connector-curvature="0" />
      </g>
      <g
         id="g1270"
         transform="matrix(0.35277777,0,0,-0.35277777,19.215438,98.788336)">
        <path
           d="M 0,0 C -0.494,0 -0.895,-0.31 -0.904,-0.694 -0.915,-0.31 -1.313,0 -1.811,0 c -0.503,0 -2.298,-0.704 -2.298,-0.704 0,0 1.751,-0.187 2.252,-0.187 0.497,0 0.942,-0.195 0.953,0.176 0.006,-0.374 0.369,-0.229 0.866,-0.229 0.5,0 2.34,0.24 2.34,0.24 C 2.302,-0.704 0.506,0 0,0"
           style="fill:#c17874;fill-opacity:1;fill-rule:nonzero;stroke:none"
           id="path1272"
           inkscape:connector-curvature="0" />
      </g>
      <g
         id="g1274"
         transform="matrix(0.35277777,0,0,-0.35277777,24.789822,97.728313)">
        <path
           d="m 0,0 c -0.076,-1.373 -0.152,-1.521 0.518,-2.6 0.667,-1.091 1.445,-1.49 0.699,-2.716 -0.743,-1.226 -1.96,-1.376 -1.887,-2.455 0.076,-1.093 1.41,-1.594 1.188,-3.044 -0.205,-1.31 -2.329,-2.684 -2.726,-2.923 0.321,0.228 1.69,1.29 1.497,2.624 -0.228,1.518 -0.401,1.592 -2.03,2.453 -1.638,0.869 -1.875,1.247 -1.421,2.474 0.441,1.236 1.93,1.341 0.807,2.641 -1.112,1.3 -1.761,2.193 -1.465,2.989 0.301,0.803 -0.194,1.386 1.12,2.919 0.822,0.931 0.702,3.04 0.702,3.981 0,0.946 1.328,5.49 -0.819,7.484 -0.389,0.355 -1.047,1.171 -1.843,2.117 -0.646,0.775 -1.392,1.645 -2.135,2.413 -0.775,0.784 -1.466,1.969 -1.951,2.998 -0.483,1.007 -0.799,1.847 -0.875,2.034 0.023,-0.221 0.164,-1.194 0.263,-1.96 0.03,-0.284 0.065,-0.534 0.073,-0.722 0.141,-1.89 1.325,-2.919 1.694,-3.202 -0.541,0.308 -2.761,1.636 -3.656,2.813 -0.369,0.482 -0.635,0.954 -0.819,1.403 -0.84,1.982 -0.217,3.598 -0.108,3.85 -0.173,-0.252 -1.349,-2.089 -2.662,-3.291 -0.097,-0.095 -0.205,-0.178 -0.313,-0.274 -1.413,-1.187 -3.87,-2.619 -4.195,-2.811 0.193,0.176 1.433,1.288 2.296,2.958 0.109,0.177 0.196,0.367 0.284,0.567 0.281,0.649 1.41,4.048 1.41,4.048 -0.582,-0.956 -1.55,-2.771 -2.867,-4.544 -0.871,-1.194 -1.907,-2.367 -3.059,-3.276 -0.433,-0.341 -1.015,-0.802 -1.662,-1.337 -2.34,-1.921 -5.587,-4.815 -5.876,-6.401 -0.366,-2.021 0.667,-6.44 1.336,-8.242 0.679,-1.813 0.744,-2.392 0,-3.113 -0.742,-0.725 -2.597,-2.025 -2.296,-2.675 0.29,-0.651 1.413,-1.729 1.185,-2.602 -0.225,-0.87 -2.662,-2.948 -2.972,-4.12 -0.541,-2.07 2.68,-3.829 3.06,-4.027 -0.389,0.124 -4.745,1.76 -4.247,3.953 0.324,1.425 0.076,1.655 -0.744,2.746 -0.818,1.082 -2.006,2.895 -0.895,3.973 1.121,1.092 2.674,2.32 2.305,3.547 -0.374,1.228 -4.355,9.737 -4.355,12.746 0,0.89 0.167,2.524 0.553,4.487 0.301,1.553 0.754,3.326 1.389,5.089 1.261,3.45 3.203,6.889 6.146,8.748 6.315,3.973 10.767,4.591 12.999,4.088 2.223,-0.504 4.496,0.381 5.087,0.151 0.593,-0.231 6.297,-2.575 8.453,-4.953 1.659,-1.849 5.777,-6.347 7.567,-11.57 0.538,-1.541 0.863,-3.147 0.863,-4.763 0,-0.176 0,-0.353 -0.012,-0.534 C 5.336,7.279 0.073,1.342 0,0"
           style="fill:#211915;fill-opacity:1;fill-rule:nonzero;stroke:none"
           id="path1276"
           inkscape:connector-curvature="0" />
      </g>
    </g>
    <g
       id="g5107"
       transform="translate(146.88681,-62.750178)">
      <g
         id="g602"
         transform="matrix(0.35277777,0,0,-0.35277777,-6.8363541,82.01924)">
        <path
           d="m 0,0 v -33.119 h -18.065 c -0.293,0.127 -0.445,0.189 -0.445,0.189 0,7.413 1.925,11.97 4.183,14.761 3.13,3.876 6.88,4.329 6.88,4.329 h 0.088 c 0.076,0.012 0.163,0.023 0.239,0.053 0.913,0.251 1.533,1.589 1.951,3.507 0.076,0.329 0.141,0.669 0.19,1.036 0.1,0.608 0.194,1.249 0.255,1.92 0.038,0.403 0.073,0.811 0.114,1.224 0.164,2.034 0.217,4.24 0.217,6.34 C -4.393,0.24 -1.96,0 0,0"
           style="fill:#dcc5a1;fill-opacity:1;fill-rule:nonzero;stroke:none"
           id="path604"
           inkscape:connector-curvature="0" />
      </g>
      <g
         id="g606"
         transform="matrix(0.35277777,0,0,-0.35277777,-0.28371118,93.636177)">
        <path
           d="M 0,0 C 0,0 -0.164,-0.063 -0.433,-0.189 H -18.574 V 32.93 h 0.041 c 1.962,0 4.408,0.24 4.408,0.24 0,-2.084 0.049,-4.27 0.213,-6.287 0.038,-0.409 0.076,-0.809 0.117,-1.202 0.076,-0.695 0.152,-1.352 0.252,-1.97 v -0.01 c 0.038,-0.28 0.088,-0.53 0.14,-0.787 0.38,-1.852 0.936,-3.217 1.747,-3.671 0.061,-0.026 0.125,-0.063 0.19,-0.074 0.128,-0.056 0.266,-0.079 0.406,-0.079 0,0 3.952,-0.465 7.132,-4.645 C -1.784,11.631 0,7.148 0,0"
           style="fill:#edd9b4;fill-opacity:1;fill-rule:nonzero;stroke:none"
           id="path608"
           inkscape:connector-curvature="0" />
      </g>
      <g
         transform="matrix(0.35277777,0,0,-0.35277777,-273.5308,344.59718)"
         id="g610">
        <g
           id="g612" />
        <g
           id="g624">
          <g
             clip-path="url(#clipPath616-6)"
             id="g622"
             style="opacity:0.69999701">
            <g
               transform="translate(761.0154,735.0903)"
               id="g620">
              <path
                 d="m 0,0 v -0.013 c -0.442,-0.708 -1.974,-2.715 -5.002,-2.715 h -0.026 c -2.876,0.011 -4.549,2.097 -4.979,2.703 0.103,0.605 0.191,1.249 0.252,1.919 0.038,0.404 0.076,0.81 0.114,1.223 1.404,-0.352 2.928,-0.567 4.563,-0.592 h 0.05 c 1.67,0.025 3.214,0.25 4.662,0.644 0.038,-0.404 0.073,-0.811 0.114,-1.2 C -0.176,1.274 -0.099,0.618 0,0"
                 style="fill:#bc9f82;fill-opacity:1;fill-rule:nonzero;stroke:none"
                 id="path618"
                 inkscape:connector-curvature="0" />
            </g>
          </g>
        </g>
      </g>
      <g
         id="g626"
         transform="matrix(0.35277777,0,0,-0.35277777,-0.28371118,93.636177)">
        <path
           d="M 0,0 C 0,0 -0.164,-0.063 -0.433,-0.189 H -36.64 C -36.932,-0.063 -37.084,0 -37.084,0 c 0,7.413 1.924,11.97 4.183,14.76 1.228,-2.174 3.305,-4.408 7.043,-5.1 2.127,-0.391 4.727,-0.759 7.284,-0.921 3.776,-0.28 7.336,0.336 9.29,1.398 1.734,0.945 3.861,2.551 5.356,4.308 C -1.784,11.631 0,7.148 0,0"
           style="fill:#2b1910;fill-opacity:1;fill-rule:nonzero;stroke:none"
           id="path628"
           inkscape:connector-curvature="0" />
      </g>
      <g
         id="g630"
         transform="matrix(0.35277777,0,0,-0.35277777,-6.8590556,89.042126)">
        <path
           d="m 0,0 c -1.392,0 -2.521,1.124 -2.521,2.512 0,1.387 1.129,2.51 2.521,2.51 1.393,0 2.518,-1.123 2.518,-2.51 C 2.518,1.124 1.393,0 0,0 M 7.263,5.692 C 6.71,6.449 6.336,7.324 6.482,8.219 6.628,9.116 5.157,9.077 5.157,9.077 c 0,0 0.532,-0.713 0.035,-1.207 -0.5,-0.496 -2.363,-1.141 -5.157,-1.141 -2.796,0 -3.96,0.351 -4.589,0.703 -0.626,0.354 -1.214,1.134 -0.357,1.888 0,0 -0.723,0.074 -1.521,-0.491 C -7.231,8.262 -5.926,7.845 -6.397,7.112 -6.868,6.385 -6.751,6.255 -7.649,5.409 -8.55,4.56 -7.675,4.056 -6.432,3.406 -5.628,2.984 -4.94,2.65 -4.11,2.408 -4.022,0.496 -2.217,-1.033 0,-1.033 c 2.211,0 4.007,1.522 4.107,3.428 1.076,0.316 2.027,0.839 3.165,1.695 1.363,1.028 0.544,0.85 -0.009,1.602"
           style="fill:#f8f7e0;fill-opacity:1;fill-rule:nonzero;stroke:none"
           id="path632"
           inkscape:connector-curvature="0" />
      </g>
      <g
         id="g634"
         transform="matrix(0.35277777,0,0,-0.35277777,-6.8405066,69.466981)">
        <path
           d="m 0,0 c -18.855,0.035 -18.966,-15.066 -18.127,-24.911 -1.293,2.31 -5.116,1.453 -4.805,-2.25 0.301,-3.541 5.706,-5.145 5.633,-4.757 1.542,-8.022 10.428,-12.477 17.299,-13.112 0.047,-0.002 0.099,0 0.146,-0.003 v 45.03 C 0.096,-0.003 0.047,0 0,0"
           style="fill:#ccad8b;fill-opacity:1;fill-rule:nonzero;stroke:none"
           id="path636"
           inkscape:connector-curvature="0" />
      </g>
      <g
         id="g638"
         transform="matrix(0.35277777,0,0,-0.35277777,-14.596252,78.496542)">
        <path
           d="M 0,0 C 0.948,1.431 2.404,0.815 2.764,0.496 3.147,0.154 3.445,-0.297 3.212,-1.143 3.077,-1.619 2.55,-1.655 2.679,-2.379 2.82,-3.192 3.218,-3.245 3.445,-3.429 3.668,-3.613 3.949,-3.755 4.089,-4.097 4.227,-4.442 4.253,-4.804 4.174,-5.119 4.031,-5.705 3.13,-5.239 2.524,-4.978 2.129,-4.805 0.866,-3.797 0.544,-3.455 -0.261,-2.602 -0.632,-0.953 0,0"
           style="fill:#bc9f82;fill-opacity:1;fill-rule:nonzero;stroke:none"
           id="path640"
           inkscape:connector-curvature="0" />
      </g>
      <g
         id="g642"
         transform="matrix(0.35277777,0,0,-0.35277777,-6.8074087,69.466981)">
        <path
           d="m 0,0 c 18.855,0.035 18.963,-15.066 18.124,-24.911 1.296,2.31 5.119,1.453 4.809,-2.25 -0.305,-3.541 -5.707,-5.145 -5.631,-4.757 C 15.757,-39.94 6.871,-44.395 0,-45.03 c -0.047,-0.002 -0.1,0 -0.143,-0.003 v 45.03 C -0.097,-0.003 -0.047,0 0,0"
           style="fill:#d9bf9f;fill-opacity:1;fill-rule:nonzero;stroke:none"
           id="path644"
           inkscape:connector-curvature="0" />
      </g>
      <g
         id="g646"
         transform="matrix(0.35277777,0,0,-0.35277777,0.99473034,78.496542)">
        <path
           d="m 0,0 c -0.945,1.431 -2.404,0.815 -2.764,0.496 -0.38,-0.342 -0.679,-0.793 -0.448,-1.639 0.135,-0.476 0.665,-0.512 0.536,-1.236 -0.141,-0.813 -0.542,-0.866 -0.767,-1.05 -0.225,-0.184 -0.506,-0.326 -0.646,-0.668 -0.135,-0.345 -0.161,-0.707 -0.085,-1.022 0.146,-0.586 1.047,-0.12 1.65,0.141 0.398,0.173 1.661,1.181 1.98,1.523 C 0.261,-2.602 0.632,-0.953 0,0"
           style="fill:#bc9f82;fill-opacity:1;fill-rule:nonzero;stroke:none"
           id="path648"
           inkscape:connector-curvature="0" />
      </g>
      <g
         id="g650"
         transform="matrix(0.35277777,0,0,-0.35277777,-6.8755654,70.97493)">
        <path
           d="m 0,0 c -6.298,0 -10.905,-1.731 -13.695,-5.147 -3.896,-4.769 -3.744,-12.054 -2.311,-17.287 0.439,-1.598 0.664,-5.904 0.968,-7.49 1.36,-7.072 9.609,-10.839 15.038,-10.839 0.047,0 0.099,0.004 0.146,0.004 V -0.004 C 0.096,-0.004 0.05,0 0,0"
           style="fill:#dcc5a1;fill-opacity:1;fill-rule:nonzero;stroke:none"
           id="path652"
           inkscape:connector-curvature="0" />
      </g>
      <g
         id="g654"
         transform="matrix(0.35277777,0,0,-0.35277777,-2.0545132,72.79276)">
        <path
           d="m 0,0 c -2.767,3.392 -7.324,5.121 -13.52,5.149 v -40.755 c 6.201,0.066 13.613,4.192 14.889,10.835 0.301,1.586 0.526,5.892 0.968,7.49 C 3.767,-12.064 3.914,-4.788 0,0"
           style="fill:#edd9b4;fill-opacity:1;fill-rule:nonzero;stroke:none"
           id="path656"
           inkscape:connector-curvature="0" />
      </g>
      <g
         id="g658"
         transform="matrix(0.35277777,0,0,-0.35277777,-5.7054199,83.099199)">
        <path
           d="m 0,0 c 0,0 -1.422,-1.52 -3.177,-1.52 -1.755,0 -3.097,1.485 -3.097,1.485 0,0 1.342,0.231 3.097,0.231 C -1.422,0.196 0,0 0,0"
           style="fill:#b47070;fill-opacity:1;fill-rule:nonzero;stroke:none"
           id="path660"
           inkscape:connector-curvature="0" />
      </g>
      <g
         id="g662"
         transform="matrix(0.35277777,0,0,-0.35277777,-6.5081632,82.852994)">
        <path
           d="M 0,0 C -0.497,0 -0.892,-0.308 -0.901,-0.688 -0.913,-0.308 -1.31,0 -1.799,0 c -0.5,0 -2.279,-0.698 -2.279,-0.698 0,0 1.735,-0.182 2.235,-0.182 0.492,0 0.93,-0.196 0.942,0.172 0.006,-0.371 0.363,-0.228 0.857,-0.228 0.5,0 2.32,0.238 2.32,0.238 C 2.276,-0.698 0.497,0 0,0"
           style="fill:#c17874;fill-opacity:1;fill-rule:nonzero;stroke:none"
           id="path664"
           inkscape:connector-curvature="0" />
      </g>
      <g
         id="g666"
         transform="matrix(0.35277777,0,0,-0.35277777,-0.80184507,80.241414)">
        <path
           d="m 0,0 c 0.363,0 -0.023,2.11 1.185,3.565 1.205,1.454 3.045,6.352 3.045,11.24 0,4.893 -1.574,9.241 -5.678,13.865 -4.104,4.625 -10.141,6.872 -10.141,6.872 l 2.779,-2.774 c 0,0 -1.498,2.252 -6.868,4.054 -4.242,1.419 -6.988,-0.163 -6.988,-0.163 0,0 2.793,0.106 3.641,-1.226 0.217,-0.339 1.001,-0.853 1.001,-0.853 0,0 -1.299,3.191 -7.337,0.546 -6.034,-2.643 -5.926,-7.378 -10.123,-8.833 -4.297,-1.49 -5.543,0.422 -5.543,0.422 0,0 1.866,-3.351 5.177,-3.359 0.635,0 0.591,0.016 0.591,0.016 0,0 -1.24,-3.593 -1.48,-6.27 -0.243,-2.734 0.515,-4.606 0.749,-9.721 0.202,-4.374 1.293,-2.131 2.592,-5.352 0.435,-1.081 0.456,-2.299 0.456,-2.299 0.48,-0.127 1.743,2.626 0.836,7.405 -0.591,3.104 2.326,14.867 9.361,12.573 4.305,-1.402 5.391,-4.26 8.608,-1.721 2.776,2.188 6.655,3.443 9.551,1.714 C -1.691,17.97 -0.058,14.08 -0.562,7.87 -1.208,-0.057 0,0 0,0"
           style="fill:#895a59;fill-opacity:1;fill-rule:nonzero;stroke:none"
           id="path668"
           inkscape:connector-curvature="0" />
      </g>
    </g>
    <g
       id="g5073"
       transform="matrix(1.3810078,0,0,1.3810078,48.937275,-31.489786)"
       inkscape:export-xdpi="23"
       inkscape:export-ydpi="23">
      <g
         id="g3196"
         transform="matrix(0.35277777,0,0,-0.35277777,-8.5031564,47.665293)">
        <path
           d="m 0,0 c 2.282,7.56 4.215,8.318 4.227,13.054 l -0.699,7.192 c -1.246,6.181 -5.476,12.147 -9.489,14.703 -1.159,0.733 -2.674,1.228 -4.297,1.55 0.006,0.105 0.009,0.163 0.009,0.163 -0.939,0.212 -2.899,0.392 -5.16,0.35 -2.258,0.042 -4.221,-0.138 -5.16,-0.35 0,0 0.003,-0.058 0.009,-0.163 -1.621,-0.323 -3.133,-0.817 -4.291,-1.55 -4.019,-2.556 -8.249,-8.522 -9.495,-14.703 l -0.699,-7.192 C -35.025,8.318 -33.1,7.56 -30.813,0 c 1.89,-6.276 -1.91,-5.559 -1.91,-5.559 0,0 5.806,-4.347 5.154,18.2 -0.026,0.944 0.424,1.989 1.161,3.057 0.059,-0.112 0.117,-0.216 0.179,-0.302 0.482,-0.675 0.848,-1.053 1.202,-1.312 -0.895,-1.813 -1.591,-3.752 -1.983,-5.713 l -0.702,-7.189 c 0.012,-4.738 1.945,-5.496 4.224,-13.055 1.889,-6.276 -1.902,-5.558 -1.902,-5.558 0,0 5.798,-4.347 5.148,18.2 -0.061,2.092 2.206,4.669 4.833,6.932 2.627,-2.263 4.893,-4.84 4.835,-6.932 -0.652,-22.547 5.154,-18.2 5.154,-18.2 0,0 -3.797,-0.718 -1.904,5.558 0.699,2.325 1.369,4.003 1.957,5.356 1.541,-4.714 3.94,-2.919 3.94,-2.919 0,0 -3.8,-0.716 -1.902,5.556 0.305,1.018 0.606,1.908 0.895,2.706 1.481,-6.525 4.338,-4.385 4.338,-4.385 0,0 -3.793,-0.717 -1.904,5.559"
           style="fill:#ffffff;fill-opacity:1;fill-rule:nonzero;stroke:none"
           id="path3198"
           inkscape:connector-curvature="0" />
      </g>
      <g
         id="g3200"
         transform="matrix(0.35277777,0,0,-0.35277777,-14.071287,45.565807)">
        <path
           d="m 0,0 v -34.674 l -16.551183,2.880125 c -0.307,0.144 -2.247934,1.469627 -2.247934,1.469627 0,4.344 0.04012,3.595248 1.023117,6.264248 2.226,6.148 6.234,8.396 8.433,9.176 0.933,0.331 1.542,0.409 1.542,0.409 h 0.093 c 0.079,0.011 0.173,0.027 0.252,0.055 0.635,0.167 1.144,0.858 1.538,1.901 0.199,0.503 0.36,1.096 0.507,1.76 0.076,0.354 0.143,0.714 0.199,1.083 0.105,0.646 0.198,1.309 0.263,2.022 0.041,0.408 0.082,0.834 0.12,1.271 0.172,2.139 0.225,4.455 0.225,6.636 C -4.604,0.253 -2.059,0 0,0"
           style="fill:#dcc5a1;fill-opacity:1;fill-rule:nonzero;stroke:none"
           id="path3202"
           inkscape:connector-curvature="0"
           sodipodi:nodetypes="cccccccccccccccc" />
      </g>
      <g
         id="g3204"
         transform="matrix(0.35277777,0,0,-0.35277777,-7.2111724,57.727117)">
        <path
           d="m -19.446,-0.2 v 34.673 h 0.041 c 2.053,0 4.616,0.253 4.616,0.253 0,-2.171 0.052,-4.455 0.225,-6.572 0.038,-0.422 0.079,-0.845 0.12,-1.268 0.079,-0.716 0.158,-1.419 0.263,-2.048 V 24.81 c 0.041,-0.279 0.094,-0.554 0.147,-0.804 0.187,-0.916 0.412,-1.706 0.678,-2.343 h 0.012 c 0.304,-0.737 0.69,-1.258 1.141,-1.505 0.067,-0.027 0.134,-0.082 0.198,-0.093 0.132,-0.04 0.278,-0.067 0.425,-0.067 0,0 0.345,-0.04 0.927,-0.197 2.097,-0.622 7.204,-2.872 9.498,-10.736 0.588,-1.97 0.74198954,-2.9587989 0.86198954,-5.7077989"
           style="fill:#edd9b4;fill-opacity:1;fill-rule:nonzero;stroke:none"
           id="path3206"
           inkscape:connector-curvature="0"
           sodipodi:nodetypes="ccscccccccccccccc" />
      </g>
      <g
         transform="matrix(0.35277777,0,0,-0.35277777,-281.0963,214.4552)"
         id="g3208">
        <g
           id="g3210" />
        <g
           id="g3222">
          <g
             clip-path="url(#clipPath3214-3)"
             id="g3220"
             style="opacity:0.69999701">
            <g
               transform="translate(762.1777,469.0918)"
               id="g3218">
              <path
                 d="m 0,0 v -0.012 c -0.465,-0.741 -2.068,-2.841 -5.239,-2.841 h -0.026 c -3.01,0.013 -4.762,2.196 -5.213,2.828 0.109,0.637 0.196,1.311 0.266,2.009 0.038,0.423 0.08,0.849 0.118,1.284 1.474,-0.369 3.065,-0.595 4.776,-0.622 h 0.053 c 1.752,0.027 3.37,0.263 4.882,0.674 0.041,-0.421 0.082,-0.846 0.12,-1.255 C -0.184,1.337 -0.105,0.649 0,0"
                 style="fill:#bc9f82;fill-opacity:1;fill-rule:nonzero;stroke:none"
                 id="path3216"
                 inkscape:connector-curvature="0" />
            </g>
          </g>
        </g>
      </g>
      <g
         id="g3224"
         transform="matrix(0.35277777,0,0,-0.35277777,-8.8580968,54.599425)">
        <path
           d="m 0,0 c -2.709,4.602 -4.604,7.857 -5.441,10.723 -0.927,0.332 -1.538,0.409 -1.538,0.409 h -0.094 c -0.076,0.011 -0.17,0.027 -0.251,0.055 -0.635,0.167 -1.141,0.858 -1.539,1.901 -0.33,-0.17 -0.769,-0.342 -1.313,-0.487 -1.682,-0.48 -4.522,-1.189 -4.522,-1.189 0,0 1.339,-2.75 2.746,-6.81 1.112,-3.236 -0.664,-5.671 -2.826,-5.762 -2.164,0.091 -3.94,2.526 -2.825,5.762 1.404,4.06 2.744,6.81 2.744,6.81 0,0 -2.838,0.709 -4.523,1.189 -0.544,0.145 -0.982,0.317 -1.313,0.487 -0.395,-1.043 -0.904,-1.734 -1.538,-1.901 -0.079,-0.028 -0.173,-0.044 -0.252,-0.055 h -0.094 c 0,0 -0.608,-0.077 -1.541,-0.409 C -24.951,7.857 -26.849,4.602 -29.555,0 c -1.498,-2.551 -0.21899,-5.2119163 0.64901,-7.1459163 L -14.778,-9.066 -0.75187208,-7.420214 C 0.11312792,-5.651214 1.498,-2.551 0,0"
           style="fill:#751819;fill-opacity:1;fill-rule:nonzero;stroke:none"
           id="path3226"
           inkscape:connector-curvature="0"
           sodipodi:nodetypes="ccccccccccccccccccccccc" />
      </g>
      <path
         d="m -14.079544,32.419402 c -6.965243,-0.01342 -7.004402,5.564366 -6.695013,9.200798 -0.478722,-0.852665 -1.890536,-0.535515 -1.774828,0.830085 0.111481,1.30916 2.107141,1.902179 2.080331,1.757891 0.569737,2.962983 3.851982,4.609044 6.38951,4.842935 0.01765,8.71e-4 0.03599,0 0.05363,0.0013 v -16.6317 c -0.01869,0 -0.03599,-0.0013 -0.05363,-0.0013"
         style="fill:#ccad8b;fill-opacity:1;fill-rule:nonzero;stroke:none;stroke-width:0.35277775"
         id="path3230"
         inkscape:connector-curvature="0" />
      <g
         id="g3232"
         transform="matrix(0.35277777,0,0,-0.35277777,-22.199647,41.872718)">
        <path
           d="M 0,0 C 0.992,1.497 2.519,0.852 2.893,0.521 3.294,0.163 3.61,-0.313 3.361,-1.195 3.224,-1.697 2.671,-1.734 2.805,-2.493 2.952,-3.344 3.373,-3.399 3.607,-3.592 3.841,-3.784 4.133,-3.934 4.282,-4.292 4.426,-4.65 4.452,-5.034 4.37,-5.361 4.218,-5.975 3.273,-5.487 2.642,-5.217 2.229,-5.036 0.904,-3.979 0.571,-3.62 -0.272,-2.724 -0.661,-0.999 0,0"
           style="fill:#bc9f82;fill-opacity:1;fill-rule:nonzero;stroke:none"
           id="path3234"
           inkscape:connector-curvature="0" />
      </g>
      <g
         id="g3236"
         transform="matrix(0.35277777,0,0,-0.35277777,-14.044459,32.419402)">
        <path
           d="m 0,0 c 19.741,0.038 19.855,-15.773 18.978,-26.081 1.354,2.417 5.359,1.518 5.031,-2.353 -0.316,-3.711 -5.973,-5.392 -5.897,-4.983 C 16.497,-41.816 7.196,-46.482 0,-47.145 c -0.05,-0.003 -0.105,0 -0.152,-0.004 V -0.004 C -0.102,-0.004 -0.05,0 0,0"
           style="fill:#d9bf9f;fill-opacity:1;fill-rule:nonzero;stroke:none"
           id="path3238"
           inkscape:connector-curvature="0" />
      </g>
      <g
         id="g3240"
         transform="matrix(0.35277777,0,0,-0.35277777,-5.8758465,41.872718)">
        <path
           d="m 0,0 c -0.989,1.497 -2.516,0.852 -2.89,0.521 -0.404,-0.358 -0.714,-0.834 -0.474,-1.716 0.143,-0.502 0.696,-0.539 0.562,-1.298 -0.147,-0.851 -0.565,-0.906 -0.802,-1.099 -0.234,-0.192 -0.529,-0.342 -0.678,-0.7 -0.141,-0.358 -0.167,-0.742 -0.088,-1.069 0.152,-0.614 1.097,-0.126 1.728,0.144 0.419,0.181 1.741,1.238 2.074,1.597 C 0.275,-2.724 0.661,-0.999 0,0"
           style="fill:#bc9f82;fill-opacity:1;fill-rule:nonzero;stroke:none"
           id="path3242"
           inkscape:connector-curvature="0" />
      </g>
      <g
         id="g3244"
         transform="matrix(0.35277777,0,0,-0.35277777,-14.115683,33.998156)">
        <path
           d="m 0,0 c -6.596,0 -11.419,-1.812 -14.342,-5.388 -4.077,-4.995 -3.922,-12.621 -2.416,-18.099 0.456,-1.675 0.693,-6.186 1.012,-7.843 1.422,-7.406 10.057,-11.351 15.746,-11.351 0.047,0 0.102,0.007 0.152,0.007 v 42.67 C 0.099,-0.004 0.05,0 0,0"
           style="fill:#dcc5a1;fill-opacity:1;fill-rule:nonzero;stroke:none"
           id="path3246"
           inkscape:connector-curvature="0" />
      </g>
      <g
         id="g3248"
         transform="matrix(0.35277777,0,0,-0.35277777,-9.0685974,35.901638)">
        <path
           d="m 0,0 c -2.896,3.553 -7.667,5.362 -14.155,5.391 v -42.669 c 6.491,0.067 14.254,4.387 15.588,11.344 0.316,1.656 0.553,6.168 1.015,7.843 C 3.949,-12.631 4.095,-5.01 0,0"
           style="fill:#edd9b4;fill-opacity:1;fill-rule:nonzero;stroke:none"
           id="path3250"
           inkscape:connector-curvature="0" />
      </g>
      <g
         id="g3252"
         transform="matrix(0.35277777,0,0,-0.35277777,-12.890797,46.693003)">
        <path
           d="m 0,0 c 0,0 -1.492,-1.588 -3.329,-1.588 -1.837,0 -3.241,1.556 -3.241,1.556 0,0 1.404,0.236 3.241,0.236 C -1.492,0.204 0,0 0,0"
           style="fill:#b47070;fill-opacity:1;fill-rule:nonzero;stroke:none"
           id="path3254"
           inkscape:connector-curvature="0" />
      </g>
      <g
         id="g3256"
         transform="matrix(0.35277777,0,0,-0.35277777,-13.73283,46.43442)">
        <path
           d="M 0,0 C -0.515,0 -0.93,-0.321 -0.942,-0.721 -0.953,-0.321 -1.366,0 -1.881,0 c -0.523,0 -2.384,-0.733 -2.384,-0.733 0,0 1.814,-0.192 2.338,-0.192 0.517,0 0.974,-0.202 0.985,0.182 0.009,-0.389 0.386,-0.239 0.901,-0.239 0.521,0 2.428,0.249 2.428,0.249 C 2.387,-0.733 0.524,0 0,0"
           style="fill:#c17874;fill-opacity:1;fill-rule:nonzero;stroke:none"
           id="path3258"
           inkscape:connector-curvature="0" />
      </g>
      <g
         id="g3260"
         transform="matrix(0.35277777,0,0,-0.35277777,-9.8301207,35.5399)">
        <path
           d="m 0,0 c -1.468,-2.404 -1.059,-5.122 -6.046,-6.907 -4.982,-1.784 -7.222,-2.273 -12.657,-4.423 -12.326,-4.878 -5.996,-16.175 -5.996,-16.175 0,0 -3.376,2.907 -4.605,5.934 -1.225,3.025 -5.949,16.206 0,26.623 3.265,5.716 9.314,7.034 14.62,7.419 5.312,0.391 9.097,-0.019 12.935,-3.124 0.836,-0.673 3.235,-0.826 5.868,-2.472 5.885,-3.678 5.402,-9.102 5.657,-12.566 0.327,-4.42 -0.384,-7.582 -1.524,-10.608 -1.147,-3.025 -8.079,-11.962 -8.079,-11.962 0,0 5.39,10.919 2.395,18.015 -1.755,4.155 -4.891,3.919 -5.025,5.532 C -2.598,-3.101 0,0 0,0"
           style="fill:#ffffff;fill-opacity:1;fill-rule:nonzero;stroke:none"
           id="path3262"
           inkscape:connector-curvature="0" />
      </g>
    </g>
    <g
       id="g5164"
       transform="matrix(1.3273649,0,0,1.3273649,76.219058,-178.74964)"
       inkscape:export-xdpi="23"
       inkscape:export-ydpi="23">
      <g
         id="g3800"
         transform="matrix(0.35277777,0,0,-0.35277777,-23.200022,116.55288)">
        <path
           d="m 0,0 v -35.514 l -17.3579,3.345212 c -0.313,0.141 0,0 0,0 0,19.05 9.3699,17.328788 9.3699,17.328788 1.178,0 1.942,1.517 2.445,3.817 0.079,0.355 0.146,0.722 0.202,1.113 0.111,0.648 0.202,1.338 0.272,2.061 0.038,0.427 0.079,0.859 0.12,1.309 0.181,2.181 0.231,4.55 0.231,6.796 C -4.718,0.256 -2.106,0 0,0"
           style="fill:#74572d;fill-opacity:1;fill-rule:nonzero;stroke:none"
           id="path3802"
           inkscape:connector-curvature="0"
           sodipodi:nodetypes="ccccccccccc" />
      </g>
      <g
         id="g3804"
         transform="matrix(0.35277777,0,0,-0.35277777,-16.17484,129.00866)">
        <path
           d="m -3.4827212,2.784447 c 0,0 -0.9948584,-0.6565661 -1.2778584,-0.7965661 L -19.914,-0.206 v 35.514 h 0.038 c 2.109,0 4.73,0.256 4.73,0.256 0,-2.231 0.053,-4.571 0.228,-6.741 0.041,-0.437 0.082,-0.868 0.123,-1.288 0.082,-0.744 0.161,-1.448 0.272,-2.107 v -0.016 c 0.041,-0.297 0.096,-0.571 0.152,-0.84 0.5,-2.45 1.287,-4.105 2.513,-4.105 0,0 10.0683563,1.964835 10.0683563,-17.0841653"
           style="fill:#8c6739;fill-opacity:1;fill-rule:nonzero;stroke:none"
           id="path3806"
           inkscape:connector-curvature="0"
           sodipodi:nodetypes="ccccscccccccc" />
      </g>
      <g
         id="g3808"
         transform="matrix(0.35277777,0,0,-0.35277777,-21.298231,120.03818)">
        <path
           d="m 0,0 v -0.016 c -0.477,-0.756 -2.121,-2.912 -5.368,-2.912 h -0.023 c -3.086,0.014 -4.879,2.244 -5.341,2.898 0.111,0.648 0.202,1.338 0.272,2.06 0.038,0.428 0.079,0.86 0.12,1.309 1.506,-0.381 3.138,-0.608 4.893,-0.635 h 0.056 c 1.79,0.027 3.449,0.269 4.996,0.691 C -0.354,2.958 -0.313,2.526 -0.272,2.107 -0.19,1.363 -0.111,0.659 0,0"
           style="fill:#544122;fill-opacity:1;fill-rule:nonzero;stroke:none"
           id="path3810"
           inkscape:connector-curvature="0" />
      </g>
      <path
         d="m -16.982371,127.87186 c 0,0 -0.90526,0.35536 -1.004034,0.40406 -4.121861,1.42944 -7.019592,0.60492 -10.671009,-0.023 -0.110422,-0.0487 -1.452608,-0.70193 -1.452608,-0.70193 0,-5.1188 2.421416,-5.36324 3.578176,-5.79328 0.753179,0.8255 2.156441,2.15863 3.308966,2.21472 h 0.02292 0.0049 0.0044 c 0.0053,0 0.01447,0.005 0.02471,0 1.156755,-0.0561 2.773586,-1.30481 3.527828,-2.13066 1.15076,0.42509 2.857105,0.70105 2.857105,5.83502"
         style="fill:#442c38;fill-opacity:1;fill-rule:nonzero;stroke:none;stroke-width:0.35277775"
         id="path3814"
         inkscape:connector-curvature="0"
         sodipodi:nodetypes="ccccccccsccc" />
      <g
         id="g3816"
         transform="matrix(0.35277777,0,0,-0.35277777,-23.300065,102.18544)">
        <path
           d="m 0,0 c -20.52,0 -20.637,-17.118 -19.724,-28.324 -1.41,2.659 -5.569,1.839 -5.23,-2.347 0.33,-4.029 6.213,-6.107 6.131,-5.64 C -17.141,-45.533 -7.486,-50.858 0,-50.858 H 0.158 V 0 H 0"
           style="fill:#544122;fill-opacity:1;fill-rule:nonzero;stroke:none"
           id="path3818"
           inkscape:connector-curvature="0" />
      </g>
      <g
         id="g3820"
         transform="matrix(0.35277777,0,0,-0.35277777,-31.641005,112.38164)">
        <path
           d="M 0,0 C 1.018,1.619 2.58,0.924 2.966,0.566 3.37,0.179 3.697,-0.339 3.446,-1.293 3.3,-1.831 2.732,-1.866 2.872,-2.685 3.025,-3.601 3.451,-3.662 3.697,-3.869 3.934,-4.075 4.236,-4.242 4.387,-4.628 4.531,-5.013 4.557,-5.425 4.475,-5.775 4.323,-6.438 3.352,-5.915 2.703,-5.627 2.281,-5.425 0.927,-4.29 0.582,-3.905 -0.278,-2.932 -0.676,-1.075 0,0"
           style="fill:#342916;fill-opacity:1;fill-rule:nonzero;stroke:none"
           id="path3822"
           inkscape:connector-curvature="0" />
      </g>
      <g
         id="g3824"
         transform="matrix(0.35277777,0,0,-0.35277777,-23.264048,102.18544)">
        <path
           d="m 0,0 c 20.52,0 20.637,-17.118 19.727,-28.324 1.407,2.659 5.569,1.839 5.23,-2.347 -0.328,-4.029 -6.213,-6.107 -6.131,-5.64 C 17.147,-45.533 7.488,-50.858 0,-50.858 H -0.155 V 0 H 0"
           style="fill:#544122;fill-opacity:1;fill-rule:nonzero;stroke:none"
           id="path3826"
           inkscape:connector-curvature="0" />
      </g>
      <g
         id="g3828"
         transform="matrix(0.35277777,0,0,-0.35277777,-14.922054,112.38164)">
        <path
           d="m 0,0 c -1.012,1.619 -2.58,0.924 -2.969,0.566 -0.404,-0.387 -0.723,-0.905 -0.477,-1.859 0.14,-0.538 0.714,-0.573 0.574,-1.392 -0.153,-0.916 -0.58,-0.977 -0.82,-1.184 -0.245,-0.206 -0.544,-0.373 -0.696,-0.759 -0.143,-0.385 -0.169,-0.797 -0.088,-1.147 0.153,-0.663 1.118,-0.14 1.77,0.148 0.424,0.202 1.776,1.337 2.121,1.722 C 0.281,-2.932 0.673,-1.075 0,0"
           style="fill:#342916;fill-opacity:1;fill-rule:nonzero;stroke:none"
           id="path3830"
           inkscape:connector-curvature="0" />
      </g>
      <g
         id="g3832"
         transform="matrix(0.35277777,0,0,-0.35277777,-23.241329,103.88777)">
        <path
           d="m 0,0 c -6.76,0 -11.695,-1.95 -14.69,-5.813 -4.177,-5.384 -4.019,-13.614 -2.477,-19.519 0.471,-1.809 0.711,-6.671 1.035,-8.462 1.46,-7.987 10.305,-12.238 16.132,-12.238 0.047,0 0.102,0.007 0.152,0.007 L 0.152,0 H 0"
           style="fill:#74572d;fill-opacity:1;fill-rule:nonzero;stroke:none"
           id="path3834"
           inkscape:connector-curvature="0" />
      </g>
      <g
         id="g3836"
         transform="matrix(0.35277777,0,0,-0.35277777,-18.073559,105.94055)">
        <path
           d="m 0,0 c -2.966,3.835 -7.848,5.783 -14.497,5.819 v -46.025 c 6.655,0.07 14.602,4.734 15.971,12.231 0.316,1.791 0.562,6.652 1.036,8.462 C 4.042,-13.623 4.195,-5.406 0,0"
           style="fill:#8c6739;fill-opacity:1;fill-rule:nonzero;stroke:none"
           id="path3838"
           inkscape:connector-curvature="0" />
      </g>
      <g
         id="g3840"
         transform="matrix(0.35277777,0,0,-0.35277777,-16.255341,112.11173)">
        <path
           d="m 0,0 c -0.415,-0.407 -0.889,-0.922 -1.205,-1.769 -0.655,-1.707 -0.901,-1.412 -0.901,-1.412 0,0 1.03,6.68 1.03,8.537 0,1.847 -5.856,8.203 -9.121,9.305 -3.276,1.093 -6.215,-2.604 -9.729,-2.604 h -0.275 c -3.445,0.068 -6.499,3.681 -9.728,2.604 -3.259,-1.102 -9.118,-7.458 -9.118,-9.305 0,-1.857 1.027,-8.537 1.027,-8.537 0,0 -0.252,-0.295 -0.901,1.412 -0.372,1 -0.971,1.557 -1.442,1.964 -0.869,11.568 -0.372,28.609 20.136,28.609 h 0.108 C 0.5,28.804 0.898,11.569 0,0"
           style="fill:#0f1005;fill-opacity:1;fill-rule:nonzero;stroke:none"
           id="path3842"
           inkscape:connector-curvature="0" />
      </g>
    </g>
    <g
       id="g5040"
       transform="translate(96.706818,6.6648776)">
      <g
         id="g3920"
         transform="matrix(0.35277777,0,0,-0.35277777,-4.3262727,23.381222)">
        <path
           d="m 0,0 v -35.533 h -19.388 c -0.313,0.131 -0.476,0.204 -0.476,0.204 0,8.166 2.173,13.087 4.662,16.049 3.317,3.97 7.205,4.431 7.205,4.431 h 0.096 c 0.082,0.013 0.176,0.026 0.258,0.057 0.98,0.27 1.644,1.705 2.094,3.764 0.082,0.35 0.146,0.718 0.205,1.112 0.105,0.649 0.202,1.344 0.272,2.059 0.038,0.434 0.082,0.866 0.123,1.317 0.175,2.178 0.231,4.546 0.231,6.797 C -4.718,0.257 -2.109,0 0,0"
           style="fill:#dcc5a1;fill-opacity:1;fill-rule:nonzero;stroke:none"
           id="path3922"
           inkscape:connector-curvature="0" />
      </g>
      <g
         id="g3924"
         transform="matrix(0.35277777,0,0,-0.35277777,2.7040772,35.844684)">
        <path
           d="m 0,0 c 0,0 -0.179,-0.073 -0.462,-0.204 h -19.467 v 35.533 h 0.038 c 2.109,0 4.733,0.258 4.733,0.258 0,-2.236 0.05,-4.579 0.228,-6.747 0.041,-0.435 0.085,-0.864 0.123,-1.287 0.082,-0.746 0.164,-1.45 0.269,-2.112 v -0.016 c 0.044,-0.298 0.1,-0.567 0.158,-0.838 0.401,-1.992 1.004,-3.457 1.869,-3.941 0.071,-0.03 0.138,-0.068 0.208,-0.083 0.135,-0.057 0.287,-0.083 0.433,-0.083 0,0 4.256,-0.511 7.67,-4.997 C -1.919,12.473 0,7.654 0,0"
           style="fill:#edd9b4;fill-opacity:1;fill-rule:nonzero;stroke:none"
           id="path3926"
           inkscape:connector-curvature="0" />
      </g>
      <g
         transform="matrix(0.35277777,0,0,-0.35277777,-271.07993,161.43413)"
         id="g3928">
        <g
           id="g3930" />
        <g
           id="g3942">
          <g
             clip-path="url(#clipPath3934-7)"
             id="g3940"
             style="opacity:0.69999701">
            <g
               transform="translate(761.5487,381.4313)"
               id="g3938">
              <path
                 d="m 0,0 v -0.013 c -0.474,-0.764 -2.118,-2.915 -5.37,-2.915 h -0.024 c -3.086,0.016 -4.882,2.249 -5.341,2.9 0.105,0.652 0.199,1.341 0.269,2.06 0.038,0.433 0.082,0.868 0.123,1.316 1.506,-0.38 3.139,-0.611 4.891,-0.639 h 0.058 C -3.604,2.737 -1.942,2.98 -0.392,3.4 -0.354,2.968 -0.31,2.535 -0.269,2.113 -0.187,1.367 -0.111,0.665 0,0"
                 style="fill:#bc9f82;fill-opacity:1;fill-rule:nonzero;stroke:none"
                 id="path3936"
                 inkscape:connector-curvature="0" />
            </g>
          </g>
        </g>
      </g>
      <g
         id="g3944"
         transform="matrix(0.35277777,0,0,-0.35277777,2.6875674,35.839642)">
        <path
           d="M 0,0 C 0,0 -0.182,-0.068 -0.465,-0.206 H -39.337 C -39.653,-0.068 -39.816,0 -39.816,0 c 0,14.51 6.891,18.786 10.173,20.005 2.135,-2.34 6.365,-5.564 9.632,-5.723 h 0.065 0.014 0.012 c 0.015,0 0.041,-0.013 0.07,0 3.279,0.159 7.509,3.396 9.647,5.737 C -6.941,18.814 0,14.553 0,0"
           style="fill:#442c38;fill-opacity:1;fill-rule:nonzero;stroke:none"
           id="path3946"
           inkscape:connector-curvature="0" />
      </g>
      <g
         id="g3948"
         transform="matrix(0.35277777,0,0,-0.35277777,-4.3314318,9.9125905)">
        <path
           d="m 0,0 c -20.236,0.035 -20.35,-16.165 -19.446,-26.731 -1.392,2.482 -5.496,1.562 -5.16,-2.41 0.322,-3.802 6.122,-5.528 6.043,-5.104 1.653,-8.609 11.192,-13.392 18.563,-14.071 0.05,-0.006 0.105,-0.003 0.155,-0.006 V -0.004 C 0.105,-0.004 0.05,0 0,0"
           style="fill:#ccad8b;fill-opacity:1;fill-rule:nonzero;stroke:none"
           id="path3950"
           inkscape:connector-curvature="0" />
      </g>
      <g
         id="g3952"
         transform="matrix(0.35277777,0,0,-0.35277777,-12.579515,19.568612)">
        <path
           d="M 0,0 C 1.015,1.534 2.583,0.874 2.966,0.534 3.376,0.167 3.694,-0.317 3.449,-1.227 3.303,-1.739 2.735,-1.779 2.872,-2.552 3.025,-3.427 3.449,-3.485 3.694,-3.679 3.934,-3.874 4.239,-4.03 4.388,-4.397 4.531,-4.766 4.563,-5.157 4.479,-5.495 4.323,-6.124 3.358,-5.621 2.712,-5.346 2.282,-5.157 0.927,-4.078 0.582,-3.709 -0.278,-2.792 -0.676,-1.018 0,0"
           style="fill:#bc9f82;fill-opacity:1;fill-rule:nonzero;stroke:none"
           id="path3954"
           inkscape:connector-curvature="0" />
      </g>
      <g
         id="g3956"
         transform="matrix(0.35277777,0,0,-0.35277777,-4.296373,9.9125905)">
        <path
           d="m 0,0 c 20.233,0.035 20.35,-16.165 19.452,-26.731 1.386,2.482 5.49,1.562 5.154,-2.41 -0.322,-3.802 -6.122,-5.528 -6.038,-5.104 C 16.907,-42.854 7.374,-47.637 0,-48.316 c -0.05,-0.006 -0.108,-0.003 -0.152,-0.006 V -0.004 C -0.105,-0.004 -0.05,0 0,0"
           style="fill:#d9bf9f;fill-opacity:1;fill-rule:nonzero;stroke:none"
           id="path3958"
           inkscape:connector-curvature="0" />
      </g>
      <g
         id="g3960"
         transform="matrix(0.35277777,0,0,-0.35277777,4.0311765,19.527017)">
        <path
           d="m 0,0 c -1.018,1.536 -2.58,0.872 -2.966,0.532 -0.41,-0.366 -0.731,-0.851 -0.48,-1.759 0.14,-0.512 0.708,-0.552 0.568,-1.326 -0.15,-0.874 -0.577,-0.932 -0.816,-1.127 -0.243,-0.194 -0.545,-0.35 -0.694,-0.717 -0.149,-0.367 -0.175,-0.76 -0.093,-1.098 0.158,-0.629 1.123,-0.126 1.772,0.149 0.427,0.186 1.782,1.266 2.124,1.636 C 0.278,-2.792 0.675,-1.021 0,0"
           style="fill:#bc9f82;fill-opacity:1;fill-rule:nonzero;stroke:none"
           id="path3962"
           inkscape:connector-curvature="0" />
      </g>
      <g
         id="g3964"
         transform="matrix(0.35277777,0,0,-0.35277777,-4.3686561,11.53036)">
        <path
           d="m 0,0 c -6.757,0 -11.703,-1.86 -14.698,-5.524 -4.18,-5.117 -4.023,-12.936 -2.478,-18.547 0.468,-1.719 0.714,-6.34 1.036,-8.039 1.462,-7.59 10.311,-11.633 16.14,-11.633 0.047,0 0.105,0.007 0.155,0.007 V -0.001 C 0.099,-0.001 0.053,0 0,0"
           style="fill:#dcc5a1;fill-opacity:1;fill-rule:nonzero;stroke:none"
           id="path3966"
           inkscape:connector-curvature="0" />
      </g>
      <g
         id="g3968"
         transform="matrix(0.35277777,0,0,-0.35277777,0.80436912,13.481537)">
        <path
           d="m 0,0 c -2.969,3.642 -7.86,5.495 -14.509,5.529 v -43.734 c 6.655,0.07 14.611,4.497 15.977,11.626 0.325,1.699 0.568,6.32 1.039,8.039 C 4.045,-12.942 4.192,-5.133 0,0"
           style="fill:#edd9b4;fill-opacity:1;fill-rule:nonzero;stroke:none"
           id="path3970"
           inkscape:connector-curvature="0" />
      </g>
      <g
         id="g3972"
         transform="matrix(0.35277777,0,0,-0.35277777,-3.1138441,24.541259)">
        <path
           d="m 0,0 c 0,0 -1.527,-1.626 -3.41,-1.626 -1.882,0 -3.323,1.593 -3.323,1.593 0,0 1.441,0.244 3.323,0.244 C -1.527,0.211 0,0 0,0"
           style="fill:#b47070;fill-opacity:1;fill-rule:nonzero;stroke:none"
           id="path3974"
           inkscape:connector-curvature="0" />
      </g>
      <g
         id="g3976"
         transform="matrix(0.35277777,0,0,-0.35277777,-3.9764914,24.276039)">
        <path
           d="M 0,0 C -0.529,0 -0.953,-0.327 -0.965,-0.739 -0.977,-0.327 -1.398,0 -1.927,0 c -0.536,0 -2.446,-0.752 -2.446,-0.752 0,0 1.863,-0.195 2.396,-0.195 0.532,0 1,-0.21 1.012,0.187 0.009,-0.4 0.392,-0.245 0.924,-0.245 0.533,0 2.486,0.253 2.486,0.253 C 2.445,-0.752 0.535,0 0,0"
           style="fill:#c17874;fill-opacity:1;fill-rule:nonzero;stroke:none"
           id="path3978"
           inkscape:connector-curvature="0" />
      </g>
      <g
         id="g3980"
         transform="matrix(0.35277777,0,0,-0.35277777,-1.2471295,21.44486)">
        <path
           d="M 0,0 C -2.384,-0.085 -5.168,1.268 -5.917,3.381 -6.722,5.644 -5.841,6.622 0.638,8.104 4.385,8.959 7.126,8.626 7.6,6.677 8.325,3.676 4.361,0.152 0,0 m -11.253,3.386 c -0.752,-2.118 -3.536,-3.471 -5.92,-3.386 -4.356,0.157 -8.325,3.676 -7.6,6.677 0.474,1.95 3.215,2.282 6.959,1.427 6.485,-1.482 7.363,-2.46 6.561,-4.718 M 9.653,9.572 C 7.403,10.167 2.232,9.259 0.097,8.787 -2.083,8.303 -6.836,6.546 -7.719,6.197 -8.085,6.054 -8.363,6.005 -8.579,5.98 c -0.222,0.018 -0.503,0.074 -0.878,0.223 -0.877,0.343 -5.633,2.103 -7.81,2.586 -2.132,0.47 -7.309,1.381 -9.553,0.786 -0.655,-0.176 -0.851,-0.714 -0.851,-0.714 0.079,-0.612 1.687,-9.645 10.65,-9.642 2.399,0 3.879,0.827 4.888,1.566 1.009,0.738 2.094,2.505 2.41,2.96 0.313,0.457 0.647,0.785 1.112,0.75 0.009,0 0.014,0.011 0.023,0.011 0.012,0 0.021,-0.012 0.029,-0.012 0.465,0.035 0.799,-0.294 1.109,-0.749 0.313,-0.455 1.404,-2.227 2.41,-2.961 1.009,-0.739 2.493,-1.565 4.891,-1.568 8.96,0 10.568,9.032 10.65,9.644 0,0 -0.199,0.539 -0.848,0.712"
           style="fill:#442c38;fill-opacity:1;fill-rule:nonzero;stroke:none"
           id="path3982"
           inkscape:connector-curvature="0" />
      </g>
      <g
         id="g3984"
         transform="matrix(0.35277777,0,0,-0.35277777,3.2200673,13.932525)">
        <path
           d="m 0,0 c -0.249,0.681 -0.506,1.313 -0.769,1.92 v 0.258 c 0,0.869 -0.401,1.587 -1.071,2.287 0.483,0.596 0.424,1.441 -0.164,1.973 0.284,0.043 0.556,0.163 0.77,0.37 0.514,0.497 0.491,1.287 -0.05,1.758 l -0.465,0.403 c 0.164,0.079 0.316,0.185 0.456,0.321 0.515,0.499 0.623,1.176 0.24,1.507 l -0.216,0.186 c 0.146,0.06 0.286,0.149 0.409,0.268 0.374,0.364 0.453,0.855 0.176,1.098 l -3.335,2.903 c -0.275,0.243 -0.807,0.144 -1.182,-0.218 -0.123,-0.12 -0.211,-0.253 -0.266,-0.39 l -0.161,0.141 c -0.383,0.333 -1.108,0.197 -1.623,-0.301 -0.138,-0.135 -0.246,-0.283 -0.325,-0.435 l -0.208,0.182 c -0.541,0.473 -1.401,0.452 -1.916,-0.048 -0.216,-0.209 -0.33,-0.474 -0.356,-0.742 -0.661,0.477 -1.621,0.429 -2.212,-0.144 -0.149,-0.148 -0.26,-0.315 -0.333,-0.49 -1.206,0.707 -2.334,1.015 -3.902,0.969 0,0 -0.009,-0.021 -0.024,-0.053 -1.401,0.282 -8.927,1.68 -13.409,0.131 -4.949,-1.709 -9.006,-4.648 -11.864,-12.536 -2.024,-5.585 -1.439,-10.447 -0.728,-13.792 0.114,-0.54 0.231,-1.043 0.342,-1.501 0.173,-0.711 0.328,-1.326 0.427,-1.817 0.03,-0.147 0.071,-0.296 0.106,-0.446 0.128,-0.548 0.292,-1.097 0.491,-1.639 2.878,-7.97 12.332,-15.28 12.332,-15.28 0,0 -4.87,5.44 -5.821,7.765 -0.017,0.042 -0.038,0.09 -0.052,0.135 -0.737,1.82 -1.787,4.875 -1.787,9.33 0,1.055 0.154,1.926 0.386,2.652 0.614,1.913 1.787,2.754 2.24,3.016 -0.111,-0.307 -0.269,-1.073 -0.471,-2.899 -0.444,-3.896 1.884,-6.909 1.884,-6.909 0,0 -2.949,5.061 1.761,8.838 1.498,1.203 2.752,2.459 3.761,3.602 0,-0.004 -0.002,-0.006 -0.002,-0.009 -1.185,-2.987 1.518,-9.945 1.518,-9.945 0,0 -0.369,8.282 2.088,9.583 1.094,0.579 2.019,1.096 2.802,1.571 0.068,0.038 0.129,0.079 0.194,0.116 0.073,0.046 0.14,0.088 0.21,0.131 3.171,1.973 3.911,3.213 4.572,5.213 0.117,0.347 0.181,0.67 0.225,0.982 l 5.47,-7.38 c 0.258,-0.32 0.673,-0.864 1.158,-1.565 1.422,-2.046 3.382,-5.4 3.382,-8.316 0,-0.848 -0.024,-1.594 -0.064,-2.25 -0.187,-2.869 -0.691,-3.968 -0.691,-3.968 0,0 0.612,0.011 1.638,0.758 0.878,0.639 2.054,1.808 3.423,3.971 0.31,0.49 0.632,1.032 0.959,1.629 0.012,0.019 0.024,0.046 0.035,0.067 0.433,0.804 0.872,2.02 1.188,3.554 0.085,0.413 0.158,0.855 0.222,1.315 C 1.843,-8.95 1.697,-4.687 0,0"
           style="fill:#0f1005;fill-opacity:1;fill-rule:nonzero;stroke:none"
           id="path3986"
           inkscape:connector-curvature="0" />
      </g>
    </g>
    <g
       id="g5196"
       transform="translate(-16.224242,-60.550136)"
       inkscape:export-xdpi="23"
       inkscape:export-ydpi="23">
      <g
         id="g7192"
         transform="matrix(0.44963982,0,0,-0.44963982,29.006929,33.441085)">
        <path
           d="m 0,0 v -33.119 l -15.54314,2.154089 c -0.293,0.126 -3.351021,1.598459 -3.351021,1.598459 0,17.765 11.447161,15.526452 11.447161,15.526452 h 0.023 c 1.091,0.026 1.787,1.428 2.255,3.562 0.079,0.326 0.141,0.669 0.19,1.033 0.103,0.608 0.188,1.252 0.252,1.919 0.041,0.405 0.079,0.807 0.117,1.227 0.164,2.03 0.217,4.242 0.217,6.338 C -4.393,0.239 -1.963,0 0,0"
           style="fill:#dcc5a1;fill-opacity:1;fill-rule:nonzero;stroke:none"
           id="path7194"
           inkscape:connector-curvature="0"
           sodipodi:nodetypes="cccccccccccc" />
      </g>
      <g
         id="g7196"
         transform="matrix(0.44963982,0,0,-0.44963982,37.358734,48.20781)">
        <path
           d="M -4.1047122,0.93039114 -18.574,-0.278 v 33.119 h 0.041 c 1.962,0 4.411,0.239 4.411,0.239 0,-2.086 0.046,-4.267 0.21,-6.288 0.041,-0.404 0.079,-0.807 0.117,-1.199 0.076,-0.696 0.149,-1.351 0.252,-1.971 V 23.61 c 0.038,-0.278 0.091,-0.532 0.14,-0.782 0.468,-2.285 1.203,-3.827 2.346,-3.827 0,0 1.621,-0.186 3.633,-1.439 3.218,-1.993 7.54301412,-4.147919 7.56601412,-15.0329186"
           style="fill:#edd9b4;fill-opacity:1;fill-rule:nonzero;stroke:none"
           id="path7198"
           inkscape:connector-curvature="0"
           sodipodi:nodetypes="cccsccccccccc" />
      </g>
      <g
         transform="matrix(0.44963982,0,0,-0.44963982,-311.63754,48.652175)"
         id="g7200">
        <g
           id="g7202" />
        <g
           id="g7214">
          <g
             clip-path="url(#clipPath7206-3)"
             id="g7212"
             style="opacity:0.69999701">
            <g
               transform="translate(762.6282,24.6103)"
               id="g7210">
              <path
                 d="M 0,0 V -0.015 C -0.442,-0.72 -1.974,-2.728 -5.005,-2.728 h -0.023 c -2.879,0.014 -4.549,2.095 -4.979,2.7 0.1,0.607 0.188,1.252 0.252,1.921 0.038,0.403 0.076,0.808 0.114,1.224 1.407,-0.354 2.928,-0.568 4.56,-0.591 h 0.053 c 1.67,0.023 3.217,0.249 4.662,0.644 C -0.331,2.763 -0.29,2.361 -0.255,1.968 -0.176,1.275 -0.102,0.615 0,0"
                 style="fill:#bc9f82;fill-opacity:1;fill-rule:nonzero;stroke:none"
                 id="path7208"
                 inkscape:connector-curvature="0" />
            </g>
          </g>
        </g>
      </g>
      <g
         id="g7216"
         transform="matrix(0.44963982,0,0,-0.44963982,32.788188,39.378895)">
        <path
           d="M 0,0 C 0.018,-0.057 -0.6,0.201 -0.725,0.43 -1.097,1.038 -1.541,1.633 -2.08,2.265 -2.126,2.311 -2.176,2.353 -2.208,2.4 L -2.407,1.264 -8.316,-1.755 -14.14,1.057 -14.429,2.4 c -0.024,-0.022 -0.047,-0.057 -0.082,-0.077 -0.784,-0.898 -2.13,-2.38 -2.118,-2.323 -2.188,-0.505 -10.67469,0.16125093 -10.67469,-16.160749 0,0 4.206483,-1.75324 4.504483,-1.88124 10.891672,-0.828576 16.5680274,-4.847037 28.8177974,0 0.295,0.128 4.2883286,0.935543 4.2883286,0.935543 C 10.306919,-0.78444649 2.191,-0.505 0,0"
           style="fill:#cc6b51;fill-opacity:1;fill-rule:nonzero;stroke:none"
           id="path7218"
           inkscape:connector-curvature="0"
           sodipodi:nodetypes="ccccccccccccccc" />
      </g>
      <g
         id="g7220"
         transform="matrix(0.44963982,0,0,-0.44963982,34.841379,43.518998)">
        <path
           d="m 0,0 c 0,-0.729 -0.594,-1.318 -1.325,-1.318 h -4.274 c -0.731,0 -1.322,0.589 -1.322,1.318 0,0.729 0.591,1.319 1.322,1.319 h 4.274 C -0.594,1.319 0,0.729 0,0"
           style="fill:#f7f7f8;fill-opacity:1;fill-rule:nonzero;stroke:none"
           id="path7222"
           inkscape:connector-curvature="0" />
      </g>
      <g
         id="g7224"
         transform="matrix(0.44963982,0,0,-0.44963982,29.033336,16.363991)">
        <path
           d="m 0,0 c -19.139,0 -19.247,-15.966 -18.396,-26.413 -1.313,2.477 -5.195,1.71 -4.879,-2.19 0.307,-3.758 5.794,-5.7 5.718,-5.265 1.568,-8.597 10.572,-13.566 17.557,-13.566 0.047,0 0.096,0.008 0.146,0.008 V -0.003 C 0.093,-0.003 0.047,0 0,0"
           style="fill:#ccad8b;fill-opacity:1;fill-rule:nonzero;stroke:none"
           id="path7226"
           inkscape:connector-curvature="0" />
      </g>
      <g
         id="g7228"
         transform="matrix(0.44963982,0,0,-0.44963982,19.117746,28.483504)">
        <path
           d="M 0,0 C 0.95,1.51 2.407,0.857 2.764,0.526 3.144,0.163 3.448,-0.316 3.212,-1.206 3.08,-1.705 2.547,-1.747 2.682,-2.509 2.822,-3.362 3.22,-3.419 3.445,-3.613 3.665,-3.808 3.949,-3.957 4.092,-4.315 4.227,-4.677 4.25,-5.064 4.174,-5.39 4.028,-6.01 3.127,-5.52 2.524,-5.243 2.126,-5.064 0.863,-4.003 0.547,-3.642 -0.261,-2.739 -0.629,-1.003 0,0"
           style="fill:#bc9f82;fill-opacity:1;fill-rule:nonzero;stroke:none"
           id="path7230"
           inkscape:connector-curvature="0" />
      </g>
      <g
         id="g7232"
         transform="matrix(0.44963982,0,0,-0.44963982,29.075322,16.363991)">
        <path
           d="m 0,0 c 19.136,0 19.247,-15.966 18.396,-26.413 1.313,2.477 5.195,1.71 4.876,-2.19 -0.307,-3.758 -5.792,-5.7 -5.716,-5.265 C 15.989,-42.465 6.982,-47.434 0,-47.434 c -0.047,0 -0.099,0.008 -0.146,0.008 V -0.003 C -0.096,-0.003 -0.047,0 0,0"
           style="fill:#d9bf9f;fill-opacity:1;fill-rule:nonzero;stroke:none"
           id="path7234"
           inkscape:connector-curvature="0" />
      </g>
      <g
         id="g7236"
         transform="matrix(0.44963982,0,0,-0.44963982,38.989541,28.483504)">
        <path
           d="m 0,0 c -0.945,1.51 -2.404,0.857 -2.761,0.526 -0.383,-0.363 -0.682,-0.842 -0.448,-1.732 0.132,-0.499 0.662,-0.541 0.533,-1.303 -0.141,-0.853 -0.542,-0.91 -0.767,-1.104 -0.225,-0.195 -0.506,-0.344 -0.646,-0.702 -0.135,-0.362 -0.161,-0.749 -0.085,-1.075 0.146,-0.62 1.047,-0.13 1.653,0.147 0.398,0.179 1.655,1.24 1.98,1.601 C 0.261,-2.739 0.632,-1.003 0,0"
           style="fill:#bc9f82;fill-opacity:1;fill-rule:nonzero;stroke:none"
           id="path7238"
           inkscape:connector-curvature="0" />
      </g>
      <g
         id="g7240"
         transform="matrix(0.44963982,0,0,-0.44963982,28.956951,18.387909)">
        <path
           d="m 0,0 c -6.295,0 -10.905,-1.82 -13.695,-5.419 -3.891,-5.025 -3.744,-12.697 -2.305,-18.207 0.436,-1.683 0.661,-6.221 0.965,-7.889 1.357,-7.449 9.606,-11.418 15.035,-11.418 0.053,0 0.102,0.009 0.149,0.009 v 42.92 C 0.099,-0.004 0.053,0 0,0"
           style="fill:#dcc5a1;fill-opacity:1;fill-rule:nonzero;stroke:none"
           id="path7242"
           inkscape:connector-curvature="0" />
      </g>
      <g
         id="g7244"
         transform="matrix(0.44963982,0,0,-0.44963982,35.103067,20.82779)">
        <path
           d="M 2.3795891e-5,3.0098909e-4 C -2.7669762,3.575301 -7.3209762,5.391301 -13.519976,5.422301 v -42.92 c 6.2009998,0.065 13.6159998,4.414 14.8919998,11.409 0.298,1.668 0.526,6.206 0.965,7.889 1.433,5.493 1.574,13.158 -2.337000004109,18.19999998909"
           style="fill:#edd9b4;fill-opacity:1;fill-rule:nonzero;stroke:none"
           id="path7246"
           inkscape:connector-curvature="0" />
      </g>
      <g
         id="g7248"
         transform="matrix(0.44963982,0,0,-0.44963982,33.002631,35.90256)">
        <path
           d="M 0,0 C -0.222,1.146 -2.126,2.038 -3.086,3.095 -4.358,4.488 -6.377,6.347 -8.822,5.802 -11.27,6.347 -13.289,4.488 -14.561,3.095 -15.52,2.038 -17.422,1.146 -17.644,0 c -0.281,-1.435 0.831,-3.413 1.182,-4.753 0.298,-1.165 0.652,-1.316 2,-1.012 1.141,0.257 1.556,2.356 1.931,3.668 0.48,1.665 1.626,3.861 2.796,4.681 0.287,0.204 0.603,0.345 0.913,0.476 0.31,-0.131 0.626,-0.272 0.91,-0.476 1.173,-0.82 2.316,-3.016 2.796,-4.681 0.371,-1.312 0.793,-3.411 1.934,-3.668 1.345,-0.304 1.696,-0.153 2.003,1.012 C -0.834,-3.413 0.278,-1.435 0,0"
           style="fill:#f7f7f8;fill-opacity:1;fill-rule:nonzero;stroke:none"
           id="path7250"
           inkscape:connector-curvature="0" />
      </g>
      <g
         id="g7252"
         transform="matrix(0.44963982,0,0,-0.44963982,21.644226,30.314559)">
        <path
           d="m 0,0 c -0.365,0 0.023,2.321 -1.196,3.922 -1.22,1.6 -3.08,6.987 -3.08,12.363 0,5.379 1.591,10.164 5.742,15.249 4.153,5.087 10.258,7.555 10.258,7.555 L 8.916,36.041 c 0,0 1.512,2.475 6.95,4.459 4.288,1.56 7.067,-0.184 7.067,-0.184 0,0 -2.829,0.118 -3.689,-1.346 -0.213,-0.374 -1.009,-0.935 -1.009,-0.935 0,0 1.316,3.509 7.424,0.597 6.102,-2.905 5.99,-8.115 10.238,-9.711 4.347,-1.641 5.61,0.462 5.61,0.462 0,0 -1.889,-3.686 -5.236,-3.693 -0.646,0 -0.602,0.016 -0.602,0.016 0,0 1.258,-3.95 1.497,-6.897 C 37.412,15.8 36.646,13.745 36.409,8.117 36.207,3.312 35.101,5.774 33.791,2.226 33.346,1.038 33.329,-0.295 33.329,-0.295 32.84,-0.438 31.565,2.59 32.48,7.849 33.077,11.261 30.128,24.199 23.009,21.677 18.656,20.133 17.557,16.988 14.304,19.781 11.496,22.189 7.57,23.57 4.639,21.669 1.708,19.765 0.059,15.483 0.571,8.656 1.223,-0.061 0,0 0,0"
           style="fill:#f7f7f8;fill-opacity:1;fill-rule:nonzero;stroke:none"
           id="path7254"
           inkscape:connector-curvature="0" />
      </g>
    </g>
    <path
       style="color:#000000;font-style:normal;font-variant:normal;font-weight:normal;font-stretch:normal;font-size:medium;line-height:normal;font-family:sans-serif;font-variant-ligatures:normal;font-variant-position:normal;font-variant-caps:normal;font-variant-numeric:normal;font-variant-alternates:normal;font-feature-settings:normal;text-indent:0;text-align:start;text-decoration:none;text-decoration-line:none;text-decoration-style:solid;text-decoration-color:#000000;letter-spacing:normal;word-spacing:normal;text-transform:none;writing-mode:lr-tb;direction:ltr;text-orientation:mixed;dominant-baseline:auto;baseline-shift:baseline;text-anchor:start;white-space:normal;shape-padding:0;clip-rule:nonzero;display:inline;overflow:visible;visibility:visible;opacity:1;isolation:auto;mix-blend-mode:normal;color-interpolation:sRGB;color-interpolation-filters:linearRGB;solid-color:#000000;solid-opacity:1;vector-effect:none;fill:#f09076;fill-opacity:1;fill-rule:nonzero;stroke:none;stroke-width:2.91359425;stroke-linecap:butt;stroke-linejoin:miter;stroke-miterlimit:4;stroke-dasharray:none;stroke-dashoffset:0;stroke-opacity:1;color-rendering:auto;image-rendering:auto;shape-rendering:auto;text-rendering:auto;enable-background:accumulate"
       d="m 21.21875,137.15625 c 14.957102,16.60389 36.618119,27.05078 60.712891,27.05078 24.094769,0 45.755789,-10.44689 60.712889,-27.05078 h -3.97851 c -14.32884,14.87178 -34.43832,24.13477 -56.734379,24.13477 -22.296353,0 -42.407519,-9.26265 -56.738282,-24.13477 z"
       id="path8250-7"
       transform="matrix(0.26458333,0,0,0.26458333,7.7480066,5.5301574)"
       inkscape:connector-curvature="0"
       inkscape:export-xdpi="23"
       inkscape:export-ydpi="23" />
    <rect
       y="4.7160878"
       x="-24.386757"
       height="16.732172"
       width="1.1539429"
       id="rect8292-2"
       style="color:#000000;clip-rule:nonzero;display:inline;overflow:visible;visibility:visible;opacity:1;isolation:auto;mix-blend-mode:normal;color-interpolation:sRGB;color-interpolation-filters:linearRGB;solid-color:#000000;solid-opacity:1;fill:#f09076;fill-opacity:1;fill-rule:nonzero;stroke:none;stroke-width:0.50676066;stroke-miterlimit:4;stroke-dasharray:none;stroke-opacity:1;color-rendering:auto;image-rendering:auto;shape-rendering:auto;text-rendering:auto;enable-background:accumulate" />
    <circle
       r="21.232098"
       cy="-16.468918"
       cx="-24.028145"
       id="path8250-70"
       style="color:#000000;clip-rule:nonzero;display:inline;overflow:visible;visibility:visible;opacity:1;isolation:auto;mix-blend-mode:normal;color-interpolation:sRGB;color-interpolation-filters:linearRGB;solid-color:#000000;solid-opacity:1;fill:#92d7f0;fill-opacity:0.46113987;fill-rule:nonzero;stroke:#f09076;stroke-width:0.77088845;stroke-miterlimit:4;stroke-dasharray:none;stroke-opacity:1;color-rendering:auto;image-rendering:auto;shape-rendering:auto;text-rendering:auto;enable-background:accumulate" />
  </g>
</svg>
