<?xml version="1.0" encoding="UTF-8"?>
<svg xmlns="http://www.w3.org/2000/svg" xmlns:xlink="http://www.w3.org/1999/xlink" viewBox="0 0 24 24" version="1.1" width="100px" height="100px">
<g id="surface1">
<path style=" " d="M 12 2 C 6.5 2 2 6.5 2 12 C 2 17.5 6.5 22 12 22 C 17.199219 22 21.40625 18.101563 21.90625 13 L 19.90625 13 C 19.40625 16.898438 16 20 12 20 C 7.601563 20 4 16.398438 4 12 C 4 7.601563 7.601563 4 12 4 C 13.398438 4 14.707031 4.398438 15.90625 5 L 17.40625 3.5 C 15.804688 2.601563 14 2 12 2 Z M 20.5 4.875 L 11.1875 13.78125 L 7.5 10.09375 L 6.09375 11.5 L 11.1875 16.59375 L 11.90625 15.90625 L 21.90625 6.3125 Z "/>
</g>
</svg>
