<?xml version="1.0" encoding="UTF-8"?>
<svg width="82px" height="21px" viewBox="0 0 82 21" version="1.1" xmlns="http://www.w3.org/2000/svg" xmlns:xlink="http://www.w3.org/1999/xlink">
    <!-- Generator: Sketch 48.2 (47327) - http://www.bohemiancoding.com/sketch -->
    <title>cloud_04</title>
    <desc>Created with Sketch.</desc>
    <defs>
        <polygon id="path-1" points="0 0 82 0 82 21 0 21"></polygon>
    </defs>
    <g id="illustration/colors" stroke="none" stroke-width="1" fill="none" fill-rule="evenodd" transform="translate(-255.000000, -41.000000)">
        <g id="illustration">
            <g id="cloud_04" transform="translate(255.000000, 41.000000)">
                <mask id="mask-2" fill="white">
                    <use xlink:href="#path-1"></use>
                </mask>
                <g id="Clip-2"></g>
                <path d="M13.7796334,5.65446308 C21.6495987,5.22901408 29.5185727,11.0484773 36.9533006,8.41488807 C41.3046836,6.87288511 44.3146628,2.73324634 48.5788,0.960542169 C53.3089089,-1.00591108 58.8093584,0.286415229 63.3441558,2.67731878 C67.8779617,5.06822232 71.8040215,8.47880529 76.2138988,11.0944178 C78.5050918,12.4536575 81.1502251,13.8658286 81.8888398,16.4384967 C82.0018628,16.8309884 82.0613485,17.2624296 81.9056941,17.6399407 C81.6885711,18.1702539 81.1175079,18.4498918 80.5811447,18.639646 C78.9214921,19.2288829 77.1507995,19.4116462 75.3979526,19.5734367 C52.9827287,21.6377632 30.4197819,21.0275534 7.9192951,20.4153463 C3.11879468,20.2845157 -2.80995222,18.1253121 1.47996213,12.9320379 C4.67335574,9.06404734 8.59644127,5.93410093 13.7796334,5.65446308" id="Fill-1" fill="#94C6FF" mask="url(#mask-2)"></path>
            </g>
        </g>
    </g>
</svg>