<?xml version="1.0" encoding="UTF-8"?>
<svg width="57px" height="21px" viewBox="0 0 57 21" version="1.1" xmlns="http://www.w3.org/2000/svg" xmlns:xlink="http://www.w3.org/1999/xlink">
    <!-- Generator: Sketch 48.2 (47327) - http://www.bohemiancoding.com/sketch -->
    <title>cloud_09</title>
    <desc>Created with Sketch.</desc>
    <defs></defs>
    <g id="illustration/colors" stroke="none" stroke-width="1" fill="none" fill-rule="evenodd" transform="translate(-155.000000, -75.000000)">
        <g id="illustration" fill="#CFEAFF">
            <path d="M168.251405,95.5286266 C180.707405,96.0906266 193.202405,95.7576266 205.610405,94.5296266 C207.247405,94.3686266 208.971405,94.1566266 210.283405,93.1656266 C211.595405,92.1746266 212.253405,90.1246266 211.215405,88.8486266 C210.539405,88.0186266 209.401405,87.7636266 208.354405,87.5416266 C205.951405,87.0336266 203.459405,86.3776266 201.649405,84.7176266 C199.816405,83.0376266 198.951405,80.5776266 197.602405,78.4876266 C196.253405,76.3986266 193.905405,74.5116266 191.492405,75.1136266 C189.375405,75.6416266 188.176405,77.8066266 187.118405,79.7156266 C185.369405,82.8716266 183.040405,86.0996266 179.555405,87.0356266 C176.790405,87.7786266 173.886405,86.9156266 171.088405,86.3076266 C168.290405,85.7006266 165.117405,85.4196266 162.795405,87.0946266 C162.068405,87.6186266 161.446405,88.3226266 160.605405,88.6326266 C159.737405,88.9506266 158.780405,88.7986266 157.858405,88.7316266 C153.048405,88.3846266 155.208405,91.9726266 157.802405,93.3586266 C160.984405,95.0586266 164.709405,95.3686266 168.251405,95.5286266" id="cloud_09"></path>
        </g>
    </g>
</svg>