<?xml version="1.0" encoding="UTF-8"?>
<svg width="83px" height="75px" viewBox="0 0 83 75" version="1.1" xmlns="http://www.w3.org/2000/svg" xmlns:xlink="http://www.w3.org/1999/xlink">
    <!-- Generator: Sketch 48.2 (47327) - http://www.bohemiancoding.com/sketch -->
    <title>coin_02</title>
    <desc>Created with Sketch.</desc>
    <defs>
        <path d="M0.637,38.386 C2.625,56.467 19.704,69.802 38.963,69.802 C58.222,69.802 75.301,56.467 77.29,38.386 C79.508,18.213 62.459,0.06 38.963,0.06 C15.468,0.06 -1.583,18.213 0.637,38.386" id="path-1"></path>
        <path d="M0.637,38.386 C2.625,56.467 19.704,69.802 38.963,69.802 C58.222,69.802 75.301,56.467 77.29,38.386 C79.508,18.213 62.459,0.06 38.963,0.06 C15.468,0.06 -1.583,18.213 0.637,38.386" id="path-3"></path>
        <path d="M0.637,38.386 C2.625,56.467 19.704,69.802 38.963,69.802 C58.222,69.802 75.301,56.467 77.29,38.386 C79.508,18.213 62.459,0.06 38.963,0.06 C15.468,0.06 -1.583,18.213 0.637,38.386" id="path-5"></path>
        <path d="M0.637,38.386 C2.625,56.467 19.704,69.802 38.963,69.802 C58.222,69.802 75.301,56.467 77.29,38.386 C79.508,18.213 62.459,0.06 38.963,0.06 C15.468,0.06 -1.583,18.213 0.637,38.386" id="path-7"></path>
        <path d="M0.637,38.386 C2.625,56.467 19.704,69.802 38.963,69.802 C58.222,69.802 75.301,56.467 77.29,38.386 C79.508,18.213 62.459,0.06 38.963,0.06 C15.468,0.06 -1.583,18.213 0.637,38.386" id="path-9"></path>
        <path d="M0.637,38.386 C2.625,56.467 19.704,69.802 38.963,69.802 C58.222,69.802 75.301,56.467 77.29,38.386 C79.508,18.213 62.459,0.06 38.963,0.06 C15.468,0.06 -1.583,18.213 0.637,38.386" id="path-11"></path>
        <path d="M0.637,38.386 C2.625,56.467 19.704,69.802 38.963,69.802 C58.222,69.802 75.301,56.467 77.29,38.386 C79.508,18.213 62.459,0.06 38.963,0.06 C15.468,0.06 -1.583,18.213 0.637,38.386" id="path-13"></path>
    </defs>
    <g id="illustration/colors" stroke="none" stroke-width="1" fill="none" fill-rule="evenodd" transform="translate(-61.000000, 0.000000)">
        <g id="illustration">
            <g id="coin_02" transform="translate(61.000000, 0.000000)">
                <path d="M77.2899,38.8561 C75.3009,56.9371 58.2219,70.2721 38.9629,70.2721 C19.7049,70.2721 2.6249,56.9371 0.6369,38.8561 C-1.5821,18.6831 15.4679,0.5301 38.9629,0.5301 C62.4589,0.5301 79.5089,18.6831 77.2899,38.8561" id="Fill-1" fill="#363C75"></path>
                <g id="Group-24" transform="translate(0.000000, 0.470000)">
                    <g id="Group-5">
                        <mask id="mask-2" fill="white">
                            <use xlink:href="#path-1"></use>
                        </mask>
                        <g id="Clip-4"></g>
                        <path d="M36.2225,-7.0592 C42.4515,-0.8022 48.3135,5.8188 53.7705,12.7588" id="Stroke-3" stroke="#FFC605" stroke-width="4" mask="url(#mask-2)"></path>
                    </g>
                    <g id="Group-8">
                        <mask id="mask-4" fill="white">
                            <use xlink:href="#path-3"></use>
                        </mask>
                        <g id="Clip-7"></g>
                        <path d="M26.1195,-2.9728 C32.2975,2.6372 37.5545,9.2582 41.6185,16.5462" id="Stroke-6" stroke="#FFC605" stroke-width="4" mask="url(#mask-4)"></path>
                    </g>
                    <g id="Group-11">
                        <mask id="mask-6" fill="white">
                            <use xlink:href="#path-5"></use>
                        </mask>
                        <g id="Clip-10"></g>
                        <path d="M14.12,5.4994 C18.779,8.1694 23.028,11.5524 26.675,15.4934" id="Stroke-9" stroke="#FFC605" stroke-width="4" mask="url(#mask-6)"></path>
                    </g>
                    <g id="Group-14">
                        <mask id="mask-8" fill="white">
                            <use xlink:href="#path-7"></use>
                        </mask>
                        <g id="Clip-13"></g>
                        <path d="M5.9427,10.9066 C-3.2593,8.2646 23.7207,22.5746 21.0017,19.8296" id="Stroke-12" stroke="#FFC605" stroke-width="4" mask="url(#mask-8)"></path>
                    </g>
                    <g id="Group-17">
                        <mask id="mask-10" fill="white">
                            <use xlink:href="#path-9"></use>
                        </mask>
                        <g id="Clip-16"></g>
                        <path d="M0.617,24.8192 C7.463,26.4582 14.895,28.4742 19.027,34.1742" id="Stroke-15" stroke="#FFC605" stroke-width="4" mask="url(#mask-10)"></path>
                    </g>
                    <g id="Group-20">
                        <mask id="mask-12" fill="white">
                            <use xlink:href="#path-11"></use>
                        </mask>
                        <g id="Clip-19"></g>
                        <path d="M-3.4655,39.6869 C3.8025,37.6719 11.4585,40.0719 18.9685,40.7749" id="Stroke-18" stroke="#FFC605" stroke-width="4" mask="url(#mask-12)"></path>
                    </g>
                    <g id="Group-23">
                        <mask id="mask-14" fill="white">
                            <use xlink:href="#path-13"></use>
                        </mask>
                        <g id="Clip-22"></g>
                        <path d="M1.2928,52.9261 C7.7828,51.6311 14.5628,51.8111 20.9748,53.4491" id="Stroke-21" stroke="#FFC605" stroke-width="4" mask="url(#mask-14)"></path>
                    </g>
                </g>
                <g id="Group-31" transform="translate(6.000000, 5.470000)">
                    <path d="M76.2328,38.2357 C74.2858,55.9407 57.5608,68.9997 38.7008,68.9997 C19.8418,68.9997 3.1168,55.9407 1.1698,38.2357 C-1.0032,18.4807 15.6928,0.7037 38.7008,0.7037 C61.7098,0.7037 78.4058,18.4807 76.2328,38.2357" id="Fill-25" fill="#D9E4F0"></path>
                    <path d="M67.0614,37.409 C65.5894,50.787 52.9524,60.655 38.7014,60.655 C24.4504,60.655 11.8124,50.787 10.3414,37.409 C8.6994,22.481 21.3154,9.049 38.7014,9.049 C56.0864,9.049 68.7034,22.481 67.0614,37.409" id="Fill-27" fill="#FFFFFF"></path>
                    <path d="M51.7381,35.1551 C44.0091,35.1971 37.7601,41.4701 37.7601,49.2121 L37.7551,49.2121 C37.7551,41.4461 31.4641,35.1551 23.6981,35.1551 C31.4641,35.1551 37.7551,28.8651 37.7551,21.1051 L37.7601,21.1051 C37.7601,28.8411 44.0091,35.1131 51.7381,35.1551 Z" id="Stroke-29" stroke="#FFC605" stroke-width="4"></path>
                </g>
            </g>
        </g>
    </g>
</svg>