<?xml version="1.0" encoding="UTF-8"?>
<svg width="211px" height="301px" viewBox="0 0 211 301" version="1.1" xmlns="http://www.w3.org/2000/svg" xmlns:xlink="http://www.w3.org/1999/xlink">
    <!-- Generator: Sketch 48.2 (47327) - http://www.bohemiancoding.com/sketch -->
    <title>logo_05</title>
    <desc>Created with Sketch.</desc>
    <defs></defs>
    <g id="illustration/colors" stroke="none" stroke-width="1" fill="none" fill-rule="evenodd" transform="translate(-144.000000, -29.000000)">
        <g id="illustration" fill="#196DFF">
            <path d="M257.190593,310.203389 C203.499585,314.98821 158.711684,270.193466 163.50198,216.505195 C167.172716,175.352445 200.316091,142.215913 241.47021,138.550652 C295.153006,133.771305 339.936801,178.5551 335.151979,232.240634 C331.48535,273.394753 298.344712,306.53539 257.190593,310.203389 M209.201406,104.11116 C221.131981,86.4116998 233.161099,71.4098608 242.058732,60.983439 C245.874545,56.5120397 252.776677,56.5120397 256.59249,60.983439 C265.491492,71.4098608 277.52061,86.4116998 289.452554,104.11116 C293.557153,110.201679 297.816411,116.865666 302.011341,123.966253 C304.242251,127.743744 300.174605,132.083752 296.252037,130.119731 C282.116557,123.043779 266.182663,119.050041 249.326295,119.050041 C232.469927,119.050041 216.537402,123.043779 202.400554,130.119731 C198.477986,132.083752 194.41034,127.743744 196.642618,123.966253 C200.837549,116.865666 205.095438,110.201679 209.201406,104.11116 M256.169576,31.8762307 C252.413983,28.0412564 246.238607,28.0412564 242.484384,31.8762307 C241.482527,32.8999854 217.661069,57.3592378 193.516607,93.1181145 C162.231867,139.449859 145.665654,181.689322 144.149184,218.807275 C144.052009,220.652223 144,222.508121 144,224.377705 C144,287.955884 200.62267,338.557836 266.089595,328.402408 C307.458593,321.98478 341.981573,292.246621 351.596382,251.503099 C374.581591,154.09311 260.594441,36.3982703 256.169576,31.8762307 M253.377244,273.81972 C222.846633,276.255928 197.45122,250.860515 199.883322,220.331273 C201.798071,196.309991 221.258992,176.84907 245.281643,174.93432 C275.80541,172.502219 301.196717,197.888051 298.77009,228.413187 C296.860815,252.437207 277.401263,271.902233 253.377244,273.81972 M256.787934,156.019494 C213.032,151.383856 176.331488,188.087105 180.968495,231.843039 C184.346338,263.725882 209.97716,289.356704 241.861371,292.735916 C285.620043,297.372922 322.324661,260.665567 317.683548,216.908264 C314.304336,185.025422 288.670777,159.395968 256.787934,156.019494 M251.877607,237.163416 C242.713086,238.91119 234.789936,230.98804 236.541816,221.82215 C237.520405,216.699271 241.651009,212.568667 246.773889,211.590078 C255.939778,209.840935 263.862928,217.768191 262.112417,226.932712 C261.132459,232.055591 257.000487,236.186195 251.877607,237.163416 M253.518626,192.463109 C232.500175,189.791493 214.743231,207.549805 217.413479,228.569625 C219.232423,242.898085 230.803041,254.468703 245.130133,256.290384 C266.154058,258.96337 283.912371,241.20232 281.238017,220.179763 C279.416336,205.852671 267.847086,194.283422 253.518626,192.463109" id="logo_05"></path>
        </g>
    </g>
</svg>