<?xml version="1.0" encoding="UTF-8"?>
<svg width="199px" height="244px" viewBox="0 0 199 244" version="1.1" xmlns="http://www.w3.org/2000/svg" xmlns:xlink="http://www.w3.org/1999/xlink">
    <!-- Generator: Sketch 48.2 (47327) - http://www.bohemiancoding.com/sketch -->
    <title>stain_01</title>
    <desc>Created with Sketch.</desc>
    <defs></defs>
    <g id="illustration/colors" stroke="none" stroke-width="1" fill="none" fill-rule="evenodd" transform="translate(-103.000000, -91.000000)">
        <g id="illustration" fill="#F0F3F8">
            <path d="M300.849613,208.358574 C300.183934,204.849546 299.150789,201.073938 296.273589,198.96407 C294.094629,197.366657 291.266012,197.039514 288.753696,196.048766 C280.458555,192.776814 276.815412,182.60638 277.634072,173.715532 C278.452733,164.824684 282.603921,156.648168 285.56433,148.225777 C288.524739,139.803904 290.24372,130.185783 286.318904,122.168698 C283.860855,117.147667 279.492081,113.391729 275.724381,109.264649 C271.527712,104.667041 267.940387,99.4374045 263.031007,95.613139 C258.122144,91.7888735 251.322713,89.5604676 245.624133,92.0549364 C243.400725,93.0280846 241.519459,94.636885 239.3958,95.8124273 C231.398871,100.236628 221.584247,97.9383421 212.452873,97.655715 C200.851046,97.2959608 189.453368,100.404859 178.261906,103.487875 C164.45476,107.291435 150.647615,111.094996 136.84047,114.898556 C134.309547,115.595806 131.747098,116.30548 129.470974,117.615607 C127.077012,118.993543 125.095998,120.980215 123.21835,123.007779 C116.895954,129.834828 111.285751,137.607074 108.654564,146.537779 C107.317005,151.078447 106.7795,155.810122 106.248198,160.514362 C105.216086,169.643838 104.183974,178.773832 103.151862,187.903308 C103.003015,189.217576 102.858819,190.578948 103.264014,191.83783 C104.905987,196.938058 112.815055,195.770798 116.852023,199.288108 C121.215112,203.08908 119.212908,210.10817 117.231894,215.550036 C108.117576,240.592556 107.401248,269.605832 119.903912,293.135832 C132.406575,316.666349 159.620321,332.922583 185.826764,328.279424 C194.156015,326.803655 203.540119,323.599513 210.434647,328.5077 C212.736097,330.146005 214.465931,332.563347 216.970494,333.870885 C220.884974,335.916049 225.628967,334.782435 229.885589,333.606375 C237.217873,331.579328 244.549641,329.552799 251.881925,327.526269 C258.229645,325.771497 264.818726,323.889387 269.743094,319.511255 C279.823369,310.550527 279.415073,294.942885 278.206205,281.498428 C277.807211,277.062322 277.174093,272.237991 275.125891,268.213402 C272.930909,263.901009 267.534157,262.005958 269.982903,257.341059 C273.748536,250.167714 287.691607,248.025235 293.613976,242.641861 C302.648702,234.430147 303.126254,220.362978 300.849613,208.358574 Z" id="stain_01"></path>
        </g>
    </g>
</svg>