<?xml version="1.0" encoding="UTF-8"?>
<svg width="70px" height="146px" viewBox="0 0 70 146" version="1.1" xmlns="http://www.w3.org/2000/svg" xmlns:xlink="http://www.w3.org/1999/xlink">
    <!-- Generator: Sketch 48.2 (47327) - http://www.bohemiancoding.com/sketch -->
    <title>trees_06</title>
    <desc>Created with Sketch.</desc>
    <defs>
        <polygon id="path-1" points="0 0.297725 52.1570262 0.297725 52.1570262 109.156899 0 109.156899"></polygon>
    </defs>
    <g id="illustration/colors" stroke="none" stroke-width="1" fill="none" fill-rule="evenodd" transform="translate(-390.000000, -189.000000)">
        <g id="illustration">
            <g id="trees_06" transform="translate(425.000000, 262.000000) scale(-1, 1) translate(-425.000000, -262.000000) translate(390.000000, 189.000000)">
                <polygon id="Fill-1" fill="#DADFEF" points="17 140 24 140 24 97 17 97"></polygon>
                <polygon id="Fill-2" fill="#DADFEF" points="43 146 50 146 50 111 43 111"></polygon>
                <g id="Group-8">
                    <g id="Group-5">
                        <mask id="mask-2" fill="white">
                            <use xlink:href="#path-1"></use>
                        </mask>
                        <g id="Clip-4"></g>
                        <path d="M2.70389149,75.4004587 C4.38674255,72.2151337 6.86116809,69.4775088 8.34310426,66.1938713 C13.0321255,55.8029963 6.66931702,43.9540713 6.38682766,32.5558713 C6.30676383,29.3644963 6.78714681,25.9931338 8.73587021,23.4672588 C10.0607,21.7520838 11.9429553,20.5768713 13.572934,19.1505838 C16.9023809,16.2375088 19.2061043,12.1703963 19.9931468,7.81288375 C20.2786574,6.23232125 20.3874234,4.56554625 21.1805085,3.16799625 C22.7107851,0.47423375 26.4692532,-0.31982875 29.3666574,0.76917125 C32.2655723,1.85817125 34.3910404,4.39009625 35.9394447,7.07327125 C38.7703809,11.9813338 40.0982319,17.7454713 39.6979128,23.3991963 C39.1555936,31.0690838 35.5648064,38.8796338 38.0286574,46.1608088 C39.7099979,51.1308838 43.9080617,54.7639088 46.7420191,59.1758713 C49.8463809,64.0083088 51.278466,69.7467338 51.8661043,75.4609588 C52.5322957,81.9299213 52.147083,88.6227338 49.7361043,94.6621463 C37.8126362,124.524946 -12.0474915,103.321209 2.70389149,75.4004587" id="Fill-3" fill="#088C3F" mask="url(#mask-2)"></path>
                    </g>
                    <path d="M59.7548085,115.831096 C54.0929362,119.884596 45.8795957,119.393034 40.1708936,115.407596 C34.4606809,111.422159 31.2158298,104.464659 30.8321277,97.5056463 C30.4484255,90.5481463 32.6887021,83.6269463 36.1994255,77.6087088 C39.0364043,72.7490463 42.7359574,68.2992713 44.4656383,62.9435088 C46.2119362,57.5378338 45.7995319,51.6632838 47.0971702,46.1320713 C48.3932979,40.6008588 52.4010213,34.8972213 58.0734681,34.7489963 C62.4241064,34.6340463 66.2943617,37.9933088 68.0074255,41.9984088 C69.722,46.0035088 69.6827234,50.5273963 69.3156383,54.8682713 C68.8926596,59.8353213 68.0769149,64.7887588 68.2234468,69.7724463 C68.6554894,84.5238588 74.583234,105.211834 59.7548085,115.831096" id="Fill-6" fill="#00C758"></path>
                </g>
            </g>
        </g>
    </g>
</svg>