<?xml version="1.0" encoding="UTF-8"?>
<svg width="446px" height="119px" viewBox="0 0 446 119" version="1.1" xmlns="http://www.w3.org/2000/svg" xmlns:xlink="http://www.w3.org/1999/xlink">
    <!-- Generator: Sketch 48.2 (47327) - http://www.bohemiancoding.com/sketch -->
    <title>yellow_03</title>
    <desc>Created with Sketch.</desc>
    <defs></defs>
    <g id="illustration/colors" stroke="none" stroke-width="1" fill="none" fill-rule="evenodd" transform="translate(-47.000000, -74.000000)">
        <g id="illustration" fill="#FFC605">
            <path d="M436.238772,90.9523569 C433.384899,89.9915377 430.92549,88.1239167 428.181381,86.8815177 C417.944709,82.2486682 405.970102,87.0251809 396.502924,93.0889154 C387.035746,99.1526499 377.884141,106.767947 366.762494,108.308016 C358.739404,109.419394 350.660288,107.187443 342.93219,104.752065 C328.037393,100.058302 312.912776,94.4496928 297.330808,95.3909738 C266.413841,97.2585949 242.295406,123.970748 212.06561,130.743603 C187.651039,136.213147 161.94445,128.091007 137.273763,132.242298 C123.32454,134.590328 110.206553,140.831056 98.6790064,149.069276 C92.0085337,153.835445 85.6021815,159.391186 77.7563151,161.724276 C69.9081621,164.058515 59.9573351,161.980571 56.2985225,154.623868 C56.5134777,154.623868 55.6868147,156.512177 55.90177,156.512177 C55.2363234,153.155056 50.0396661,152.593046 48.1416571,155.434128 C46.243648,158.27636 47.003995,162.119637 48.3120205,165.280226 C49.6200461,168.440816 51.4357318,171.542791 51.4746067,174.965422 C51.5089081,177.923733 50.1905921,180.816535 50.5027346,183.758756 C51.273372,191.029261 60.6502227,193.524403 67.8992452,192.910674 C76.1338604,192.211896 84.2255532,189.83973 91.5420351,185.978065 C100.019047,181.503819 107.350392,175.125175 115.579291,170.207298 C147.693375,151.012751 188.027211,156.365066 225.087552,161.124339 C229.331775,161.669109 233.667468,162.195491 237.861382,161.341557 C241.180611,160.665766 244.273451,159.148683 247.190211,157.417829 C256.93866,151.631077 265.151551,143.327347 275.399656,138.489921 C310.49796,121.922686 354.759302,151.121935 389.748984,134.324839 C395.672831,131.481457 400.951811,127.439351 406.770467,124.386796 C421.0547,116.893326 437.805202,115.74517 453.8914,116.658868 C463.116181,117.182951 472.78002,118.262148 481.251315,114.55449 C489.721466,110.846831 496.01348,100.192771 491.490273,92.0936171 C489.852954,89.1617394 487.100841,87.0378232 485.102215,84.3415531 C483.102445,81.6464323 488.152995,78.0239258 483.886803,75 C480.665446,72.7166649 477.780016,76.0079407 476.015782,76.2113677 C461.566903,77.8721138 450.029066,95.5932516 436.238772,90.9523569 Z" id="yellow_03"></path>
        </g>
    </g>
</svg>