<?xml version="1.0" standalone="no"?>
<!DOCTYPE svg PUBLIC "-//W3C//DTD SVG 20010904//EN"
 "http://www.w3.org/TR/2001/REC-SVG-20010904/DTD/svg10.dtd">
<svg version="1.0" xmlns="http://www.w3.org/2000/svg"
 width="512.000000pt" height="512.000000pt" viewBox="0 0 512.000000 512.000000"
 preserveAspectRatio="xMidYMid meet">
<metadata>
Created by potrace 1.11, written by Peter Selinger 2001-2013
</metadata>
<g transform="translate(0.000000,512.000000) scale(0.100000,-0.100000)"
fill="#000000" stroke="none">
<path d="M2377 4966 c-89 -46 -189 -98 -222 -116 -33 -18 -109 -60 -170 -93
-60 -33 -126 -69 -145 -80 -19 -11 -55 -31 -80 -45 -129 -71 -399 -223 -430
-241 -19 -11 -42 -24 -50 -28 -40 -19 -510 -294 -618 -361 -130 -82 -144 -99
-123 -150 13 -29 26 -39 191 -140 173 -107 746 -442 756 -442 2 0 21 -11 42
-23 62 -40 459 -256 592 -323 206 -104 260 -123 277 -101 15 18 25 88 38 282
7 95 7 561 0 625 -2 25 -7 68 -9 95 -7 79 -13 88 -54 81 -19 -3 -80 -29 -136
-57 -277 -143 -296 -151 -361 -157 -63 -5 -64 -5 -84 29 -25 40 -20 99 10 138
72 92 671 426 764 426 28 0 73 -16 155 -57 219 -107 541 -302 616 -374 30 -27
34 -37 29 -64 -7 -41 -37 -80 -76 -102 -29 -15 -34 -15 -87 3 -31 11 -124 54
-206 97 -184 96 -264 128 -277 115 -15 -15 -23 -179 -23 -483 1 -360 13 -603
32 -622 14 -14 310 138 837 431 72 40 137 76 145 82 12 7 93 54 205 117 334
189 651 386 666 413 15 29 -7 67 -65 110 -40 30 -298 190 -377 234 -10 5 -101
57 -201 115 -100 58 -198 113 -216 122 -19 10 -39 21 -46 26 -6 5 -38 24 -71
42 -33 18 -78 43 -100 55 -22 12 -101 56 -175 97 -147 82 -235 129 -350 191
-41 21 -93 50 -115 62 -70 40 -304 155 -315 155 -6 0 -84 -38 -173 -84z"/>
<path d="M346 3547 c-9 -12 -19 -63 -24 -112 -10 -97 -9 -2025 1 -2089 9 -56
27 -108 46 -130 23 -27 158 -114 399 -257 429 -254 766 -448 1182 -678 439
-243 418 -235 453 -168 28 55 32 160 32 932 0 839 -10 1139 -37 1156 -27 17
-122 -20 -293 -114 -44 -24 -105 -57 -135 -74 -208 -114 -488 -291 -524 -332
-19 -21 -19 -21 0 -42 28 -32 106 -87 224 -159 182 -110 215 -141 221 -205 5
-44 -19 -94 -52 -111 -26 -13 -35 -13 -82 1 -146 43 -540 273 -704 412 -60 51
-69 74 -80 209 -10 114 -10 543 0 611 16 112 50 156 120 156 88 0 99 -29 112
-298 8 -168 17 -230 41 -277 l14 -27 52 15 c85 25 351 159 619 312 178 101
309 195 309 221 0 11 -12 31 -27 45 -25 23 -248 166 -259 166 -3 0 -33 18 -68
40 -35 22 -66 40 -69 40 -3 0 -62 34 -132 75 -69 41 -128 75 -129 75 -2 0 -48
25 -102 56 -140 79 -481 267 -594 327 -52 27 -99 53 -105 57 -20 16 -373 190
-384 190 -6 0 -17 -10 -25 -23z"/>
<path d="M4575 3482 c-77 -38 -198 -100 -270 -139 -71 -39 -175 -94 -230 -123
-55 -29 -129 -70 -165 -90 -36 -20 -90 -51 -120 -67 -30 -17 -71 -39 -90 -50
-19 -11 -82 -46 -140 -78 -295 -164 -612 -353 -661 -395 l-34 -28 40 -36 c47
-43 180 -127 460 -288 331 -191 459 -254 483 -239 23 14 33 71 37 211 8 277
32 358 115 388 38 14 86 -3 99 -35 21 -54 31 -209 33 -543 2 -390 -4 -400
-389 -613 -358 -199 -407 -219 -465 -190 -37 18 -68 65 -68 104 0 47 67 107
226 202 180 106 254 160 254 185 0 20 -18 35 -121 103 -244 162 -784 469 -824
469 -8 0 -17 -12 -21 -27 -3 -16 -8 -35 -10 -43 -23 -70 -23 -1927 -1 -2053 2
-10 13 -24 25 -32 19 -14 28 -12 114 33 51 27 111 60 133 72 22 13 60 34 85
48 266 148 1168 672 1384 805 277 170 272 167 298 224 30 67 33 178 33 1128
-1 1052 -6 1165 -53 1165 -10 0 -80 -31 -157 -68z"/>
</g>
</svg>
