<?xml version="1.0" encoding="UTF-8"?>
<svg width="188px" height="190px" viewBox="0 0 188 190" version="1.1" xmlns="http://www.w3.org/2000/svg" xmlns:xlink="http://www.w3.org/1999/xlink">
    <!-- Generator: Sketch 48.1 (47250) - http://www.bohemiancoding.com/sketch -->
    <title>illustration/client</title>
    <desc>Created with Sketch.</desc>
    <defs>
        <polygon id="path-1" points="0 189.679 187.388 189.679 187.388 0 0 0"></polygon>
    </defs>
    <g id="Symbols" stroke="none" stroke-width="1" fill="none" fill-rule="evenodd">
        <g id="illustration/client">
            <g>
                <path d="M159.5668,97.1597 C159.5668,133.8747 129.8038,163.6377 93.0888,163.6377 C56.3748,163.6377 26.6108,133.8747 26.6108,97.1597 C26.6108,60.4457 56.3748,30.6817 93.0888,30.6817 C129.8038,30.6817 159.5668,60.4457 159.5668,97.1597" id="Fill-1" fill="#D9E4F0"></path>
                <mask id="mask-2" fill="white">
                    <use xlink:href="#path-1"></use>
                </mask>
                <g id="Clip-4"></g>
                <polygon id="Fill-3" fill="#FFFFFF" mask="url(#mask-2)" points="53.327 120.854 126.773 120.854 126.773 76.759 53.327 76.759"></polygon>
                <polygon id="Fill-5" fill="#FFFFFF" mask="url(#mask-2)" points="68.199 109.905 133.246 109.905 133.246 58.578 68.199 58.578"></polygon>
                <path d="M105.6786,95.8746 L100.4736,93.7846 L97.5466,93.6596 L95.7406,95.8746 L95.2826,93.1196 L90.3836,94.9886 C88.5806,95.6766 87.2876,97.1786 87.0106,98.9076 L86.0536,104.8696 L118.0946,104.8696 L117.1376,98.9076 C116.8606,97.1796 115.5676,95.6766 113.7646,94.9886 L108.8656,93.1196" id="Fill-6" fill="#D9E4F0" mask="url(#mask-2)"></path>
                <path d="M52.8749,123.5904 L124.0359,123.5904 L124.0359,124.9584 C124.0359,127.2224 122.1939,129.0644 119.9309,129.0644 L56.9799,129.0644 C54.7169,129.0644 52.8749,127.2224 52.8749,124.9584 L52.8749,123.5904 Z M77.5069,137.2754 L99.4029,137.2754 L99.4029,131.8014 L77.5069,131.8014 L77.5069,137.2754 Z M50.1379,124.9584 C50.1379,128.7314 53.2079,131.8014 56.9799,131.8014 L74.7709,131.8014 L74.7709,137.2754 L69.2969,137.2754 L69.2969,140.0124 L107.6139,140.0124 L107.6139,137.2754 L102.1399,137.2754 L102.1399,131.8014 L119.9309,131.8014 C123.7039,131.8014 126.7729,128.7314 126.7729,124.9584 L126.7729,120.8534 L50.1379,120.8534 L50.1379,124.9584 Z" id="Fill-7" fill="#363C75" mask="url(#mask-2)"></path>
                <polygon id="Fill-8" fill="#363C75" mask="url(#mask-2)" points="124.036 118.116 126.773 118.116 126.773 115.379 124.036 115.379"></polygon>
                <path d="M52.8749,82.5357 C52.8749,80.2727 54.7169,78.4307 56.9799,78.4307 L63.8229,78.4307 L63.8229,75.6937 L56.9799,75.6937 C53.2079,75.6937 50.1379,78.7627 50.1379,82.5357 L50.1379,118.1167 L52.8749,118.1167 L52.8749,82.5357 Z" id="Fill-9" fill="#363C75" mask="url(#mask-2)"></path>
                <path d="M132.247,108.5372 C132.247,109.2912 131.632,109.9052 130.878,109.9052 L70.665,109.9052 C69.911,109.9052 69.297,109.2912 69.297,108.5372 L69.297,59.2712 C69.297,58.5172 69.911,57.9032 70.665,57.9032 L130.878,57.9032 C131.632,57.9032 132.247,58.5172 132.247,59.2712 L132.247,108.5372 Z M130.878,112.6422 C133.142,112.6422 134.984,110.8002 134.984,108.5372 L134.984,59.2712 C134.984,57.0082 133.142,55.1662 130.878,55.1662 L70.665,55.1662 C68.402,55.1662 66.559,57.0082 66.559,59.2712 L66.559,108.5372 C66.559,110.8002 68.402,112.6422 70.665,112.6422 L130.878,112.6422 Z" id="Fill-10" fill="#363C75" mask="url(#mask-2)"></path>
                <path d="M112.7065,104.4317 L111.6495,101.2627 L109.0535,102.1287 L109.8205,104.4317 L102.1405,104.4317 L102.1405,97.5887 L99.4035,97.5887 L99.4035,104.4317 L91.7235,104.4317 L92.4915,102.1267 L89.8945,101.2607 L88.8375,104.4317 L84.5595,104.4317 L85.2695,99.4597 C85.4705,98.0517 86.4095,96.8277 87.7175,96.2667 L92.9925,94.0067 L94.5575,100.2667 L99.9695,94.8517 L101.5735,94.8517 L106.9875,100.2657 L108.5535,94.0047 L113.8275,96.2657 C115.1355,96.8267 116.0745,98.0507 116.2755,99.4597 L116.9845,104.4317 L112.7065,104.4317 Z M114.9055,93.7507 L108.9825,91.2137 L108.9825,89.3787 L106.2455,89.3787 L106.2455,91.9457 L105.5035,94.9107 L102.7065,92.1157 L98.8365,92.1157 L96.0395,94.9117 L95.2975,91.9457 L95.2975,89.3787 L92.5605,89.3787 L92.5605,91.2137 L86.6385,93.7507 C84.4575,94.6847 82.8955,96.7237 82.5605,99.0727 L81.4035,107.1687 L120.1405,107.1687 L118.9835,99.0727 C118.6485,96.7257 117.0855,94.6847 114.9055,93.7507 Z" id="Fill-11" fill="#363C75" mask="url(#mask-2)"></path>
                <path d="M91.1923,77.0621 L91.1923,79.7991 C90.4383,79.7991 89.8243,79.1851 89.8243,78.4301 C89.8243,77.6761 90.4383,77.0621 91.1923,77.0621 M92.5613,68.8511 L93.4063,68.8511 L93.7843,68.0941 C95.2393,65.1851 98.1633,63.3771 101.4183,63.3771 L103.1863,63.3771 C107.8923,63.3771 111.7193,67.2051 111.7193,71.9111 L111.7193,74.5771 C111.2903,74.4231 110.8333,74.3251 110.3513,74.3251 L108.9833,74.3251 L107.0733,74.3251 C104.1163,74.3251 101.2533,73.4581 98.7933,71.8181 L97.8593,71.1951 L96.2643,72.7911 C95.2753,73.7801 93.9593,74.3251 92.5613,74.3251 L91.1923,74.3251 C90.7113,74.3251 90.2543,74.4231 89.8243,74.5771 L89.8243,71.5881 C89.8243,70.0791 91.0513,68.8511 92.5613,68.8511 M110.3513,79.7991 L110.3513,77.0621 C111.1053,77.0621 111.7193,77.6761 111.7193,78.4301 C111.7193,79.1851 111.1053,79.7991 110.3513,79.7991 M106.7153,83.1801 L103.2633,87.4951 C103.0013,87.8221 102.6103,88.0101 102.1933,88.0101 L99.3513,88.0101 C98.9343,88.0101 98.5443,87.8221 98.2823,87.4971 L94.8303,83.1801 C94.2483,82.4551 93.9293,81.5431 93.9293,80.6161 L93.9293,76.9381 C95.5383,76.6611 97.0223,75.9041 98.2003,74.7261 L98.2343,74.6921 C100.9193,76.2451 103.9533,77.0621 107.0733,77.0621 L107.6143,77.0621 L107.6143,80.6161 C107.6143,81.5431 107.2953,82.4551 106.7153,83.1801 M91.1923,82.5361 L91.4903,82.5361 C91.7413,83.3861 92.1333,84.1921 92.6923,84.8901 L96.1453,89.2071 C96.9293,90.1861 98.0973,90.7471 99.3503,90.7471 L102.1923,90.7471 C103.4453,90.7471 104.6143,90.1861 105.3983,89.2061 L108.8513,84.8901 C109.4093,84.1921 109.8033,83.3861 110.0523,82.5361 L110.3513,82.5361 C112.6143,82.5361 114.4563,80.6941 114.4563,78.4301 L114.4563,71.9111 C114.4563,65.6951 109.4013,60.6401 103.1863,60.6401 L101.4183,60.6401 C97.3843,60.6401 93.7343,62.7441 91.7123,66.1801 C89.0963,66.5891 87.0873,68.8581 87.0873,71.5881 L87.0873,78.4301 C87.0873,80.6941 88.9293,82.5361 91.1923,82.5361" id="Fill-12" fill="#363C75" mask="url(#mask-2)"></path>
                <path d="M113.665,19.6451 C146.323,29.1381 170.19,59.2841 170.19,95.0041 C170.19,138.3411 135.059,173.4721 91.722,173.4721" id="Stroke-13" stroke="#363C75" stroke-width="3" stroke-linecap="round" mask="url(#mask-2)"></path>
                <polyline id="Stroke-14" stroke="#363C75" stroke-width="3" stroke-linecap="round" mask="url(#mask-2)" points="103.1713 188.1788 88.4643 173.4718 103.1713 158.7658"></polyline>
                <path d="M70.6181,170.0333 C37.9601,160.5403 14.0931,130.3953 14.0931,94.6743 C14.0931,51.3383 49.2241,16.2063 92.5611,16.2063" id="Stroke-15" stroke="#363C75" stroke-width="3" stroke-linecap="round" mask="url(#mask-2)"></path>
                <polyline id="Stroke-16" stroke="#363C75" stroke-width="3" stroke-linecap="round" mask="url(#mask-2)" points="81.1113 1.4996 95.8183 16.2066 81.1113 30.9136"></polyline>
                <path d="M55.9179,49.023 C55.9179,63.56 44.1329,75.344 29.5969,75.344 C15.0599,75.344 3.2749,63.56 3.2749,49.023 C3.2749,34.486 15.0599,22.702 29.5969,22.702 C44.1329,22.702 55.9179,34.486 55.9179,49.023" id="Fill-17" fill="#FFFFFF" mask="url(#mask-2)"></path>
                <path d="M55.9179,49.023 C55.9179,63.56 44.1329,75.344 29.5969,75.344 C15.0599,75.344 3.2749,63.56 3.2749,49.023 C3.2749,34.486 15.0599,22.702 29.5969,22.702 C44.1329,22.702 55.9179,34.486 55.9179,49.023 Z" id="Stroke-18" stroke="#363C75" stroke-width="3" stroke-linecap="round" mask="url(#mask-2)"></path>
                <path d="M185.8881,143.0694 C185.8881,157.6064 174.1031,169.3904 159.5671,169.3904 C145.0301,169.3904 133.2451,157.6064 133.2451,143.0694 C133.2451,128.5324 145.0301,116.7484 159.5671,116.7484 C174.1031,116.7484 185.8881,128.5324 185.8881,143.0694" id="Fill-19" fill="#FFFFFF" mask="url(#mask-2)"></path>
                <path d="M185.8881,143.0694 C185.8881,157.6064 174.1031,169.3904 159.5671,169.3904 C145.0301,169.3904 133.2451,157.6064 133.2451,143.0694 C133.2451,128.5324 145.0301,116.7484 159.5671,116.7484 C174.1031,116.7484 185.8881,128.5324 185.8881,143.0694 Z" id="Stroke-20" stroke="#363C75" stroke-width="3" stroke-linecap="round" mask="url(#mask-2)"></path>
                <path d="M41.2407,39.9771 C40.5457,38.7061 39.7037,37.5341 38.7387,36.4851 L43.5397,36.4851 C44.6687,37.4911 45.6537,38.6681 46.4617,39.9771 L41.2407,39.9771 Z M48.5277,45.1621 L43.1147,45.1621 C42.8777,43.9471 42.5177,42.7791 42.0537,41.6681 L47.3737,41.6681 C47.8837,42.7681 48.2717,43.9391 48.5277,45.1621 Z M48.8827,48.5711 C48.8827,49.1711 48.8477,49.7631 48.7857,50.3471 L43.3767,50.3471 C43.4257,49.8001 43.4537,49.2471 43.4537,48.6871 C43.4537,48.0671 43.4217,47.4561 43.3617,46.8521 L48.7927,46.8521 C48.8507,47.4181 48.8827,47.9901 48.8827,48.5711 Z M47.3467,55.5321 L42.1307,55.5321 C42.5797,54.4201 42.9207,53.2501 43.1447,52.0381 L48.5157,52.0381 C48.2537,53.2611 47.8607,54.4331 47.3467,55.5321 Z M43.4757,60.7161 L38.8977,60.7161 C39.8407,59.6641 40.6617,58.4911 41.3377,57.2221 L46.4277,57.2221 C45.6107,58.5341 44.6157,59.7121 43.4757,60.7161 Z M34.1937,64.4051 C35.2497,63.8461 36.2417,63.1751 37.1557,62.4061 L41.1417,62.4061 C39.0747,63.6221 36.7107,64.3381 34.1937,64.4051 Z M26.6117,64.6081 C18.2567,64.6081 11.4587,57.4671 11.4587,48.6881 C11.4587,39.9091 18.2557,32.7671 26.6117,32.7671 C34.9667,32.7671 41.7637,39.9091 41.7637,48.6881 C41.7637,57.4671 34.9667,64.6081 26.6117,64.6081 Z M33.8037,32.7271 C36.5057,32.7271 39.0427,33.4811 41.2387,34.7941 L36.9447,34.7941 C35.9507,33.9851 34.8707,33.2901 33.7197,32.7271 L33.8037,32.7271 Z M33.8037,31.0371 L27.2967,31.0371 L27.2967,31.0951 C27.0687,31.0851 26.8417,31.0771 26.6117,31.0771 C17.3237,31.0771 9.7687,38.9771 9.7687,48.6881 C9.7687,58.3991 17.3237,66.3001 26.6117,66.3001 C27.4527,66.3001 28.2797,66.2331 29.0887,66.1071 L33.8037,66.1071 C43.0507,66.1061 50.5737,58.2401 50.5737,48.5711 C50.5737,38.9031 43.0507,31.0371 33.8037,31.0371 Z" id="Fill-21" fill="#363C75" mask="url(#mask-2)"></path>
                <path d="M36.5019,48.6881 C36.5019,54.1501 32.0739,58.5781 26.6109,58.5781 C21.1489,58.5781 16.7209,54.1501 16.7209,48.6881 C16.7209,43.2261 21.1489,38.7971 26.6109,38.7971 C32.0739,38.7971 36.5019,43.2261 36.5019,48.6881" id="Fill-22" fill="#00F37B" mask="url(#mask-2)"></path>
                <path d="M26.6113,58.6827 C21.3733,58.6827 17.1133,54.1997 17.1133,48.6877 C17.1133,43.1767 21.3743,38.6927 26.6113,38.6927 C31.8483,38.6927 36.1103,43.1757 36.1103,48.6877 C36.1103,54.1997 31.8483,58.6827 26.6113,58.6827 M26.6113,37.0017 C20.4413,37.0017 15.4223,42.2447 15.4223,48.6877 C15.4223,55.1317 20.4413,60.3737 26.6113,60.3737 C32.7813,60.3737 37.8003,55.1317 37.8003,48.6877 C37.8003,42.2447 32.7803,37.0017 26.6113,37.0017" id="Fill-23" fill="#363C75" mask="url(#mask-2)"></path>
                <polygon id="Fill-24" fill="#FFFFFF" mask="url(#mask-2)" points="12.3134 21.4097 17.8094 27.2437 12.4914 32.3947 6.9554 27.2437"></polygon>
                <polygon id="Fill-25" fill="#FFFFFF" mask="url(#mask-2)" points="4.52 35.1636 7.758 38.6016 4.625 41.6376 1.362 38.6016"></polygon>
                <path d="M16.4252,27.3658 C14.7292,28.1088 13.3102,29.4138 12.4312,31.0408 L12.3132,31.2588 L12.1952,31.0408 C11.3152,29.4138 9.8982,28.1088 8.2012,27.3658 L7.9212,27.2428 L8.2012,27.1208 C9.8972,26.3778 11.3162,25.0728 12.1952,23.4458 L12.3132,23.2278 L12.4312,23.4458 C13.3102,25.0728 14.7292,26.3778 16.4252,27.1208 L16.7052,27.2428 L16.4252,27.3658 Z M19.6102,26.0918 C16.1362,26.0228 13.3222,23.2788 13.1752,19.7878 C13.1762,19.7388 13.1792,19.6998 13.1822,19.6608 C13.1832,19.6558 13.1832,19.6498 13.1832,19.6448 L11.4442,19.6448 C11.4442,19.6508 11.4442,19.6558 11.4452,19.6608 C11.4472,19.6998 11.4492,19.7388 11.4512,19.7788 C11.3052,23.2788 8.4902,26.0228 5.0172,26.0918 L5.0172,28.3948 C8.4902,28.4638 11.3052,31.2078 11.4512,34.6988 L11.4512,34.7038 L11.4512,34.7088 C11.4502,34.7488 11.4472,34.7868 11.4452,34.8268 C11.4442,34.8318 11.4442,34.8378 11.4442,34.8428 L13.1832,34.8428 C13.1832,34.8368 13.1832,34.8318 13.1822,34.8268 C13.1792,34.7868 13.1772,34.7488 13.1752,34.7088 C13.3222,31.2078 16.1362,28.4638 19.6102,28.3958 L19.6102,26.0918 Z" id="Fill-26" fill="#363C75" mask="url(#mask-2)"></path>
                <path d="M4.7919,40.6275 C4.2399,39.6605 3.3929,38.8775 2.3829,38.3995 C3.3919,37.9225 4.2389,37.1395 4.7919,36.1725 C5.3449,37.1395 6.1919,37.9235 7.2009,38.3995 C6.1929,38.8765 5.3449,39.6605 4.7919,40.6275 M5.4959,33.6615 C5.4959,33.6375 5.4979,33.6145 5.4999,33.5915 C5.5019,33.5565 5.5039,33.5225 5.5039,33.4865 L5.4869,33.4165 L4.0799,33.4165 L4.0799,33.4865 C4.0799,33.5225 4.0819,33.5565 4.0839,33.5915 C4.0859,33.6145 4.0869,33.6375 4.0879,33.6565 C3.9969,35.8195 2.2319,37.5135 0.0699,37.5135 L-0.0001,37.5135 L-0.0001,39.2865 L0.0699,39.2865 C2.2309,39.2865 3.9969,40.9805 4.0889,43.1415 C4.0879,43.1635 4.0859,43.1865 4.0849,43.2085 C4.0829,43.2435 4.0799,43.2775 4.0799,43.3145 L4.0969,43.3845 L5.5029,43.3845 L5.5029,43.3145 C5.5029,43.2775 5.5009,43.2435 5.4989,43.2085 C5.4979,43.1855 5.4959,43.1625 5.4949,43.1435 C5.5849,40.9815 7.3509,39.2865 9.5129,39.2865 L9.5829,39.2865 L9.5829,37.5135 L9.5129,37.5135 C7.3519,37.5135 5.5869,35.8185 5.4959,33.6615" id="Fill-27" fill="#363C75" mask="url(#mask-2)"></path>
                <path d="M170.9726,142.3492 C170.9726,143.6182 169.9446,144.6462 168.6756,144.6462 C167.4066,144.6462 166.3776,143.6182 166.3776,142.3492 C166.3776,141.0802 167.4066,140.0522 168.6756,140.0522 C169.9446,140.0522 170.9726,141.0802 170.9726,142.3492" id="Fill-28" fill="#00F37B" mask="url(#mask-2)"></path>
                <path d="M170.9726,142.3492 C170.9726,143.6182 169.9446,144.6462 168.6756,144.6462 C167.4066,144.6462 166.3776,143.6182 166.3776,142.3492 C166.3776,141.0802 167.4066,140.0522 168.6756,140.0522 C169.9446,140.0522 170.9726,141.0802 170.9726,142.3492 Z" id="Stroke-29" stroke="#363C75" stroke-width="0.75" mask="url(#mask-2)"></path>
                <path d="M173.268,151.5011 C172.211,152.2061 170.919,152.4011 169.588,152.0491 C167.475,151.5011 165.478,149.7001 164.186,147.1951 C164.069,146.9601 163.834,146.7651 163.56,146.6471 L163.403,146.6081 C160.937,145.6291 158.119,145.7081 155.692,146.7651 C155.457,146.8821 155.261,147.0781 155.105,147.3131 C153.774,149.8571 151.738,151.7361 149.585,152.2841 C148.215,152.6361 146.923,152.4401 145.827,151.6971 C142.813,149.7001 142.226,144.3761 144.497,139.8361 C145.788,137.2131 147.863,135.3341 150.055,134.7471 C150.525,134.6291 150.956,134.5511 151.386,134.5511 C152.286,134.5511 153.108,134.7861 153.852,135.2951 C153.891,135.3341 153.93,135.3341 154.009,135.3741 C157.61,136.7831 161.524,136.8611 165.165,135.6081 L165.283,135.5691 C165.361,135.5301 165.4,135.5301 165.478,135.4911 C166.574,134.7861 167.827,134.5901 169.197,134.9431 C171.311,135.4911 173.346,137.3701 174.638,139.9141 C176.83,144.3371 176.243,149.5441 173.268,151.5011 M176.008,139.2091 C174.52,136.2341 172.172,134.1211 169.588,133.4161 C167.788,132.9851 166.104,133.2201 164.656,134.1211 C163.521,134.5121 162.347,134.7471 161.133,134.8641 L161.133,132.5161 C161.133,131.8111 161.289,130.1281 162.699,130.1281 C164.147,130.1281 165.831,129.5411 165.831,126.8011 C165.831,126.3701 165.478,126.0181 165.048,126.0181 C164.617,126.0181 164.265,126.3701 164.265,126.8011 C164.265,128.2881 163.717,128.5621 162.699,128.5621 C160.781,128.5621 159.567,130.1281 159.567,132.5161 L159.567,134.9041 C157.923,134.8641 156.24,134.5511 154.674,133.9251 C153.226,132.9851 151.503,132.7111 149.703,133.2201 C147.08,133.9251 144.692,136.0781 143.165,139.1311 C140.543,144.3371 141.404,150.5621 145.044,152.9891 C146.062,153.6541 147.158,154.0061 148.372,154.0061 C148.92,154.0061 149.507,153.9281 150.094,153.7721 C152.639,153.1061 154.987,151.0311 156.553,148.1351 C158.589,147.2731 160.898,147.2731 162.934,148.0561 C164.46,150.9141 166.77,152.9101 169.275,153.5761 C171.076,154.0451 172.759,153.7721 174.207,152.7931 C177.73,150.4441 178.553,144.3371 176.008,139.2091" id="Fill-30" fill="#363C75" mask="url(#mask-2)"></path>
                <path d="M173.268,151.5011 C172.211,152.2061 170.919,152.4011 169.588,152.0491 C167.475,151.5011 165.478,149.7001 164.186,147.1951 C164.069,146.9601 163.834,146.7651 163.56,146.6471 L163.403,146.6081 C160.937,145.6291 158.119,145.7081 155.692,146.7651 C155.457,146.8821 155.261,147.0781 155.105,147.3131 C153.774,149.8571 151.738,151.7361 149.585,152.2841 C148.215,152.6361 146.923,152.4401 145.827,151.6971 C142.813,149.7001 142.226,144.3761 144.497,139.8361 C145.788,137.2131 147.863,135.3341 150.055,134.7471 C150.525,134.6291 150.956,134.5511 151.386,134.5511 C152.286,134.5511 153.108,134.7861 153.852,135.2951 C153.891,135.3341 153.93,135.3341 154.009,135.3741 C157.61,136.7831 161.524,136.8611 165.165,135.6081 L165.283,135.5691 C165.361,135.5301 165.4,135.5301 165.478,135.4911 C166.574,134.7861 167.827,134.5901 169.197,134.9431 C171.311,135.4911 173.346,137.3701 174.638,139.9141 C176.83,144.3371 176.243,149.5441 173.268,151.5011 Z M176.008,139.2091 C174.52,136.2341 172.172,134.1211 169.588,133.4161 C167.788,132.9851 166.104,133.2201 164.656,134.1211 C163.521,134.5121 162.347,134.7471 161.133,134.8641 L161.133,132.5161 C161.133,131.8111 161.289,130.1281 162.699,130.1281 C164.147,130.1281 165.831,129.5411 165.831,126.8011 C165.831,126.3701 165.478,126.0181 165.048,126.0181 C164.617,126.0181 164.265,126.3701 164.265,126.8011 C164.265,128.2881 163.717,128.5621 162.699,128.5621 C160.781,128.5621 159.567,130.1281 159.567,132.5161 L159.567,134.9041 C157.923,134.8641 156.24,134.5511 154.674,133.9251 C153.226,132.9851 151.503,132.7111 149.703,133.2201 C147.08,133.9251 144.692,136.0781 143.165,139.1311 C140.543,144.3371 141.404,150.5621 145.044,152.9891 C146.062,153.6541 147.158,154.0061 148.372,154.0061 C148.92,154.0061 149.507,153.9281 150.094,153.7721 C152.639,153.1061 154.987,151.0311 156.553,148.1351 C158.589,147.2731 160.898,147.2731 162.934,148.0561 C164.46,150.9141 166.77,152.9101 169.275,153.5761 C171.076,154.0451 172.759,153.7721 174.207,152.7931 C177.73,150.4441 178.553,144.3371 176.008,139.2091 Z" id="Stroke-31" stroke="#363C75" stroke-width="0.75" mask="url(#mask-2)"></path>
                <path d="M168.5707,144.4161 C167.4747,144.4161 166.6127,143.5551 166.6127,142.4581 C166.6127,141.3621 167.4747,140.5011 168.5707,140.5011 C169.6667,140.5011 170.5277,141.3621 170.5277,142.4581 C170.5277,143.5551 169.6667,144.4161 168.5707,144.4161 M168.5707,138.9361 C166.6127,138.9361 165.0477,140.5011 165.0477,142.4581 C165.0477,144.4161 166.6127,145.9811 168.5707,145.9811 C170.5277,145.9811 172.0937,144.4161 172.0937,142.4581 C172.0937,140.5011 170.5277,138.9361 168.5707,138.9361" id="Fill-32" fill="#363C75" mask="url(#mask-2)"></path>
                <path d="M168.5707,144.4161 C167.4747,144.4161 166.6127,143.5551 166.6127,142.4581 C166.6127,141.3621 167.4747,140.5011 168.5707,140.5011 C169.6667,140.5011 170.5277,141.3621 170.5277,142.4581 C170.5277,143.5551 169.6667,144.4161 168.5707,144.4161 Z M168.5707,138.9361 C166.6127,138.9361 165.0477,140.5011 165.0477,142.4581 C165.0477,144.4161 166.6127,145.9811 168.5707,145.9811 C170.5277,145.9811 172.0937,144.4161 172.0937,142.4581 C172.0937,140.5011 170.5277,138.9361 168.5707,138.9361 Z" id="Stroke-33" stroke="#363C75" stroke-width="0.75" mask="url(#mask-2)"></path>
                <path d="M152.5209,141.754 L150.9559,141.754 L150.9559,140.188 C150.9559,139.758 150.6029,139.405 150.1719,139.405 C149.7419,139.405 149.3899,139.758 149.3899,140.188 L149.3899,141.754 L147.8239,141.754 C147.3929,141.754 147.0409,142.107 147.0409,142.537 C147.0409,142.967 147.3929,143.32 147.8239,143.32 L149.3899,143.32 L149.3899,144.886 C149.3899,145.317 149.7419,145.669 150.1719,145.669 C150.6029,145.669 150.9559,145.317 150.9559,144.886 L150.9559,143.32 L152.5209,143.32 C152.9519,143.32 153.3039,142.967 153.3039,142.537 C153.3039,142.107 152.9519,141.754 152.5209,141.754" id="Fill-34" fill="#363C75" mask="url(#mask-2)"></path>
                <path d="M152.5209,141.754 L150.9559,141.754 L150.9559,140.188 C150.9559,139.758 150.6029,139.405 150.1719,139.405 C149.7419,139.405 149.3899,139.758 149.3899,140.188 L149.3899,141.754 L147.8239,141.754 C147.3929,141.754 147.0409,142.107 147.0409,142.537 C147.0409,142.967 147.3929,143.32 147.8239,143.32 L149.3899,143.32 L149.3899,144.886 C149.3899,145.317 149.7419,145.669 150.1719,145.669 C150.6029,145.669 150.9559,145.317 150.9559,144.886 L150.9559,143.32 L152.5209,143.32 C152.9519,143.32 153.3039,142.967 153.3039,142.537 C153.3039,142.107 152.9519,141.754 152.5209,141.754 Z" id="Stroke-35" stroke="#363C75" stroke-width="0.75" mask="url(#mask-2)"></path>
                <polygon id="Fill-36" fill="#D9E4F0" mask="url(#mask-2)" points="80.191 137.275 100.824 137.275 100.824 131.801 80.191 131.801"></polygon>
                <path d="M120.3911,129.0924 L60.6421,129.0924 C58.6201,129.0924 56.9801,127.4524 56.9801,125.4304 L56.9801,123.6184 L124.0531,123.6184 L124.0531,125.4304 C124.0531,127.4524 122.4131,129.0924 120.3911,129.0924" id="Fill-37" fill="#D9E4F0" mask="url(#mask-2)"></path>
            </g>
        </g>
    </g>
</svg>