<?xml version="1.0" encoding="UTF-8"?>
<svg width="527px" height="335px" viewBox="0 0 527 335" version="1.1" xmlns="http://www.w3.org/2000/svg" xmlns:xlink="http://www.w3.org/1999/xlink">
    <!-- Generator: Sketch 48.1 (47250) - http://www.bohemiancoding.com/sketch -->
    <title>illustration/colors</title>
    <desc>Created with Sketch.</desc>
    <defs>
        <polygon id="path-1" points="55 51 287 51 287 335 55 335"></polygon>
        <path d="M0.637,38.386 C2.625,56.467 19.704,69.802 38.963,69.802 C58.222,69.802 75.301,56.467 77.29,38.386 C79.508,18.213 62.459,0.06 38.963,0.06 C15.468,0.06 -1.583,18.213 0.637,38.386" id="path-3"></path>
        <path d="M0.637,38.386 C2.625,56.467 19.704,69.802 38.963,69.802 C58.222,69.802 75.301,56.467 77.29,38.386 C79.508,18.213 62.459,0.06 38.963,0.06 C15.468,0.06 -1.583,18.213 0.637,38.386" id="path-5"></path>
        <path d="M0.637,38.386 C2.625,56.467 19.704,69.802 38.963,69.802 C58.222,69.802 75.301,56.467 77.29,38.386 C79.508,18.213 62.459,0.06 38.963,0.06 C15.468,0.06 -1.583,18.213 0.637,38.386" id="path-7"></path>
        <path d="M0.637,38.386 C2.625,56.467 19.704,69.802 38.963,69.802 C58.222,69.802 75.301,56.467 77.29,38.386 C79.508,18.213 62.459,0.06 38.963,0.06 C15.468,0.06 -1.583,18.213 0.637,38.386" id="path-9"></path>
        <path d="M0.637,38.386 C2.625,56.467 19.704,69.802 38.963,69.802 C58.222,69.802 75.301,56.467 77.29,38.386 C79.508,18.213 62.459,0.06 38.963,0.06 C15.468,0.06 -1.583,18.213 0.637,38.386" id="path-11"></path>
        <path d="M0.637,38.386 C2.625,56.467 19.704,69.802 38.963,69.802 C58.222,69.802 75.301,56.467 77.29,38.386 C79.508,18.213 62.459,0.06 38.963,0.06 C15.468,0.06 -1.583,18.213 0.637,38.386" id="path-13"></path>
        <path d="M0.637,38.386 C2.625,56.467 19.704,69.802 38.963,69.802 C58.222,69.802 75.301,56.467 77.29,38.386 C79.508,18.213 62.459,0.06 38.963,0.06 C15.468,0.06 -1.583,18.213 0.637,38.386" id="path-15"></path>
        <polygon id="path-17" points="0 0 446 0 446 118 0 118"></polygon>
        <polygon id="path-19" points="0 0 82 0 82 21 0 21"></polygon>
        <polygon id="path-21" points="0 0.297725 52.1570262 0.297725 52.1570262 109.156899 0 109.156899"></polygon>
    </defs>
    <g id="Symbols" stroke="none" stroke-width="1" fill="none" fill-rule="evenodd">
        <g id="illustration/colors">
            <g id="illustration">
                <g id="Page-1" transform="translate(47.000000, 0.000000)">
                    <mask id="mask-2" fill="white">
                        <use xlink:href="#path-1"></use>
                    </mask>
                    <g id="Clip-2"></g>
                    <path d="M253.849613,208.358574 C253.183934,204.849546 252.150789,201.073938 249.273589,198.96407 C247.094629,197.366657 244.266012,197.039514 241.753696,196.048766 C233.458555,192.776814 229.815412,182.60638 230.634072,173.715532 C231.452733,164.824684 235.603921,156.648168 238.56433,148.225777 C241.524739,139.803904 243.24372,130.185783 239.318904,122.168698 C236.860855,117.147667 232.492081,113.391729 228.724381,109.264649 C224.527712,104.667041 220.940387,99.4374045 216.031007,95.613139 C211.122144,91.7888735 204.322713,89.5604676 198.624133,92.0549364 C196.400725,93.0280846 194.519459,94.636885 192.3958,95.8124273 C184.398871,100.236628 174.584247,97.9383421 165.452873,97.655715 C153.851046,97.2959608 142.453368,100.404859 131.261906,103.487875 C117.45476,107.291435 103.647615,111.094996 89.8404697,114.898556 C87.3095473,115.595806 84.7470983,116.30548 82.4709737,117.615607 C80.0770116,118.993543 78.0959977,120.980215 76.2183499,123.007779 C69.895954,129.834828 64.2857514,137.607074 61.6545638,146.537779 C60.3170047,151.078447 59.7795002,155.810122 59.2481978,160.514362 C58.2160859,169.643838 57.183974,178.773832 56.1518621,187.903308 C56.0030147,189.217576 55.8588188,190.578948 56.2640145,191.83783 C57.9059872,196.938058 65.8150549,195.770798 69.8520233,199.288108 C74.2151122,203.08908 72.2129082,210.10817 70.2318942,215.550036 C61.1175762,240.592556 60.4012481,269.605832 72.9039115,293.135832 C85.4065749,316.666349 112.620321,332.922583 138.826764,328.279424 C147.156015,326.803655 156.540119,323.599513 163.434647,328.5077 C165.736097,330.146005 167.465931,332.563347 169.970494,333.870885 C173.884974,335.916049 178.628967,334.782435 182.885589,333.606375 C190.217873,331.579328 197.549641,329.552799 204.881925,327.526269 C211.229645,325.771497 217.818726,323.889387 222.743094,319.511255 C232.823369,310.550527 232.415073,294.942885 231.206205,281.498428 C230.807211,277.062322 230.174093,272.237991 228.125891,268.213402 C225.930909,263.901009 220.534157,262.005958 222.982903,257.341059 C226.748536,250.167714 240.691607,248.025235 246.613976,242.641861 C255.648702,234.430147 256.126254,220.362978 253.849613,208.358574 Z" id="Fill-1" fill="#F0F3F8"></path>
                    <g transform="translate(14.000000, 0.000000)">
                        <path d="M77.2899,38.8561 C75.3009,56.9371 58.2219,70.2721 38.9629,70.2721 C19.7049,70.2721 2.6249,56.9371 0.6369,38.8561 C-1.5821,18.6831 15.4679,0.5301 38.9629,0.5301 C62.4589,0.5301 79.5089,18.6831 77.2899,38.8561" id="Fill-1" fill="#363C75"></path>
                        <g id="Group-24" transform="translate(0.000000, 0.470000)">
                            <g id="Group-5">
                                <mask id="mask-4" fill="white">
                                    <use xlink:href="#path-3"></use>
                                </mask>
                                <g id="Clip-4"></g>
                                <path d="M36.2225,-7.0592 C42.4515,-0.8022 48.3135,5.8188 53.7705,12.7588" id="Stroke-3" stroke="#FFC605" stroke-width="4" mask="url(#mask-4)"></path>
                            </g>
                            <g id="Group-8">
                                <mask id="mask-6" fill="white">
                                    <use xlink:href="#path-5"></use>
                                </mask>
                                <g id="Clip-7"></g>
                                <path d="M26.1195,-2.9728 C32.2975,2.6372 37.5545,9.2582 41.6185,16.5462" id="Stroke-6" stroke="#FFC605" stroke-width="4" mask="url(#mask-6)"></path>
                            </g>
                            <g id="Group-11">
                                <mask id="mask-8" fill="white">
                                    <use xlink:href="#path-7"></use>
                                </mask>
                                <g id="Clip-10"></g>
                                <path d="M14.12,5.4994 C18.779,8.1694 23.028,11.5524 26.675,15.4934" id="Stroke-9" stroke="#FFC605" stroke-width="4" mask="url(#mask-8)"></path>
                            </g>
                            <g id="Group-14">
                                <mask id="mask-10" fill="white">
                                    <use xlink:href="#path-9"></use>
                                </mask>
                                <g id="Clip-13"></g>
                                <path d="M5.9427,10.9066 C-3.2593,8.2646 23.7207,22.5746 21.0017,19.8296" id="Stroke-12" stroke="#FFC605" stroke-width="4" mask="url(#mask-10)"></path>
                            </g>
                            <g id="Group-17">
                                <mask id="mask-12" fill="white">
                                    <use xlink:href="#path-11"></use>
                                </mask>
                                <g id="Clip-16"></g>
                                <path d="M0.617,24.8192 C7.463,26.4582 14.895,28.4742 19.027,34.1742" id="Stroke-15" stroke="#FFC605" stroke-width="4" mask="url(#mask-12)"></path>
                            </g>
                            <g id="Group-20">
                                <mask id="mask-14" fill="white">
                                    <use xlink:href="#path-13"></use>
                                </mask>
                                <g id="Clip-19"></g>
                                <path d="M-3.4655,39.6869 C3.8025,37.6719 11.4585,40.0719 18.9685,40.7749" id="Stroke-18" stroke="#FFC605" stroke-width="4" mask="url(#mask-14)"></path>
                            </g>
                            <g id="Group-23">
                                <mask id="mask-16" fill="white">
                                    <use xlink:href="#path-15"></use>
                                </mask>
                                <g id="Clip-22"></g>
                                <path d="M1.2928,52.9261 C7.7828,51.6311 14.5628,51.8111 20.9748,53.4491" id="Stroke-21" stroke="#FFC605" stroke-width="4" mask="url(#mask-16)"></path>
                            </g>
                        </g>
                        <g id="Group-31" transform="translate(6.000000, 5.470000)">
                            <path d="M76.2328,38.2357 C74.2858,55.9407 57.5608,68.9997 38.7008,68.9997 C19.8418,68.9997 3.1168,55.9407 1.1698,38.2357 C-1.0032,18.4807 15.6928,0.7037 38.7008,0.7037 C61.7098,0.7037 78.4058,18.4807 76.2328,38.2357" id="Fill-25" fill="#D9E4F0"></path>
                            <path d="M67.0614,37.409 C65.5894,50.787 52.9524,60.655 38.7014,60.655 C24.4504,60.655 11.8124,50.787 10.3414,37.409 C8.6994,22.481 21.3154,9.049 38.7014,9.049 C56.0864,9.049 68.7034,22.481 67.0614,37.409" id="Fill-27" fill="#FFFFFF"></path>
                            <path d="M51.7381,35.1551 C44.0091,35.1971 37.7601,41.4701 37.7601,49.2121 L37.7551,49.2121 C37.7551,41.4461 31.4641,35.1551 23.6981,35.1551 C31.4641,35.1551 37.7551,28.8651 37.7551,21.1051 L37.7601,21.1051 C37.7601,28.8411 44.0091,35.1131 51.7381,35.1551 Z" id="Stroke-29" stroke="#FFC605" stroke-width="4"></path>
                        </g>
                    </g>
                    <g transform="translate(0.000000, 75.000000)">
                        <mask id="mask-18" fill="white">
                            <use xlink:href="#path-17"></use>
                        </mask>
                        <g id="Clip-2"></g>
                        <path d="M389.238772,15.9523569 C386.384899,14.9915377 383.92549,13.1239167 381.181381,11.8815177 C370.944709,7.24866824 358.970102,12.0251809 349.502924,18.0889154 C340.035746,24.1526499 330.884141,31.7679466 319.762494,33.3080156 C311.739404,34.4193938 303.660288,32.187443 295.93219,29.7520651 C281.037393,25.0583025 265.912776,19.4496928 250.330808,20.3909738 C219.413841,22.2585949 195.295406,48.9707476 165.06561,55.7436035 C140.651039,61.2131472 114.94445,53.0910069 90.2737627,57.2422975 C76.3245396,59.5903282 63.206553,65.8310557 51.6790064,74.0692758 C45.0085337,78.8354447 38.6021815,84.3911863 30.7563151,86.7242759 C22.9081621,89.0585149 12.9573351,86.980571 9.29852247,79.6238681 C9.51347771,79.6238681 8.68681474,81.5121766 8.90176998,81.5121766 C8.23632343,78.1550559 3.03966613,77.5930457 1.14165708,80.4341283 C-0.75635197,83.2763602 0.00399502831,87.1196369 1.31202054,90.2802264 C2.62004605,93.4408158 4.43573182,96.5427907 4.4746067,99.9654218 C4.50890807,102.923733 3.19059215,105.816535 3.5027346,108.758756 C4.27337201,116.029261 13.6502227,118.524403 20.8992452,117.910674 C29.1338604,117.211896 37.2255532,114.83973 44.5420351,110.978065 C53.0190466,106.503819 60.3503924,100.125175 68.5792906,95.207298 C100.693375,76.0127509 141.027211,81.3650655 178.087552,86.1243386 C182.331775,86.6691093 186.667468,87.1954911 190.861382,86.3415573 C194.180611,85.6657658 197.273451,84.1486828 200.190211,82.4178291 C209.93866,76.6310772 218.151551,68.3273467 228.399656,63.4899209 C263.49796,46.9226856 307.759302,76.1219349 342.748984,59.3248386 C348.672831,56.4814574 353.951811,52.4393509 359.770467,49.3867961 C374.0547,41.8933258 390.805202,40.7451699 406.8914,41.6588676 C416.116181,42.1829508 425.78002,43.2621484 434.251315,39.5544897 C442.721466,35.8468309 449.01348,25.1927712 444.490273,17.0936171 C442.852954,14.1617394 440.100841,12.0378232 438.102215,9.34155311 C436.102445,6.64643229 441.152995,3.02392578 436.886803,-1.68642877e-13 C433.665446,-2.28333506 430.780016,1.00794071 429.015782,1.21136774 C414.566903,2.87211383 403.029066,20.5932516 389.238772,15.9523569 Z" id="Fill-1" fill="#FFC605" mask="url(#mask-18)"></path>
                    </g>
                </g>
                <g id="Group-3" transform="translate(255.000000, 41.000000)">
                    <mask id="mask-20" fill="white">
                        <use xlink:href="#path-19"></use>
                    </mask>
                    <g id="Clip-2"></g>
                    <path d="M13.7796334,5.65446308 C21.6495987,5.22901408 29.5185727,11.0484773 36.9533006,8.41488807 C41.3046836,6.87288511 44.3146628,2.73324634 48.5788,0.960542169 C53.3089089,-1.00591108 58.8093584,0.286415229 63.3441558,2.67731878 C67.8779617,5.06822232 71.8040215,8.47880529 76.2138988,11.0944178 C78.5050918,12.4536575 81.1502251,13.8658286 81.8888398,16.4384967 C82.0018628,16.8309884 82.0613485,17.2624296 81.9056941,17.6399407 C81.6885711,18.1702539 81.1175079,18.4498918 80.5811447,18.639646 C78.9214921,19.2288829 77.1507995,19.4116462 75.3979526,19.5734367 C52.9827287,21.6377632 30.4197819,21.0275534 7.9192951,20.4153463 C3.11879468,20.2845157 -2.80995222,18.1253121 1.47996213,12.9320379 C4.67335574,9.06404734 8.59644127,5.93410093 13.7796334,5.65446308" id="Fill-1" fill="#94C6FF" mask="url(#mask-20)"></path>
                </g>
                <path d="M257.190593,310.203389 C203.499585,314.98821 158.711684,270.193466 163.50198,216.505195 C167.172716,175.352445 200.316091,142.215913 241.47021,138.550652 C295.153006,133.771305 339.936801,178.5551 335.151979,232.240634 C331.48535,273.394753 298.344712,306.53539 257.190593,310.203389 M209.201406,104.11116 C221.131981,86.4116998 233.161099,71.4098608 242.058732,60.983439 C245.874545,56.5120397 252.776677,56.5120397 256.59249,60.983439 C265.491492,71.4098608 277.52061,86.4116998 289.452554,104.11116 C293.557153,110.201679 297.816411,116.865666 302.011341,123.966253 C304.242251,127.743744 300.174605,132.083752 296.252037,130.119731 C282.116557,123.043779 266.182663,119.050041 249.326295,119.050041 C232.469927,119.050041 216.537402,123.043779 202.400554,130.119731 C198.477986,132.083752 194.41034,127.743744 196.642618,123.966253 C200.837549,116.865666 205.095438,110.201679 209.201406,104.11116 M256.169576,31.8762307 C252.413983,28.0412564 246.238607,28.0412564 242.484384,31.8762307 C241.482527,32.8999854 217.661069,57.3592378 193.516607,93.1181145 C162.231867,139.449859 145.665654,181.689322 144.149184,218.807275 C144.052009,220.652223 144,222.508121 144,224.377705 C144,287.955884 200.62267,338.557836 266.089595,328.402408 C307.458593,321.98478 341.981573,292.246621 351.596382,251.503099 C374.581591,154.09311 260.594441,36.3982703 256.169576,31.8762307 M253.377244,273.81972 C222.846633,276.255928 197.45122,250.860515 199.883322,220.331273 C201.798071,196.309991 221.258992,176.84907 245.281643,174.93432 C275.80541,172.502219 301.196717,197.888051 298.77009,228.413187 C296.860815,252.437207 277.401263,271.902233 253.377244,273.81972 M256.787934,156.019494 C213.032,151.383856 176.331488,188.087105 180.968495,231.843039 C184.346338,263.725882 209.97716,289.356704 241.861371,292.735916 C285.620043,297.372922 322.324661,260.665567 317.683548,216.908264 C314.304336,185.025422 288.670777,159.395968 256.787934,156.019494 M251.877607,237.163416 C242.713086,238.91119 234.789936,230.98804 236.541816,221.82215 C237.520405,216.699271 241.651009,212.568667 246.773889,211.590078 C255.939778,209.840935 263.862928,217.768191 262.112417,226.932712 C261.132459,232.055591 257.000487,236.186195 251.877607,237.163416 M253.518626,192.463109 C232.500175,189.791493 214.743231,207.549805 217.413479,228.569625 C219.232423,242.898085 230.803041,254.468703 245.130133,256.290384 C266.154058,258.96337 283.912371,241.20232 281.238017,220.179763 C279.416336,205.852671 267.847086,194.283422 253.518626,192.463109" id="logo-copy-2" fill="#196DFF"></path>
                <g id="Page-1" transform="translate(425.000000, 262.000000) scale(-1, 1) translate(-425.000000, -262.000000) translate(390.000000, 189.000000)">
                    <polygon id="Fill-1" fill="#DADFEF" points="17 140 24 140 24 97 17 97"></polygon>
                    <polygon id="Fill-2" fill="#DADFEF" points="43 146 50 146 50 111 43 111"></polygon>
                    <g id="Group-8">
                        <g id="Group-5">
                            <mask id="mask-22" fill="white">
                                <use xlink:href="#path-21"></use>
                            </mask>
                            <g id="Clip-4"></g>
                            <path d="M2.70389149,75.4004587 C4.38674255,72.2151337 6.86116809,69.4775088 8.34310426,66.1938713 C13.0321255,55.8029963 6.66931702,43.9540713 6.38682766,32.5558713 C6.30676383,29.3644963 6.78714681,25.9931338 8.73587021,23.4672588 C10.0607,21.7520838 11.9429553,20.5768713 13.572934,19.1505838 C16.9023809,16.2375088 19.2061043,12.1703963 19.9931468,7.81288375 C20.2786574,6.23232125 20.3874234,4.56554625 21.1805085,3.16799625 C22.7107851,0.47423375 26.4692532,-0.31982875 29.3666574,0.76917125 C32.2655723,1.85817125 34.3910404,4.39009625 35.9394447,7.07327125 C38.7703809,11.9813338 40.0982319,17.7454713 39.6979128,23.3991963 C39.1555936,31.0690838 35.5648064,38.8796338 38.0286574,46.1608088 C39.7099979,51.1308838 43.9080617,54.7639088 46.7420191,59.1758713 C49.8463809,64.0083088 51.278466,69.7467338 51.8661043,75.4609588 C52.5322957,81.9299213 52.147083,88.6227338 49.7361043,94.6621463 C37.8126362,124.524946 -12.0474915,103.321209 2.70389149,75.4004587" id="Fill-3" fill="#088C3F" mask="url(#mask-22)"></path>
                        </g>
                        <path d="M59.7548085,115.831096 C54.0929362,119.884596 45.8795957,119.393034 40.1708936,115.407596 C34.4606809,111.422159 31.2158298,104.464659 30.8321277,97.5056463 C30.4484255,90.5481463 32.6887021,83.6269463 36.1994255,77.6087088 C39.0364043,72.7490463 42.7359574,68.2992713 44.4656383,62.9435088 C46.2119362,57.5378338 45.7995319,51.6632838 47.0971702,46.1320713 C48.3932979,40.6008588 52.4010213,34.8972213 58.0734681,34.7489963 C62.4241064,34.6340463 66.2943617,37.9933088 68.0074255,41.9984088 C69.722,46.0035088 69.6827234,50.5273963 69.3156383,54.8682713 C68.8926596,59.8353213 68.0769149,64.7887588 68.2234468,69.7724463 C68.6554894,84.5238588 74.583234,105.211834 59.7548085,115.831096" id="Fill-6" fill="#00C758"></path>
                    </g>
                </g>
                <g id="Page-1" transform="translate(303.000000, 193.000000)">
                    <polygon id="Fill-1" fill="#F0F3F8" points="0 2.43864254 22.3600311 26 111 0"></polygon>
                    <polygon id="Fill-2" fill="#D6D6D6" points="22 25.8246888 24.3783784 46 110 0"></polygon>
                    <polygon id="Fill-3" fill="#E2E2E2" points="25 45 32.2439908 35 58 35.7695858"></polygon>
                    <polygon id="Fill-4" fill="#F0F3F8" points="32 35.2048575 57.675 59 111 0"></polygon>
                </g>
                <g id="Page-1-Copy-2" transform="translate(409.444799, 85.707000) rotate(-13.000000) translate(-409.444799, -85.707000) translate(363.444799, 60.707000)">
                    <polygon id="Fill-1" fill="#F0F3F8" points="0 2.06346677 18.5326384 22 92 0"></polygon>
                    <polygon id="Fill-2" fill="#D6D6D6" points="18 21.8948449 19.972973 39 91 0"></polygon>
                    <polygon id="Fill-3" fill="#E2E2E2" points="21 38 26.9269015 30 48 30.6156686"></polygon>
                    <polygon id="Fill-4" fill="#F0F3F8" points="27 29.834625 48.125 50 92 0"></polygon>
                </g>
                <path d="M168.251405,95.5286266 C180.707405,96.0906266 193.202405,95.7576266 205.610405,94.5296266 C207.247405,94.3686266 208.971405,94.1566266 210.283405,93.1656266 C211.595405,92.1746266 212.253405,90.1246266 211.215405,88.8486266 C210.539405,88.0186266 209.401405,87.7636266 208.354405,87.5416266 C205.951405,87.0336266 203.459405,86.3776266 201.649405,84.7176266 C199.816405,83.0376266 198.951405,80.5776266 197.602405,78.4876266 C196.253405,76.3986266 193.905405,74.5116266 191.492405,75.1136266 C189.375405,75.6416266 188.176405,77.8066266 187.118405,79.7156266 C185.369405,82.8716266 183.040405,86.0996266 179.555405,87.0356266 C176.790405,87.7786266 173.886405,86.9156266 171.088405,86.3076266 C168.290405,85.7006266 165.117405,85.4196266 162.795405,87.0946266 C162.068405,87.6186266 161.446405,88.3226266 160.605405,88.6326266 C159.737405,88.9506266 158.780405,88.7986266 157.858405,88.7316266 C153.048405,88.3846266 155.208405,91.9726266 157.802405,93.3586266 C160.984405,95.0586266 164.709405,95.3686266 168.251405,95.5286266" id="Fill-4" fill="#CFEAFF"></path>
                <circle id="Oval-7" fill="#CFEAFF" cx="371" cy="19" r="6"></circle>
                <circle id="Oval-7-Copy" fill="#CFEAFF" cx="41" cy="96" r="6"></circle>
                <circle id="Oval-7-Copy-2" fill="#CFEAFF" cx="521" cy="189" r="6"></circle>
                <circle id="Oval-7-Copy-3" fill="#CFEAFF" cx="6" cy="195" r="6"></circle>
                <circle id="Oval-7-Copy-4" fill="#CFEAFF" cx="81" cy="284" r="6"></circle>
                <circle id="Oval-7-Copy-5" fill="#CFEAFF" cx="87" cy="246" r="6"></circle>
                <circle id="Oval-7-Copy-6" fill="#CFEAFF" cx="239" cy="86" r="6"></circle>
            </g>
        </g>
    </g>
</svg>