<?xml version="1.0" encoding="UTF-8"?>
<svg width="374px" height="243px" viewBox="0 0 374 243" version="1.1" xmlns="http://www.w3.org/2000/svg" xmlns:xlink="http://www.w3.org/1999/xlink">
    <!-- Generator: Sketch 48.1 (47250) - http://www.bohemiancoding.com/sketch -->
    <title>illustration/laptop_full</title>
    <desc>Created with Sketch.</desc>
    <defs>
        <polygon id="path-1" points="0 0.65663125 9.51226667 0.65663125 9.51226667 10.4665688 0 10.4665688"></polygon>
        <polygon id="path-3" points="0.00275844156 0.0224326528 11.9959481 0.0224326528 11.9959481 16.9071038 0.00275844156 16.9071038"></polygon>
    </defs>
    <g id="Symbols" stroke="none" stroke-width="1" fill="none" fill-rule="evenodd">
        <g id="illustration/laptop_full">
            <g>
                <path d="M77.0524914,92.052141 L73.947859,92.052141 L73.947859,88.9482094 C73.947859,88.4239961 73.5238629,88 73.0003504,88 C72.4768379,88 72.052141,88.4239961 72.052141,88.9482094 L72.052141,92.052141 L68.9482094,92.052141 C68.4246969,92.052141 68,92.4768379 68,93.0003504 C68,93.5238629 68.4246969,93.947859 68.9482094,93.947859 L72.052141,93.947859 L72.052141,97.0524914 C72.052141,97.5760039 72.4768379,98 73.0003504,98 C73.5238629,98 73.947859,97.5760039 73.947859,97.0524914 L73.947859,93.947859 L77.0524914,93.947859 C77.5760039,93.947859 78,93.5238629 78,93.0003504 C78,92.4768379 77.5760039,92.052141 77.0524914,92.052141" id="Fill-1" fill="#006BFF"></path>
                <g id="Group-5" transform="translate(0.000000, 57.000000)">
                    <mask id="mask-2" fill="white">
                        <use xlink:href="#path-1"></use>
                    </mask>
                    <g id="Clip-4"></g>
                    <path d="M8.61093333,4.63175625 L5.6576,4.63175625 L5.6576,1.58681875 C5.6576,1.07256875 5.25426667,0.65663125 4.75626667,0.65663125 C4.25826667,0.65663125 3.85426667,1.07256875 3.85426667,1.58681875 L3.85426667,4.63175625 L0.9016,4.63175625 C0.4036,4.63175625 -0.0004,5.04838125 -0.0004,5.56194375 C-0.0004,6.07550625 0.4036,6.49144375 0.9016,6.49144375 L3.85426667,6.49144375 L3.85426667,9.53706875 C3.85426667,10.0506313 4.25826667,10.4665688 4.75626667,10.4665688 C5.25426667,10.4665688 5.6576,10.0506313 5.6576,9.53706875 L5.6576,6.49144375 L8.61093333,6.49144375 C9.10893333,6.49144375 9.51226667,6.07550625 9.51226667,5.56194375 C9.51226667,5.04838125 9.10893333,4.63175625 8.61093333,4.63175625" id="Fill-3" fill="#006BFF" mask="url(#mask-2)"></path>
                </g>
                <path d="M269.052491,36.052141 L265.947859,36.052141 L265.947859,32.9482094 C265.947859,32.4239961 265.523863,32 265.00035,32 C264.476838,32 264.052141,32.4239961 264.052141,32.9482094 L264.052141,36.052141 L260.948209,36.052141 C260.424697,36.052141 260,36.4761371 260,37.0003504 C260,37.5231621 260.424697,37.947859 260.948209,37.947859 L264.052141,37.947859 L264.052141,41.0524914 C264.052141,41.5753031 264.476838,42 265.00035,42 C265.523863,42 265.947859,41.5753031 265.947859,41.0524914 L265.947859,37.947859 L269.052491,37.947859 C269.576004,37.947859 270,37.5231621 270,37.0003504 C270,36.4761371 269.576004,36.052141 269.052491,36.052141" id="Fill-6" fill="#006BFF"></path>
                <path d="M362.052491,217.052141 L358.947859,217.052141 L358.947859,213.948209 C358.947859,213.423996 358.523863,213 358.00035,213 C357.476838,213 357.052141,213.423996 357.052141,213.948209 L357.052141,217.052141 L353.948209,217.052141 C353.424697,217.052141 353,217.476838 353,218.00035 C353,218.523863 353.424697,218.947859 353.948209,218.947859 L357.052141,218.947859 L357.052141,222.052491 C357.052141,222.576004 357.476838,223 358.00035,223 C358.523863,223 358.947859,222.576004 358.947859,222.052491 L358.947859,218.947859 L362.052491,218.947859 C362.576004,218.947859 363,218.523863 363,218.00035 C363,217.476838 362.576004,217.052141 362.052491,217.052141" id="Fill-8" fill="#006BFF"></path>
                <path d="M285,232 L86,232 L86,117.665707 C86,111.775346 90.7969251,107 96.7154212,107 L274.283899,107 C280.202395,107 285,111.775346 285,117.665707 L285,232 Z" id="Fill-20" fill="#E1E6E9"></path>
                <polygon id="Fill-22" fill="#FFFFFF" points="92 223 277 223 277 118 92 118"></polygon>
                <polygon id="Fill-24" fill="#006BFF" points="92 166 277 166 277 118 92 118"></polygon>
                <polygon id="Fill-25" fill="#FFFFFF" points="101 156 125 156 125 129 101 129"></polygon>
                <polygon id="Fill-25-Copy" fill="#FFFFFF" points="130 156 154 156 154 129 130 129"></polygon>
                <polygon id="Fill-25-Copy-2" fill="#FFFFFF" points="159 140 213 140 213 129 159 129"></polygon>
                <polygon id="Fill-25-Copy-3" fill="#FFFFFF" points="159 155 213 155 213 144 159 144"></polygon>
                <polygon id="Fill-26" fill="#D9E4F0" points="212 218 266 218 266 184 212 184"></polygon>
                <polygon id="Fill-27" fill="#D9E4F0" points="148 218 202 218 202 184 148 184"></polygon>
                <path d="M165.712909,189 L153.28776,189 C152.576949,189 152,189.57628 152,190.28776 L152,202.712909 C152,203.42372 152.576949,204 153.28776,204 L165.712909,204 C166.42372,204 167,203.42372 167,202.712909 L167,190.28776 C167,189.57628 166.42372,189 165.712909,189" id="Fill-28" fill="#FFFFFF"></path>
                <path d="M230.712909,189 L218.28776,189 C217.576949,189 217,189.57628 217,190.28776 L217,202.712909 C217,203.42372 217.576949,204 218.28776,204 L230.712909,204 C231.42372,204 232,203.42372 232,202.712909 L232,190.28776 C232,189.57628 231.42372,189 230.712909,189" id="Fill-29" fill="#FFFFFF"></path>
                <polygon id="Fill-30" fill="#AFC5D8" points="59 238 311 238 311 232 59 232"></polygon>
                <path d="M311,238 C311,240.761765 297.701725,243 294.453778,243 L80.2838846,243 C77.0359376,243 59,240.761765 59,238 L311,238 Z" id="Fill-31" fill="#006BFF"></path>
                <path d="M207.602013,235 L161.397987,235 C159.769481,235 157,233.656675 157,232 L212,232 C212,233.656675 209.230519,235 207.602013,235" id="Fill-32" fill="#03ADFF"></path>
                <path d="M186,112.5 C186,113.328496 185.328496,114 184.5,114 C183.671504,114 183,113.328496 183,112.5 C183,111.671504 183.671504,111 184.5,111 C185.328496,111 186,111.671504 186,112.5" id="Fill-33" fill="#1C2351"></path>
                <path d="M108,187.5 C108,189.432981 106.432981,191 104.5,191 C102.567019,191 101,189.432981 101,187.5 C101,185.567019 102.567019,184 104.5,184 C106.432981,184 108,185.567019 108,187.5" id="Fill-39" fill="#03ADFF"></path>
                <path d="M253,135 C253,131.686031 255.686538,129 258.999674,129 C262.313462,129 265,131.686031 265,135 C265,138.313969 262.313462,141 258.999674,141 C255.686538,141 253,138.313969 253,135" id="Fill-40" fill="#D9E4F0"></path>
                <path d="M108,195.5 C108,197.432981 106.432981,199 104.5,199 C102.567019,199 101,197.432981 101,195.5 C101,193.567019 102.567019,192 104.5,192 C106.432981,192 108,193.567019 108,195.5" id="Fill-41" fill="#FFC605"></path>
                <path d="M108,204.5 C108,206.432981 106.432981,208 104.5,208 C102.567019,208 101,206.432981 101,204.5 C101,202.567019 102.567019,201 104.5,201 C106.432981,201 108,202.567019 108,204.5" id="Fill-42" fill="#363C75"></path>
                <path d="M108,212.5 C108,214.432981 106.432981,216 104.5,216 C102.567019,216 101,214.432981 101,212.5 C101,210.567019 102.567019,209 104.5,209 C106.432981,209 108,210.567019 108,212.5" id="Fill-43" fill="#00F37B"></path>
                <polygon id="Fill-44" fill="#D9E4F0" points="110 186 127 186 127 185 110 185"></polygon>
                <polygon id="Fill-45" fill="#D9E4F0" points="110 189 137 189 137 188 110 188"></polygon>
                <polygon id="Fill-46" fill="#D9E4F0" points="110 194 127 194 127 193 110 193"></polygon>
                <polygon id="Fill-47" fill="#D9E4F0" points="110 197 137 197 137 196 110 196"></polygon>
                <polygon id="Fill-48" fill="#D9E4F0" points="110 203 127 203 127 202 110 202"></polygon>
                <polygon id="Fill-49" fill="#D9E4F0" points="110 206 137 206 137 205 110 205"></polygon>
                <polygon id="Fill-50" fill="#D9E4F0" points="110 211 127 211 127 210 110 210"></polygon>
                <polygon id="Fill-51" fill="#D9E4F0" points="110 214 137 214 137 213 110 213"></polygon>
                <polygon id="Fill-52" fill="#363C75" points="157 196.898689 157 196.898689 158.072041 197.542685 160.5 199 160.5 199 164 196.898689 160.5 191 160.5 191 160.5 191"></polygon>
                <polygon id="Fill-53" fill="#363C75" points="164 197 160.498954 199.096592 157 197 160.498954 202 160.498954 202"></polygon>
                <path d="M224.003622,196.329419 L225.143161,196.329419 C225.736259,196.329419 226.117171,196.361383 226.305709,196.427267 C226.501917,196.497717 226.654026,196.61122 226.758841,196.765166 C226.863656,196.917808 226.917341,197.105675 226.917341,197.322244 C226.917341,197.577952 226.847678,197.786693 226.709629,197.944553 C226.573498,198.099804 226.397103,198.198304 226.183639,198.238095 C226.053899,198.265492 225.761184,198.279191 225.292714,198.279191 L224.003622,198.279191 L224.003622,196.329419 Z M224.003622,193.778865 L224.847252,193.778865 C225.455049,193.778865 225.813592,193.78604 225.94461,193.801044 C226.184278,193.830398 226.369621,193.919113 226.496165,194.065232 C226.621432,194.210046 226.684704,194.398565 226.684704,194.625571 C226.684704,194.864971 226.611206,195.061318 226.465488,195.209393 C226.322965,195.35486 226.128036,195.443575 225.885173,195.472929 C225.757989,195.487932 225.443545,195.49576 224.94951,195.49576 L224.003622,195.49576 L224.003622,193.778865 Z M223.116532,200 L223.933958,200 L223.933958,199.125897 L224.823605,199.125897 L224.823605,200 L225.641031,200 L225.641031,199.118069 L225.752876,199.11546 C226.128675,199.107632 226.383042,199.096543 226.50703,199.082844 C226.824031,199.047619 227.092458,198.951729 227.304644,198.799739 C227.51683,198.648402 227.687473,198.440965 227.81274,198.182648 C227.937367,197.923679 228,197.654273 228,197.382909 C228,197.041096 227.904133,196.739726 227.714955,196.48728 C227.524499,196.233529 227.247124,196.051533 226.890499,195.945858 L226.592671,195.857795 L226.87516,195.727332 C227.125053,195.611872 227.325735,195.436399 227.471453,195.205479 C227.617171,194.975864 227.691308,194.718852 227.691308,194.441618 C227.691308,194.186562 227.63187,193.953686 227.514274,193.750815 C227.394759,193.543379 227.243928,193.375734 227.066255,193.251794 C226.887942,193.127854 226.682787,193.04501 226.455262,193.005871 C226.290371,192.977169 226.053899,192.958904 225.752237,192.950424 L225.641031,192.947162 L225.641031,192 L224.823605,192 L224.823605,192.944553 L223.933958,192.944553 L223.933958,192 L223.116532,192 L223.116532,192.944553 L222,192.944553 L222,193.778213 L222.963144,193.778213 L222.963144,198.291585 L222,198.291585 L222,199.125897 L223.116532,199.125897 L223.116532,200 Z" id="Fill-54" fill="#363C75"></path>
                <polygon id="Fill-55" fill="#03ADFF" points="152 211 197 211 197 210 152 210"></polygon>
                <polygon id="Fill-56" fill="#03ADFF" points="152 213 197 213 197 212 152 212"></polygon>
                <polygon id="Fill-57" fill="#03ADFF" points="217 211 262 211 262 210 217 210"></polygon>
                <polygon id="Fill-58" fill="#03ADFF" points="217 213 262 213 262 212 217 212"></polygon>
                <polygon id="Fill-59" fill="#00F37B" points="184 202 180 202 182 200"></polygon>
                <polygon id="Fill-60" fill="#00F37B" points="241 193 237 193 239 191"></polygon>
                <path d="M172.672515,201.00184 C172.672515,200.583732 172.438596,200.248804 172.00135,200.248804 C171.561404,200.248804 171.327485,200.583732 171.327485,201.00184 C171.327485,201.416268 171.561404,201.748252 172.00135,201.748252 C172.438596,201.748252 172.672515,201.416268 172.672515,201.00184 M171,201.00184 C171,200.449761 171.358974,200 172.00135,200 C172.645524,200 173,200.449761 173,201.00184 C173,201.547295 172.645524,202 172.00135,202 C171.358974,202 171,201.547295 171,201.00184" id="Fill-61" fill="#000000"></path>
                <path d="M173,202.225 C173,202.1 173.1,202 173.225,202 C173.351,202 173.455,202.1 173.455,202.225 C173.455,202.351 173.351,202.451 173.225,202.451 C173.1,202.451 173,202.351 173,202.225" id="Fill-62" fill="#000000"></path>
                <path d="M174.672515,201.00184 C174.672515,200.583732 174.438596,200.248804 174.00135,200.248804 C173.561404,200.248804 173.327485,200.583732 173.327485,201.00184 C173.327485,201.416268 173.561404,201.748252 174.00135,201.748252 C174.438596,201.748252 174.672515,201.416268 174.672515,201.00184 M173,201.00184 C173,200.449761 173.358974,200 174.00135,200 C174.645524,200 175,200.449761 175,201.00184 C175,201.547295 174.645524,202 174.00135,202 C173.358974,202 173,201.547295 173,201.00184" id="Fill-63" fill="#000000"></path>
                <polygon id="Fill-64" fill="#000000" points="175 200 176 200 176 200.19 175.348877 202 175.1019 202 175.745538 200.25 175 200.25"></polygon>
                <path d="M177.326425,201.516908 C177.326425,201.681159 177.406138,201.803047 177.54723,201.803047 C177.689119,201.803047 177.761658,201.681159 177.761658,201.516908 C177.761658,201.342995 177.689119,201.223337 177.54723,201.223337 C177.406138,201.223337 177.326425,201.342995 177.326425,201.516908 Z M178,201.516908 C178,201.768116 177.834197,202 177.54723,202 C177.26106,202 177.095257,201.768116 177.095257,201.516908 C177.095257,201.256039 177.26106,201.0301 177.54723,201.0301 C177.834197,201.0301 178,201.256039 178,201.516908 Z M176.235153,200.483092 C176.235153,200.650316 176.310881,200.772947 176.455959,200.772947 C176.594659,200.772947 176.670387,200.650316 176.670387,200.483092 C176.670387,200.312152 176.594659,200.193237 176.455959,200.193237 C176.310881,200.193237 176.235153,200.312152 176.235153,200.483092 Z M177.955361,200.04162 L176.307692,201.973987 L176.020725,201.973987 L177.665205,200.04162 L177.955361,200.04162 Z M176.904743,200.483092 C176.904743,200.737272 176.742925,200.969156 176.455959,200.969156 C176.165803,200.969156 176,200.737272 176,200.483092 C176,200.225195 176.165803,200 176.455959,200 C176.742925,200 176.904743,200.225195 176.904743,200.483092 Z" id="Fill-65" fill="#000000"></path>
                <polygon id="Fill-66" fill="#FFC605" points="171 195 193 195 193 189 171 189"></polygon>
                <polygon id="Fill-67" fill="#00F37B" points="251 202 247 202 249 200"></polygon>
                <path d="M239.672515,201.00184 C239.672515,200.583732 239.438596,200.248804 239.00135,200.248804 C238.561404,200.248804 238.327485,200.583732 238.327485,201.00184 C238.327485,201.416268 238.561404,201.748252 239.00135,201.748252 C239.438596,201.748252 239.672515,201.416268 239.672515,201.00184 M238,201.00184 C238,200.449761 238.358974,200 239.00135,200 C239.645524,200 240,200.449761 240,201.00184 C240,201.547295 239.645524,202 239.00135,202 C238.358974,202 238,201.547295 238,201.00184" id="Fill-68" fill="#000000"></path>
                <path d="M240,202.225 C240,202.1 240.1,202 240.225,202 C240.351,202 240.455,202.1 240.455,202.225 C240.455,202.351 240.351,202.451 240.225,202.451 C240.1,202.451 240,202.351 240,202.225" id="Fill-69" fill="#000000"></path>
                <path d="M241.672515,201.00184 C241.672515,200.583732 241.438596,200.248804 241.00135,200.248804 C240.561404,200.248804 240.327485,200.583732 240.327485,201.00184 C240.327485,201.416268 240.561404,201.748252 241.00135,201.748252 C241.438596,201.748252 241.672515,201.416268 241.672515,201.00184 M240,201.00184 C240,200.449761 240.358974,200 241.00135,200 C241.645524,200 242,200.449761 242,201.00184 C242,201.547295 241.645524,202 241.00135,202 C240.358974,202 240,201.547295 240,201.00184" id="Fill-70" fill="#000000"></path>
                <polygon id="Fill-71" fill="#000000" points="242 200 242.94 200 242.94 202 242.581 202 242.581 200.25 242 200.25"></polygon>
                <path d="M244.326425,201.516908 C244.326425,201.681159 244.406138,201.803047 244.54723,201.803047 C244.689119,201.803047 244.761658,201.681159 244.761658,201.516908 C244.761658,201.342995 244.689119,201.223337 244.54723,201.223337 C244.406138,201.223337 244.326425,201.342995 244.326425,201.516908 Z M245,201.516908 C245,201.768116 244.834197,202 244.54723,202 C244.26106,202 244.095257,201.768116 244.095257,201.516908 C244.095257,201.256039 244.26106,201.0301 244.54723,201.0301 C244.834197,201.0301 245,201.256039 245,201.516908 Z M243.235153,200.483092 C243.235153,200.650316 243.310881,200.772947 243.455959,200.772947 C243.594659,200.772947 243.670387,200.650316 243.670387,200.483092 C243.670387,200.312152 243.594659,200.193237 243.455959,200.193237 C243.310881,200.193237 243.235153,200.312152 243.235153,200.483092 Z M244.955361,200.04162 L243.307692,201.973987 L243.020725,201.973987 L244.665205,200.04162 L244.955361,200.04162 Z M243.904743,200.483092 C243.904743,200.737272 243.742925,200.969156 243.455959,200.969156 C243.165803,200.969156 243,200.737272 243,200.483092 C243,200.225195 243.165803,200 243.455959,200 C243.742925,200 243.904743,200.225195 243.904743,200.483092 Z" id="Fill-72" fill="#000000"></path>
                <polygon id="Fill-73" fill="#006BFF" points="237 195 259 195 259 189 237 189"></polygon>
                <path d="M374,132.499738 C374,132.775853 373.775853,133 373.499738,133 C373.223622,133 373,132.775853 373,132.499738 C373,132.223622 373.223622,132 373.499738,132 C373.775853,132 374,132.223622 374,132.499738" id="Fill-74" fill="#DEE8EE"></path>
                <path d="M356.074615,134 C352.299948,134 348.638434,132.648769 345.766272,130.195452 C345.396326,129.880278 344.930845,129.706014 344.455201,129.706014 L322.54506,129.706014 C322.068738,129.706014 321.605967,129.877555 321.242119,130.188645 C318.367925,132.646047 314.704378,134 310.925646,134 C306.703115,134 302.729924,132.368993 299.737835,129.407177 C296.745069,126.445362 295.062696,122.478121 295.001716,118.23655 C294.940736,114.009956 296.506569,110.000511 299.410576,106.948159 C302.305096,103.906018 306.200368,102.152481 310.379536,102.010211 L310.420867,102.00953 L355.914712,102 C364.754112,102 371.96941,109.152333 371.9999,117.943841 C372.014806,122.228297 370.364956,126.259525 367.355251,129.294178 C364.345546,132.328831 360.338477,134 356.074615,134" id="Fill-75" fill="#FFFFFF"></path>
                <path d="M355.573501,101 L355.572819,101 L309.756797,101.009406 L309.715857,101.009406 L309.674916,101.01075 C305.143466,101.161246 300.919754,103.024305 297.782334,106.25661 C294.633314,109.500336 292.936323,113.760582 293.001828,118.251275 C293.068015,122.756748 294.891922,126.97198 298.137835,130.11963 C301.382383,133.267281 305.689342,135 310.265826,135 C314.362623,135 318.33455,133.562226 321.450817,130.950045 C321.595474,130.829111 321.779025,130.762597 321.967352,130.762597 L344.032326,130.762597 C344.220653,130.762597 344.406933,130.831799 344.557732,130.957436 C347.671952,133.564241 351.641832,135 355.733852,135 C360.357419,135 364.700541,133.224282 367.964195,130.00004 C371.227167,126.775797 373.015592,122.492708 372.999898,117.940205 C372.967145,108.599376 365.149524,101 355.573501,101 M355.573501,103.417342 C363.758906,103.417342 370.516164,109.888669 370.544822,117.948939 C370.572798,126.026677 363.931539,132.58333 355.733852,132.58333 C352.07785,132.58333 348.730951,131.277912 346.147594,129.115876 C345.556002,128.621389 344.808152,128.345256 344.032326,128.345256 L321.967352,128.345256 C321.194938,128.345256 320.447771,128.616686 319.85959,129.109829 C317.275551,131.275896 313.925922,132.58333 310.265826,132.58333 C310.265826,132.58333 310.266509,132.58333 310.265826,132.58333 C302.145927,132.58333 295.574267,126.210766 295.456903,118.216338 C295.33954,110.231316 301.740614,103.692803 309.75748,103.426748 L355.573501,103.417342" id="Fill-76" fill="#D9E4F0"></path>
                <path d="M317,117.5 C317,121.089631 314.090141,124 310.499671,124 C306.909859,124 304,121.089631 304,117.5 C304,113.910369 306.909859,111 310.499671,111 C314.090141,111 317,113.910369 317,117.5" id="Fill-77" fill="#03ADFF"></path>
                <path d="M315.685334,116.245651 L312.753642,116.245651 L312.753642,113.314666 C312.753642,113.140716 312.613633,113 312.439683,113 L309.55961,113 C309.386367,113 309.245651,113.140716 309.245651,113.314666 L309.245651,116.245651 L306.313958,116.245651 C306.140716,116.245651 306,116.386367 306,116.560317 L306,119.44039 C306,119.613633 306.140716,119.754349 306.313958,119.754349 L309.245651,119.754349 L309.245651,122.685334 C309.245651,122.859284 309.386367,123 309.55961,123 L312.439683,123 C312.613633,123 312.753642,122.859284 312.753642,122.685334 L312.753642,119.754349 L315.685334,119.754349 C315.859284,119.754349 316,119.613633 316,119.44039 L316,116.560317 C316,116.386367 315.859284,116.245651 315.685334,116.245651" id="Fill-78" fill="#D9E4F0"></path>
                <path d="M353,118 C353,119.104536 352.104536,120 351,120 C349.895464,120 349,119.104536 349,118 C349,116.895464 349.895464,116 351,116 C352.104536,116 353,116.895464 353,118" id="Fill-79" fill="#006BFF"></path>
                <path d="M364,118 C364,119.104536 363.104536,120 362,120 C360.895464,120 360,119.104536 360,118 C360,116.895464 360.895464,116 362,116 C363.104536,116 364,116.895464 364,118" id="Fill-80" fill="#006BFF"></path>
                <path d="M356,121 C357.104536,121 358,121.895464 358,123 C358,124.104536 357.104536,125 356,125 C354.895464,125 354,124.104536 354,123 C354,121.895464 354.895464,121 356,121" id="Fill-81" fill="#006BFF"></path>
                <path d="M356,110 C357.104536,110 358,110.895464 358,112 C358,113.104536 357.104536,114 356,114 C354.895464,114 354,113.104536 354,112 C354,110.895464 354.895464,110 356,110" id="Fill-82" fill="#006BFF"></path>
                <polygon id="Fill-83" fill="#363C75" points="326 125 331 125 331 124 326 124"></polygon>
                <polygon id="Fill-84" fill="#363C75" points="334 125 341 125 341 124 334 124"></polygon>
                <path d="M328,111 C328,112.104345 327.104498,113 326.000342,113 C324.895502,113 324,112.104345 324,111 C324,109.894971 324.895502,109 326.000342,109 C327.104498,109 328,109.894971 328,111" id="Fill-85" fill="#363C75"></path>
                <path d="M325.5,110.264537 C324.818937,110.264537 324.264375,110.81853 324.264375,111.500319 C324.264375,112.18147 324.818937,112.736102 325.5,112.736102 C326.181063,112.736102 326.735625,112.18147 326.735625,111.500319 C326.735625,110.81853 326.181063,110.264537 325.5,110.264537 M325.5,114 C324.121262,114 323,112.878594 323,111.500319 C323,110.121406 324.121262,109 325.5,109 C326.878099,109 328,110.121406 328,111.500319 C328,112.878594 326.878099,114 325.5,114" id="Fill-86" fill="#FFFFFF"></path>
                <path d="M335,111 C335,112.104345 334.104345,113 333,113 C331.894971,113 331,112.104345 331,111 C331,109.894971 331.894971,109 333,109 C334.104345,109 335,109.894971 335,111" id="Fill-87" fill="#363C75"></path>
                <path d="M332.5,110.264537 C331.818937,110.264537 331.264375,110.81853 331.264375,111.500319 C331.264375,112.18147 331.818937,112.736102 332.5,112.736102 C333.181063,112.736102 333.735625,112.18147 333.735625,111.500319 C333.735625,110.81853 333.181063,110.264537 332.5,110.264537 M332.5,114 C331.121262,114 330,112.878594 330,111.500319 C330,110.121406 331.121262,109 332.5,109 C333.878099,109 335,110.121406 335,111.500319 C335,112.878594 333.878099,114 332.5,114" id="Fill-88" fill="#FFFFFF"></path>
                <path d="M342,111 C342,112.104345 341.104498,113 340.000342,113 C338.895502,113 338,112.104345 338,111 C338,109.894971 338.895502,109 340.000342,109 C341.104498,109 342,109.894971 342,111" id="Fill-89" fill="#363C75"></path>
                <path d="M340.5,110.264537 C339.818937,110.264537 339.264375,110.81853 339.264375,111.500319 C339.264375,112.18147 339.818937,112.736102 340.5,112.736102 C341.181063,112.736102 341.735625,112.18147 341.735625,111.500319 C341.735625,110.81853 341.181063,110.264537 340.5,110.264537 M340.5,114 C339.121901,114 338,112.878594 338,111.500319 C338,110.121406 339.121901,109 340.5,109 C341.878738,109 343,110.121406 343,111.500319 C343,112.878594 341.878738,114 340.5,114" id="Fill-90" fill="#FFFFFF"></path>
                <path d="M185,70 C185,74.9708112 180.970811,79 176,79 C171.029871,79 167,74.9708112 167,70 C167,65.0291888 171.029871,61 176,61 C180.970811,61 185,65.0291888 185,70" id="Fill-91" fill="#FFC605"></path>
                <path d="M185,70 C185,74.9708112 180.970811,79 176,79 C171.029871,79 167,74.9708112 167,70 C167,65.0291888 171.029871,61 176,61 C180.970811,61 185,65.0291888 185,70 Z" id="Stroke-92" stroke="#363C75" stroke-width="2"></path>
                <polygon id="Fill-93" fill="#363C75" points="174 68.797864 174.499937 69.3574368 176.147416 67.5134378 176.147416 74 176.852584 74 176.852584 67.5134378 178.500063 69.3574368 179 68.797864 176.499687 66"></polygon>
                <polygon id="Fill-94" fill="#363C75" points="137 140.896814 137.999859 141.876039 141.295008 138.648892 141.295008 150 142.704992 150 142.704992 138.648892 146.000141 141.876039 147 140.896814 142 136"></polygon>
                <g id="Page-1" transform="translate(107.000000, 134.000000)">
                    <g id="Group-3">
                        <mask id="mask-4" fill="white">
                            <use xlink:href="#path-3"></use>
                        </mask>
                        <g id="Clip-2"></g>
                        <path d="M6.44707013,15.8120922 C3.39026494,16.0807614 0.840342857,13.5655223 1.11307013,10.5509089 C1.32205714,8.24016889 3.20901818,6.37954212 5.55205714,6.17373655 C8.60839481,5.9053747 11.1580831,8.419999 10.8856675,11.4344588 C10.6769143,13.7452756 8.79010909,15.6061329 6.44707013,15.8120922 M3.71488831,4.23994813 C4.39413506,3.24611782 5.07899221,2.4037598 5.58556364,1.81831291 C5.80281039,1.56724241 6.19577143,1.56724241 6.41301818,1.81831291 C6.91966753,2.4037598 7.60452468,3.24611782 8.28384935,4.23994813 C8.51753766,4.58193273 8.76003117,4.95611768 8.99886234,5.35481792 C9.12587532,5.56692523 8.89429091,5.81061807 8.67096623,5.70033765 C7.86618701,5.30302071 6.95901818,5.07877103 5.99932987,5.07877103 C5.03964156,5.07877103 4.13255065,5.30302071 3.32769351,5.70033765 C3.10436883,5.81061807 2.87278442,5.56692523 2.99987532,5.35481792 C3.23870649,4.95611768 3.48112208,4.58193273 3.71488831,4.23994813 M6.38894026,0.18393392 C6.17512208,-0.0314011028 5.82353766,-0.0314011028 5.6097974,0.18393392 C5.55275844,0.241418073 4.19652468,1.61481286 2.8219013,3.62268514 C1.04075844,6.22422731 0.0975896104,8.59598658 0.0112519481,10.6801714 C0.00571948052,10.7837658 0.00275844156,10.8879751 0.00275844156,10.9929528 C0.00275844156,14.5628878 3.22647273,17.4042034 6.95371948,16.8339729 C9.30899221,16.4736211 11.2744987,14.803814 11.8219013,12.5160523 C13.1305247,7.04645051 6.64086234,0.437847879 6.38894026,0.18393392" id="Fill-1" fill="#56DD9E" mask="url(#mask-4)"></path>
                    </g>
                    <path d="M6.23567469,13.8764353 C4.45945743,14.0181692 2.98199693,12.5407133 3.12349234,10.7645811 C3.23488912,9.36706946 4.36709126,8.23487082 5.76468688,8.12347439 C7.54050601,7.98197942 9.01772763,9.45887796 8.87655073,11.2347712 C8.76547245,12.6324421 7.63334993,13.7648796 6.23567469,13.8764353 M6.43410269,7.02304643 C3.88845935,6.75335399 1.75328807,8.88867791 2.02306097,11.4343134 C2.21957794,13.2891954 3.71073411,14.7803469 5.5657015,14.9769429 C8.11150409,15.246715 10.2469143,13.1111522 9.97690247,10.5654371 C9.78030587,8.7105551 8.28899045,7.21948317 6.43410269,7.02304643" id="Fill-4" fill="#56DD9E"></path>
                    <path d="M6.15857838,11.7946705 C5.58898979,11.9032927 5.09655425,11.4108777 5.20543618,10.8412278 C5.26625694,10.5228465 5.52298012,10.266134 5.84137469,10.2053158 C6.41104835,10.0966085 6.90348389,10.5892787 6.79468702,11.1588435 C6.73378119,11.4772248 6.47697295,11.7339373 6.15857838,11.7946705 M6.26057012,9.01659584 C4.95424217,8.85055782 3.85062174,9.95421728 4.01658162,11.2605758 C4.12963168,12.1510738 4.8487628,12.8701749 5.73921282,12.9833904 C7.04588103,13.1495135 8.14958652,12.0456839 7.98337145,10.7391552 C7.87015126,9.84874231 7.15110521,9.12972625 6.26057012,9.01659584" id="Fill-6" fill="#56DD9E"></path>
                </g>
                <polygon id="Fill-95" fill="#D9E4F0" points="301 197.896814 302.000566 198.876039 305.295008 195.648892 305.295008 207 306.704992 207 306.704992 195.648892 310.000141 198.876039 311 197.896814 306 193"></polygon>
                <polygon id="Fill-96" fill="#00F37B" points="335 173.896814 335.999859 174.876039 339.295008 171.648892 339.295008 183 340.704992 183 340.704992 171.648892 344.000141 174.876039 345 173.896814 340 169"></polygon>
                <polygon id="Fill-97" fill="#D9E4F0" points="301 72.8968144 302.000566 73.8760388 305.295008 70.648892 305.295008 82 306.704992 82 306.704992 70.648892 310.000141 73.8760388 311 72.8968144 306 68"></polygon>
                <polygon id="Fill-98" fill="#D9E4F0" points="142 31.8968144 142.999859 32.8760388 146.295008 29.648892 146.295008 41 147.704992 41 147.704992 29.648892 151.000141 32.8760388 152 31.8968144 147 27"></polygon>
                <path d="M67.4520406,128.099044 C66.8897265,127.089197 66.2088153,126.158987 65.429073,125.326482 L69.311426,125.326482 C70.2240788,126.124857 71.0208609,127.059082 71.6745084,128.099044 L67.4520406,128.099044 Z M73.3450925,132.216061 L68.9679032,132.216061 C68.775694,131.251052 68.4853354,130.323518 68.1097778,129.441491 L72.4119919,129.441491 C72.823674,130.314818 73.1378883,131.244359 73.3450925,132.216061 Z M73.6320431,134.92304 C73.6320431,135.399522 73.6040978,135.869312 73.5536599,136.332409 L69.179197,136.332409 C69.2187293,135.898088 69.2412219,135.459082 69.2412219,135.014723 C69.2412219,134.522849 69.216003,134.036998 69.1676099,133.557839 L73.5591127,133.557839 C73.6061426,134.006883 73.6320431,134.46195 73.6320431,134.92304 Z M72.3901809,140.449426 L68.1711211,140.449426 C68.5350917,139.5674 68.8104552,138.637859 68.9917589,137.674857 L73.3348686,137.674857 C73.1235749,138.646558 72.805271,139.576769 72.3901809,140.449426 Z M69.2589433,144.565774 L65.5572125,144.565774 C66.3192333,143.730593 66.9837864,142.799713 67.5304238,141.791874 L71.6465631,141.791874 C70.9860996,142.833174 70.1804569,143.768738 69.2589433,144.565774 Z M61.7525611,147.495602 C62.606597,147.051912 63.4095134,146.519216 64.14836,145.908222 L67.3716127,145.908222 C65.700347,146.873231 63.788479,147.442065 61.7525611,147.495602 Z M55.6209518,147.656883 C48.8643217,147.656883 43.3672753,141.985946 43.3672753,135.015392 C43.3672753,128.044168 48.8643217,122.373901 55.6209518,122.373901 C62.3782634,122.373901 67.8753098,128.044168 67.8753098,135.015392 C67.8753098,141.985946 62.3775818,147.656883 55.6209518,147.656883 Z M61.4376652,122.341778 C63.6228519,122.341778 65.6744465,122.940727 67.4499959,123.984034 L63.9772802,123.984034 C63.1743638,123.341587 62.3005618,122.788815 61.3695059,122.341778 L61.4376652,122.341778 Z M61.4376652,121 L56.1750867,121 L56.1750867,121.046176 C55.9910567,121.038145 55.8070266,121.031453 55.6209518,121.031453 C48.11048,121.031453 42,127.305354 42,135.016061 C42,142.726099 48.11048,149 55.6209518,149 C56.301863,149 56.9705056,148.946463 57.6241532,148.847419 L61.4376652,148.847419 C68.9154205,148.84608 75,142.600287 75,134.92304 C75,127.245793 68.9154205,121 61.4376652,121 Z" id="Fill-99" fill="#D9E4F0"></path>
                <path d="M56,143.625581 C51.787436,143.625581 48.3598976,139.980563 48.3598976,135.500343 C48.3598976,131.020122 51.787436,127.375104 56,127.375104 C60.212564,127.375104 63.6401024,131.019437 63.6401024,135.500343 C63.6401024,139.981248 60.212564,143.625581 56,143.625581 M56,126 C51.036984,126 47,130.261657 47,135.500343 C47,140.738343 51.036984,145 56,145 C60.963016,145 65,140.738343 65,135.500343 C65,130.261657 60.9623381,126 56,126" id="Fill-100" fill="#D9E4F0"></path>
                <path d="M47.3813897,118.096495 C45.9861376,118.682786 44.8196153,119.71362 44.0966903,120.998004 L43.9996534,121.170364 L43.9026165,120.998004 C43.1796916,119.71362 42.0131693,118.682786 40.6186103,118.096495 L40.3884942,118 L40.6186103,117.902839 C42.0131693,117.316548 43.1796916,116.285714 43.9026165,115.001331 L43.9996534,114.828971 L44.0966903,115.001331 C44.8196153,116.285714 45.9861376,117.316548 47.3813897,117.902839 L47.6115058,118 L47.3813897,118.096495 Z M50,117.090284 C47.1436493,117.035714 44.829319,114.8689 44.7094091,112.113132 C44.7101022,112.073869 44.7121816,112.043256 44.714261,112.012644 C44.7149541,112.007986 44.7149541,112.003993 44.7156472,112 L43.2843528,112 C43.2843528,112.004658 43.2850459,112.008651 43.285739,112.012644 C43.2878184,112.043922 43.2898978,112.073869 43.291284,112.105812 C43.170681,114.869565 40.8563507,117.035714 38,117.090284 L38,118.909051 C40.8563507,118.962955 43.170681,121.129769 43.291284,123.886202 L43.291284,123.890195 L43.291284,123.894188 C43.2905909,123.926131 43.2878184,123.956744 43.285739,123.987356 C43.2850459,123.992014 43.2850459,123.996007 43.2843528,124 L44.7156472,124 C44.7156472,123.995342 44.7149541,123.991349 44.714261,123.987356 C44.7121816,123.956744 44.7101022,123.926131 44.7094091,123.894188 C44.829319,121.129769 47.1436493,118.96362 50,118.909051 L50,117.090284 Z" id="Fill-101" fill="#D9E4F0"></path>
                <path d="M38.0003518,128.787436 C37.5395304,128.011584 36.831765,127.382515 35.9896227,126.999662 C36.831765,126.616809 37.5388268,125.98774 38.0003518,125.211888 C38.4618767,125.988416 39.1696421,126.617485 40.0110808,126.999662 C39.1696421,127.382515 38.4618767,128.011584 38.0003518,128.787436 M38.5878111,123.196838 C38.5878111,123.177898 38.5892182,123.158958 38.5906253,123.140695 C38.5927359,123.112285 38.5948465,123.084552 38.5948465,123.056143 L38.5800721,123 L37.405857,123 L37.405857,123.056143 C37.405857,123.084552 37.4072641,123.112285 37.4093747,123.140695 C37.4107818,123.158958 37.4121889,123.177898 37.4128924,123.192779 C37.3369097,124.928469 35.8629848,126.28807 34.0583942,126.28807 L34,126.28807 L34,127.711254 L34.0583942,127.711254 C35.8629848,127.711254 37.3362061,129.070178 37.413596,130.805192 C37.4128924,130.822778 37.4114854,130.841042 37.4100783,130.858629 C37.4079676,130.887038 37.405857,130.914771 37.405857,130.943857 L37.4199279,131 L38.594143,131 L38.594143,130.943857 C38.594143,130.914771 38.5927359,130.887038 38.5899217,130.858629 C38.5892182,130.840365 38.5878111,130.822102 38.586404,130.807221 C38.6623868,129.070855 40.1363117,127.711254 41.9416058,127.711254 L42,127.711254 L42,126.28807 L41.9416058,126.28807 C40.1370152,126.28807 38.6637939,124.928469 38.5878111,123.196838" id="Fill-102" fill="#D9E4F0"></path>
                <path d="M133,78.497972 C127.762803,78.5263645 123.528459,82.7669893 123.528459,88 L123.525071,88 C123.525071,82.7500889 119.262268,78.497972 114,78.497972 C119.262268,78.497972 123.525071,74.245179 123.525071,69 L123.528459,69 C123.528459,74.2289547 127.762803,78.4689034 133,78.497972" id="Fill-103" fill="#D9E4F0"></path>
                <path d="M229,9.49797196 C223.762803,9.52636448 219.528459,13.7669893 219.528459,19 L219.525071,19 C219.525071,13.7500889 215.262268,9.49797196 210,9.49797196 C215.262268,9.49797196 219.525071,5.24585498 219.525071,0 L219.528459,0 C219.528459,5.22895467 223.762803,9.46890344 229,9.49797196" id="Fill-104" fill="#FFC605"></path>
                <path d="M248,47.49831 C242.762803,47.5267015 238.528459,51.7664994 238.528459,57 L238.525071,57 C238.525071,51.7502757 234.262268,47.49831 229,47.49831 C234.262268,47.49831 238.525071,43.2456683 238.525071,38 L238.528459,38 C238.528459,43.2294446 242.762803,47.4692425 248,47.49831" id="Fill-105" fill="#03ADFF"></path>
                <path d="M15,119.498342 C10.8647966,119.520888 7.52260037,122.86822 7.52260037,127 L7.51927679,127 C7.51927679,122.854958 4.15448019,119.498342 0,119.498342 C4.15448019,119.498342 7.51927679,116.141727 7.51927679,112 L7.52260037,112 C7.52260037,116.128465 10.8647966,119.475797 15,119.498342" id="Fill-106" fill="#03ADFF"></path>
                <path d="M332,222.497972 C326.762803,222.526364 322.529137,226.766989 322.529137,232 L322.525071,232 C322.525071,226.750765 318.262946,222.497972 313,222.497972 C318.262946,222.497972 322.525071,218.245855 322.525071,213 L322.529137,213 C322.529137,218.228955 326.762803,222.468903 332,222.497972" id="Fill-107" fill="#00F37B"></path>
                <path d="M48,27.497972 C42.7628031,27.5263645 38.5284593,31.7669893 38.5284593,37 L38.5250713,37 C38.5250713,31.7500889 34.2622682,27.497972 29,27.497972 C34.2622682,27.497972 38.5250713,23.245855 38.5250713,18 L38.5284593,18 C38.5284593,23.2289547 42.7628031,27.4689034 48,27.497972" id="Fill-108" fill="#D9E4F0"></path>
                <path d="M366,51.497972 C360.762803,51.5263645 356.528459,55.7669893 356.528459,61 L356.525071,61 C356.525071,55.7500889 352.262268,51.497972 347,51.497972 C352.262268,51.497972 356.525071,47.245179 356.525071,42 L356.528459,42 C356.528459,47.2289547 360.762803,51.4689034 366,51.497972" id="Fill-109" fill="#FFC605"></path>
                <path d="M114.210379,19.350137 C121.749068,22.7802033 125.07991,31.672106 121.649875,39.2108634 C118.21984,46.7496208 109.328017,50.0798088 101.789327,46.6497426 C94.2506372,43.2196764 90.9204791,34.3277736 94.3498305,26.7897003 C97.7798659,19.2509429 106.671689,15.9200708 114.210379,19.350137" id="Fill-110" fill="#D9E4F0"></path>
                <path d="M108,34 L108.327402,19 C111.355032,19.0677587 114.290853,20.0766107 116.735233,21.8889852 C119.180288,23.7020442 121.018468,26.2330717 122,29.1377989 L108,34 Z" id="Fill-111" fill="#00F37B"></path>
                <path d="M108,33.1475043 L122.149446,28 C122.712604,29.6540751 123,31.3944251 123,33.1475043 C123,35.5236019 122.471739,37.8685839 121.454906,40 L108,33.1475043 Z" id="Fill-112" fill="#363C75"></path>
                <path d="M76.1327041,66.212276 C76.1327041,67.4492252 76.5467792,68.0157562 77.3491801,68.0157562 C78.1515811,68.0157562 78.5663521,67.4492252 78.5663521,66.212276 C78.5663521,64.9497013 78.1515811,64.3831703 77.3491801,64.3831703 C76.5467792,64.3831703 76.1327041,64.9497013 76.1327041,66.212276 Z M81,66.212276 C81,68.1965198 79.6533861,70 77.3491801,70 C75.0714193,70 73.6990562,68.1965198 73.6990562,66.212276 C73.6990562,64.2024067 75.0714193,62.424552 77.3491801,62.424552 C79.6533861,62.424552 81,64.2024067 81,66.212276 Z M67.4336479,57.7870314 C67.4336479,59.0239806 67.8484189,59.5905116 68.6508199,59.5905116 C69.4532208,59.5905116 69.8672959,59.0239806 69.8672959,57.7870314 C69.8672959,56.5244568 69.4532208,55.9579257 68.6508199,55.9579257 C67.8484189,55.9579257 67.4336479,56.5244568 67.4336479,57.7870314 Z M80.585229,54.3345165 L68.2360489,69.7936109 L65.285329,69.7936109 L77.6860076,54.3345165 L80.585229,54.3345165 Z M72.3009438,57.7870314 C72.3009438,59.7712752 70.9550259,61.5747554 68.6508199,61.5747554 C66.3723631,61.5747554 65,59.7712752 65,57.7870314 C65,55.7778547 66.3723631,54 68.6508199,54 C70.9550259,54 72.3009438,55.7778547 72.3009438,57.7870314 Z" id="Fill-113" fill="#363C75"></path>
                <polygon id="Fill-114" fill="#D9E4F0" points="215 93 219 93 219 75 215 75"></polygon>
                <polygon id="Fill-115" fill="#00F37B" points="219 93 223 93 223 71 219 71"></polygon>
                <polygon id="Fill-116" fill="#D9E4F0" points="232 93 236 93 236 83 232 83"></polygon>
                <polygon id="Fill-117" fill="#00F37B" points="236 93 240 93 240 79 236 79"></polygon>
                <polygon id="Fill-118" fill="#D9E4F0" points="248 93 252 93 252 84 248 84"></polygon>
                <polygon id="Fill-119" fill="#00F37B" points="253 93 257 93 257 71 253 71"></polygon>
                <polygon id="Fill-120" fill="#D9E4F0" points="265 93 269 93 269 66 265 66"></polygon>
                <polygon id="Fill-121" fill="#00F37B" points="270 93 274 93 274 59 270 59"></polygon>
                <path d="M65.6664808,215.279637 L65.6664808,218.91065 C66.9778305,218.735 67.5550753,218.057101 67.5550753,217.13837 C67.5550753,216.32942 67.1332962,215.826485 65.6664808,215.279637 Z M64.3551311,212.545399 L64.3551311,209.308912 C63.2222532,209.46192 62.5327663,210.008767 62.5327663,210.905542 C62.5327663,211.626668 62.9998606,212.06442 64.3551311,212.545399 Z M61.1998048,217.685218 C61.1998048,217.685218 62.4665365,218.713044 64.3551311,218.93192 L64.3551311,214.863841 C61.4884272,213.989022 60.1108477,213.005108 60.1108477,210.992681 C60.1108477,208.893116 61.5999721,207.471449 64.3551311,207.274529 L64.3551311,205 L65.6664808,205 L65.6664808,207.274529 C68.4885666,207.449493 69.6444506,208.587101 69.6444506,208.587101 L68.4446458,210.358695 C68.4446458,210.358695 67.4226157,209.48319 65.6664808,209.308912 L65.6664808,212.961195 C68.7555772,213.836014 70,214.994892 70,216.985363 C70,219.085614 68.5778026,220.725471 65.6664808,220.944347 L65.6664808,223 L64.3551311,223 L64.3551311,220.944347 C61.3998885,220.747427 60,219.32576 60,219.32576 L61.1998048,217.685218 Z" id="Fill-122" fill="#006BFF"></path>
            </g>
        </g>
    </g>
</svg>