<?xml version="1.0" encoding="UTF-8"?>
<svg width="252px" height="136px" viewBox="0 0 252 136" version="1.1" xmlns="http://www.w3.org/2000/svg" xmlns:xlink="http://www.w3.org/1999/xlink">
    <!-- Generator: Sketch 48.1 (47250) - http://www.bohemiancoding.com/sketch -->
    <title>illustration/laptop</title>
    <desc>Created with Sketch.</desc>
    <defs>
        <polygon id="path-1" points="0.00275844156 0.0224326528 11.9959481 0.0224326528 11.9959481 16.9071038 0.00275844156 16.9071038"></polygon>
    </defs>
    <g id="Symbols" stroke="none" stroke-width="1" fill="none" fill-rule="evenodd">
        <g id="illustration/laptop">
            <g id="Page-1">
                <path d="M226,125 L27,125 L27,10.6657068 C27,4.77534628 31.7969251,0 37.7154212,0 L215.283899,0 C221.202395,0 226,4.77534628 226,10.6657068 L226,125 Z" id="Fill-20" fill="#E1E6E9"></path>
                <polygon id="Fill-22" fill="#FFFFFF" points="33 116 218 116 218 11 33 11"></polygon>
                <polygon id="Fill-24" fill="#006BFF" points="33 59 218 59 218 11 33 11"></polygon>
                <polygon id="Fill-25" fill="#FFFFFF" points="42 49 66 49 66 22 42 22"></polygon>
                <polygon id="Fill-25-Copy" fill="#FFFFFF" points="71 49 95 49 95 22 71 22"></polygon>
                <polygon id="Fill-25-Copy-2" fill="#FFFFFF" points="100 33 154 33 154 22 100 22"></polygon>
                <polygon id="Fill-25-Copy-3" fill="#FFFFFF" points="100 48 154 48 154 37 100 37"></polygon>
                <polygon id="Fill-26" fill="#D9E4F0" points="153 111 207 111 207 77 153 77"></polygon>
                <polygon id="Fill-27" fill="#D9E4F0" points="89 111 143 111 143 77 89 77"></polygon>
                <path d="M106.712909,82 L94.2877605,82 C93.5769488,82 93,82.5762795 93,83.2877605 L93,95.7129088 C93,96.4237205 93.5769488,97 94.2877605,97 L106.712909,97 C107.42372,97 108,96.4237205 108,95.7129088 L108,83.2877605 C108,82.5762795 107.42372,82 106.712909,82" id="Fill-28" fill="#FFFFFF"></path>
                <path d="M171.712909,82 L159.28776,82 C158.576949,82 158,82.5762795 158,83.2877605 L158,95.7129088 C158,96.4237205 158.576949,97 159.28776,97 L171.712909,97 C172.42372,97 173,96.4237205 173,95.7129088 L173,83.2877605 C173,82.5762795 172.42372,82 171.712909,82" id="Fill-29" fill="#FFFFFF"></path>
                <polygon id="Fill-30" fill="#AFC5D8" points="0 131 252 131 252 125 0 125"></polygon>
                <path d="M252,131 C252,133.761765 238.701725,136 235.453778,136 L21.2838846,136 C18.0359376,136 0,133.761765 0,131 L252,131 Z" id="Fill-31" fill="#006BFF"></path>
                <path d="M148.602013,128 L102.397987,128 C100.769481,128 98,126.656675 98,125 L153,125 C153,126.656675 150.230519,128 148.602013,128" id="Fill-32" fill="#03ADFF"></path>
                <path d="M127,5.5 C127,6.32849604 126.328496,7 125.5,7 C124.671504,7 124,6.32849604 124,5.5 C124,4.67150396 124.671504,4 125.5,4 C126.328496,4 127,4.67150396 127,5.5" id="Fill-33" fill="#1C2351"></path>
                <path d="M49,80.5 C49,82.4329815 47.4329815,84 45.5,84 C43.5670185,84 42,82.4329815 42,80.5 C42,78.5670185 43.5670185,77 45.5,77 C47.4329815,77 49,78.5670185 49,80.5" id="Fill-39" fill="#03ADFF"></path>
                <path d="M194,28 C194,24.6860313 196.686538,22 199.999674,22 C203.313462,22 206,24.6860313 206,28 C206,31.3139687 203.313462,34 199.999674,34 C196.686538,34 194,31.3139687 194,28" id="Fill-40" fill="#D9E4F0"></path>
                <path d="M49,88.5 C49,90.4329815 47.4329815,92 45.5,92 C43.5670185,92 42,90.4329815 42,88.5 C42,86.5670185 43.5670185,85 45.5,85 C47.4329815,85 49,86.5670185 49,88.5" id="Fill-41" fill="#FFC605"></path>
                <path d="M49,97.5 C49,99.4329815 47.4329815,101 45.5,101 C43.5670185,101 42,99.4329815 42,97.5 C42,95.5670185 43.5670185,94 45.5,94 C47.4329815,94 49,95.5670185 49,97.5" id="Fill-42" fill="#363C75"></path>
                <path d="M49,105.5 C49,107.432981 47.4329815,109 45.5,109 C43.5670185,109 42,107.432981 42,105.5 C42,103.567019 43.5670185,102 45.5,102 C47.4329815,102 49,103.567019 49,105.5" id="Fill-43" fill="#00F37B"></path>
                <polygon id="Fill-44" fill="#D9E4F0" points="51 79 68 79 68 78 51 78"></polygon>
                <polygon id="Fill-45" fill="#D9E4F0" points="51 82 78 82 78 81 51 81"></polygon>
                <polygon id="Fill-46" fill="#D9E4F0" points="51 87 68 87 68 86 51 86"></polygon>
                <polygon id="Fill-47" fill="#D9E4F0" points="51 90 78 90 78 89 51 89"></polygon>
                <polygon id="Fill-48" fill="#D9E4F0" points="51 96 68 96 68 95 51 95"></polygon>
                <polygon id="Fill-49" fill="#D9E4F0" points="51 99 78 99 78 98 51 98"></polygon>
                <polygon id="Fill-50" fill="#D9E4F0" points="51 104 68 104 68 103 51 103"></polygon>
                <polygon id="Fill-51" fill="#D9E4F0" points="51 107 78 107 78 106 51 106"></polygon>
                <polygon id="Fill-52" fill="#363C75" points="98 89.8986893 98 89.8986893 99.0720407 90.5426851 101.5 92 101.5 92 105 89.8986893 101.5 84 101.5 84 101.5 84"></polygon>
                <polygon id="Fill-53" fill="#363C75" points="105 90 101.498954 92.0965917 98 90 101.498954 95 101.498954 95"></polygon>
                <path d="M165.003622,89.3294194 L166.143161,89.3294194 C166.736259,89.3294194 167.117171,89.3613829 167.305709,89.4272668 C167.501917,89.4977169 167.654026,89.6112198 167.758841,89.7651663 C167.863656,89.9178082 167.917341,90.1056751 167.917341,90.322244 C167.917341,90.5779517 167.847678,90.7866928 167.709629,90.9445532 C167.573498,91.0998043 167.397103,91.198304 167.183639,91.2380952 C167.053899,91.2654925 166.761184,91.2791911 166.292714,91.2791911 L165.003622,91.2791911 L165.003622,89.3294194 Z M165.003622,86.778865 L165.847252,86.778865 C166.455049,86.778865 166.813592,86.7860404 166.94461,86.8010437 C167.184278,86.8303979 167.369621,86.9191129 167.496165,87.0652316 C167.621432,87.2100457 167.684704,87.3985649 167.684704,87.6255708 C167.684704,87.8649706 167.611206,88.0613177 167.465488,88.2093933 C167.322965,88.3548598 167.128036,88.4435747 166.885173,88.4729289 C166.757989,88.4879322 166.443545,88.4957599 165.94951,88.4957599 L165.003622,88.4957599 L165.003622,86.778865 Z M164.116532,93 L164.933958,93 L164.933958,92.1258969 L165.823605,92.1258969 L165.823605,93 L166.641031,93 L166.641031,92.1180691 L166.752876,92.1154599 C167.128675,92.1076321 167.383042,92.0965427 167.50703,92.0828441 C167.824031,92.047619 168.092458,91.9517286 168.304644,91.7997391 C168.51683,91.6484018 168.687473,91.4409654 168.81274,91.1826484 C168.937367,90.9236791 169,90.6542727 169,90.3829093 C169,90.0410959 168.904133,89.739726 168.714955,89.4872798 C168.524499,89.233529 168.247124,89.0515329 167.890499,88.9458578 L167.592671,88.8577952 L167.87516,88.727332 C168.125053,88.6118721 168.325735,88.4363992 168.471453,88.2054795 C168.617171,87.9758643 168.691308,87.7188519 168.691308,87.4416177 C168.691308,87.1865623 168.63187,86.9536856 168.514274,86.7508154 C168.394759,86.543379 168.243928,86.3757339 168.066255,86.2517939 C167.887942,86.1278539 167.682787,86.0450098 167.455262,86.0058708 C167.290371,85.9771689 167.053899,85.9589041 166.752237,85.950424 L166.641031,85.9471624 L166.641031,85 L165.823605,85 L165.823605,85.9445532 L164.933958,85.9445532 L164.933958,85 L164.116532,85 L164.116532,85.9445532 L163,85.9445532 L163,86.7782127 L163.963144,86.7782127 L163.963144,91.2915851 L163,91.2915851 L163,92.1258969 L164.116532,92.1258969 L164.116532,93 Z" id="Fill-54" fill="#363C75"></path>
                <polygon id="Fill-55" fill="#03ADFF" points="93 104 138 104 138 103 93 103"></polygon>
                <polygon id="Fill-56" fill="#03ADFF" points="93 106 138 106 138 105 93 105"></polygon>
                <polygon id="Fill-57" fill="#03ADFF" points="158 104 203 104 203 103 158 103"></polygon>
                <polygon id="Fill-58" fill="#03ADFF" points="158 106 203 106 203 105 158 105"></polygon>
                <polygon id="Fill-59" fill="#00F37B" points="125 95 121 95 123 93"></polygon>
                <polygon id="Fill-60" fill="#00F37B" points="182 86 178 86 180 84"></polygon>
                <path d="M113.672515,94.0018403 C113.672515,93.5837321 113.438596,93.2488038 113.00135,93.2488038 C112.561404,93.2488038 112.327485,93.5837321 112.327485,94.0018403 C112.327485,94.4162679 112.561404,94.7482517 113.00135,94.7482517 C113.438596,94.7482517 113.672515,94.4162679 113.672515,94.0018403 M112,94.0018403 C112,93.4497608 112.358974,93 113.00135,93 C113.645524,93 114,93.4497608 114,94.0018403 C114,94.5472948 113.645524,95 113.00135,95 C112.358974,95 112,94.5472948 112,94.0018403" id="Fill-61" fill="#000000"></path>
                <path d="M114,95.225 C114,95.1 114.1,95 114.225,95 C114.351,95 114.455,95.1 114.455,95.225 C114.455,95.351 114.351,95.451 114.225,95.451 C114.1,95.451 114,95.351 114,95.225" id="Fill-62" fill="#000000"></path>
                <path d="M115.672515,94.0018403 C115.672515,93.5837321 115.438596,93.2488038 115.00135,93.2488038 C114.561404,93.2488038 114.327485,93.5837321 114.327485,94.0018403 C114.327485,94.4162679 114.561404,94.7482517 115.00135,94.7482517 C115.438596,94.7482517 115.672515,94.4162679 115.672515,94.0018403 M114,94.0018403 C114,93.4497608 114.358974,93 115.00135,93 C115.645524,93 116,93.4497608 116,94.0018403 C116,94.5472948 115.645524,95 115.00135,95 C114.358974,95 114,94.5472948 114,94.0018403" id="Fill-63" fill="#000000"></path>
                <polygon id="Fill-64" fill="#000000" points="116 93 117 93 117 93.19 116.348877 95 116.1019 95 116.745538 93.25 116 93.25"></polygon>
                <path d="M118.326425,94.5169082 C118.326425,94.6811594 118.406138,94.8030472 118.54723,94.8030472 C118.689119,94.8030472 118.761658,94.6811594 118.761658,94.5169082 C118.761658,94.3429952 118.689119,94.223337 118.54723,94.223337 C118.406138,94.223337 118.326425,94.3429952 118.326425,94.5169082 Z M119,94.5169082 C119,94.7681159 118.834197,95 118.54723,95 C118.26106,95 118.095257,94.7681159 118.095257,94.5169082 C118.095257,94.2560386 118.26106,94.0301003 118.54723,94.0301003 C118.834197,94.0301003 119,94.2560386 119,94.5169082 Z M117.235153,93.4830918 C117.235153,93.6503159 117.310881,93.7729469 117.455959,93.7729469 C117.594659,93.7729469 117.670387,93.6503159 117.670387,93.4830918 C117.670387,93.3121516 117.594659,93.1932367 117.455959,93.1932367 C117.310881,93.1932367 117.235153,93.3121516 117.235153,93.4830918 Z M118.955361,93.0416202 L117.307692,94.9739874 L117.020725,94.9739874 L118.665205,93.0416202 L118.955361,93.0416202 Z M117.904743,93.4830918 C117.904743,93.7372724 117.742925,93.9691564 117.455959,93.9691564 C117.165803,93.9691564 117,93.7372724 117,93.4830918 C117,93.2251951 117.165803,93 117.455959,93 C117.742925,93 117.904743,93.2251951 117.904743,93.4830918 Z" id="Fill-65" fill="#000000"></path>
                <polygon id="Fill-66" fill="#FFC605" points="112 88 134 88 134 82 112 82"></polygon>
                <polygon id="Fill-67" fill="#00F37B" points="192 95 188 95 190 93"></polygon>
                <path d="M180.672515,94.0018403 C180.672515,93.5837321 180.438596,93.2488038 180.00135,93.2488038 C179.561404,93.2488038 179.327485,93.5837321 179.327485,94.0018403 C179.327485,94.4162679 179.561404,94.7482517 180.00135,94.7482517 C180.438596,94.7482517 180.672515,94.4162679 180.672515,94.0018403 M179,94.0018403 C179,93.4497608 179.358974,93 180.00135,93 C180.645524,93 181,93.4497608 181,94.0018403 C181,94.5472948 180.645524,95 180.00135,95 C179.358974,95 179,94.5472948 179,94.0018403" id="Fill-68" fill="#000000"></path>
                <path d="M181,95.225 C181,95.1 181.1,95 181.225,95 C181.351,95 181.455,95.1 181.455,95.225 C181.455,95.351 181.351,95.451 181.225,95.451 C181.1,95.451 181,95.351 181,95.225" id="Fill-69" fill="#000000"></path>
                <path d="M182.672515,94.0018403 C182.672515,93.5837321 182.438596,93.2488038 182.00135,93.2488038 C181.561404,93.2488038 181.327485,93.5837321 181.327485,94.0018403 C181.327485,94.4162679 181.561404,94.7482517 182.00135,94.7482517 C182.438596,94.7482517 182.672515,94.4162679 182.672515,94.0018403 M181,94.0018403 C181,93.4497608 181.358974,93 182.00135,93 C182.645524,93 183,93.4497608 183,94.0018403 C183,94.5472948 182.645524,95 182.00135,95 C181.358974,95 181,94.5472948 181,94.0018403" id="Fill-70" fill="#000000"></path>
                <polygon id="Fill-71" fill="#000000" points="183 93 183.94 93 183.94 95 183.581 95 183.581 93.25 183 93.25"></polygon>
                <path d="M185.326425,94.5169082 C185.326425,94.6811594 185.406138,94.8030472 185.54723,94.8030472 C185.689119,94.8030472 185.761658,94.6811594 185.761658,94.5169082 C185.761658,94.3429952 185.689119,94.223337 185.54723,94.223337 C185.406138,94.223337 185.326425,94.3429952 185.326425,94.5169082 Z M186,94.5169082 C186,94.7681159 185.834197,95 185.54723,95 C185.26106,95 185.095257,94.7681159 185.095257,94.5169082 C185.095257,94.2560386 185.26106,94.0301003 185.54723,94.0301003 C185.834197,94.0301003 186,94.2560386 186,94.5169082 Z M184.235153,93.4830918 C184.235153,93.6503159 184.310881,93.7729469 184.455959,93.7729469 C184.594659,93.7729469 184.670387,93.6503159 184.670387,93.4830918 C184.670387,93.3121516 184.594659,93.1932367 184.455959,93.1932367 C184.310881,93.1932367 184.235153,93.3121516 184.235153,93.4830918 Z M185.955361,93.0416202 L184.307692,94.9739874 L184.020725,94.9739874 L185.665205,93.0416202 L185.955361,93.0416202 Z M184.904743,93.4830918 C184.904743,93.7372724 184.742925,93.9691564 184.455959,93.9691564 C184.165803,93.9691564 184,93.7372724 184,93.4830918 C184,93.2251951 184.165803,93 184.455959,93 C184.742925,93 184.904743,93.2251951 184.904743,93.4830918 Z" id="Fill-72" fill="#000000"></path>
                <polygon id="Fill-73" fill="#006BFF" points="178 88 200 88 200 82 178 82"></polygon>
                <polygon id="Fill-94" fill="#363C75" points="78 33.8968144 78.9998586 34.8760388 82.2950078 31.648892 82.2950078 43 83.7049922 43 83.7049922 31.648892 87.0001414 34.8760388 88 33.8968144 83 29"></polygon>
                <g transform="translate(48.000000, 27.000000)">
                    <g id="Group-3">
                        <mask id="mask-2" fill="white">
                            <use xlink:href="#path-1"></use>
                        </mask>
                        <g id="Clip-2"></g>
                        <path d="M6.44707013,15.8120922 C3.39026494,16.0807614 0.840342857,13.5655223 1.11307013,10.5509089 C1.32205714,8.24016889 3.20901818,6.37954212 5.55205714,6.17373655 C8.60839481,5.9053747 11.1580831,8.419999 10.8856675,11.4344588 C10.6769143,13.7452756 8.79010909,15.6061329 6.44707013,15.8120922 M3.71488831,4.23994813 C4.39413506,3.24611782 5.07899221,2.4037598 5.58556364,1.81831291 C5.80281039,1.56724241 6.19577143,1.56724241 6.41301818,1.81831291 C6.91966753,2.4037598 7.60452468,3.24611782 8.28384935,4.23994813 C8.51753766,4.58193273 8.76003117,4.95611768 8.99886234,5.35481792 C9.12587532,5.56692523 8.89429091,5.81061807 8.67096623,5.70033765 C7.86618701,5.30302071 6.95901818,5.07877103 5.99932987,5.07877103 C5.03964156,5.07877103 4.13255065,5.30302071 3.32769351,5.70033765 C3.10436883,5.81061807 2.87278442,5.56692523 2.99987532,5.35481792 C3.23870649,4.95611768 3.48112208,4.58193273 3.71488831,4.23994813 M6.38894026,0.18393392 C6.17512208,-0.0314011028 5.82353766,-0.0314011028 5.6097974,0.18393392 C5.55275844,0.241418073 4.19652468,1.61481286 2.8219013,3.62268514 C1.04075844,6.22422731 0.0975896104,8.59598658 0.0112519481,10.6801714 C0.00571948052,10.7837658 0.00275844156,10.8879751 0.00275844156,10.9929528 C0.00275844156,14.5628878 3.22647273,17.4042034 6.95371948,16.8339729 C9.30899221,16.4736211 11.2744987,14.803814 11.8219013,12.5160523 C13.1305247,7.04645051 6.64086234,0.437847879 6.38894026,0.18393392" id="Fill-1" fill="#56DD9E" mask="url(#mask-2)"></path>
                    </g>
                    <path d="M6.23567469,13.8764353 C4.45945743,14.0181692 2.98199693,12.5407133 3.12349234,10.7645811 C3.23488912,9.36706946 4.36709126,8.23487082 5.76468688,8.12347439 C7.54050601,7.98197942 9.01772763,9.45887796 8.87655073,11.2347712 C8.76547245,12.6324421 7.63334993,13.7648796 6.23567469,13.8764353 M6.43410269,7.02304643 C3.88845935,6.75335399 1.75328807,8.88867791 2.02306097,11.4343134 C2.21957794,13.2891954 3.71073411,14.7803469 5.5657015,14.9769429 C8.11150409,15.246715 10.2469143,13.1111522 9.97690247,10.5654371 C9.78030587,8.7105551 8.28899045,7.21948317 6.43410269,7.02304643" id="Fill-4" fill="#56DD9E"></path>
                    <path d="M6.15857838,11.7946705 C5.58898979,11.9032927 5.09655425,11.4108777 5.20543618,10.8412278 C5.26625694,10.5228465 5.52298012,10.266134 5.84137469,10.2053158 C6.41104835,10.0966085 6.90348389,10.5892787 6.79468702,11.1588435 C6.73378119,11.4772248 6.47697295,11.7339373 6.15857838,11.7946705 M6.26057012,9.01659584 C4.95424217,8.85055782 3.85062174,9.95421728 4.01658162,11.2605758 C4.12963168,12.1510738 4.8487628,12.8701749 5.73921282,12.9833904 C7.04588103,13.1495135 8.14958652,12.0456839 7.98337145,10.7391552 C7.87015126,9.84874231 7.15110521,9.12972625 6.26057012,9.01659584" id="Fill-6" fill="#56DD9E"></path>
                </g>
            </g>
        </g>
    </g>
</svg>