<?xml version="1.0" encoding="UTF-8"?>
<svg width="160px" height="145px" viewBox="0 0 160 145" version="1.1" xmlns="http://www.w3.org/2000/svg" xmlns:xlink="http://www.w3.org/1999/xlink">
    <!-- Generator: Sketch 48.1 (47250) - http://www.bohemiancoding.com/sketch -->
    <title>illustartion/server</title>
    <desc>Created with Sketch.</desc>
    <defs></defs>
    <g id="Symbols" stroke="none" stroke-width="1" fill="none" fill-rule="evenodd">
        <g id="illustartion/server">
            <g>
                <path d="M86.9,135.5002 L35.555,135.5002 C33.357,135.5002 31.574,133.7182 31.574,131.5192 L31.574,101.9412" id="Stroke-1" stroke="#363C75" stroke-width="2" stroke-dasharray="2,4"></path>
                <path d="M43.3096,83.0509 C43.3096,89.5319 38.0556,94.7859 31.5746,94.7859 C25.0936,94.7859 19.8396,89.5319 19.8396,83.0509 C19.8396,76.5699 25.0936,71.3159 31.5746,71.3159 C38.0556,71.3159 43.3096,76.5699 43.3096,83.0509" id="Fill-3" fill="#00F37B"></path>
                <path d="M155.3438,144.5002 L96.3648,144.5002 C94.0318,144.5002 92.1418,142.6092 92.1418,140.2772 L92.1418,9.4342 C92.1418,7.1022 94.0318,5.2112 96.3648,5.2112 L155.3438,5.2112 C157.6768,5.2112 159.5668,7.1022 159.5668,9.4342 L159.5668,140.2772 C159.5668,142.6092 157.6768,144.5002 155.3438,144.5002" id="Fill-5" fill="#D9E4F0"></path>
                <path d="M48.9322,72.716 C48.1072,71.207 47.1082,69.817 45.9642,68.573 L51.6602,68.573 C52.9992,69.766 54.1682,71.163 55.1272,72.716 L48.9322,72.716 Z M57.5782,78.868 L51.1562,78.868 C50.8742,77.426 50.4482,76.04 49.8972,74.722 L56.2092,74.722 C56.8132,76.027 57.2742,77.416 57.5782,78.868 Z M57.9992,82.913 C57.9992,83.625 57.9582,84.327 57.8842,85.019 L51.4662,85.019 C51.5242,84.371 51.5572,83.715 51.5572,83.05 C51.5572,82.315 51.5202,81.589 51.4492,80.873 L57.8922,80.873 C57.9622,81.544 57.9992,82.224 57.9992,82.913 Z M56.1772,91.171 L49.9882,91.171 C50.5212,89.853 50.9252,88.464 51.1922,87.026 L57.5632,87.026 C57.2532,88.478 56.7862,89.867 56.1772,91.171 Z M51.5842,97.322 L46.1522,97.322 C47.2702,96.074 48.2452,94.683 49.0472,93.177 L55.0872,93.177 C54.1172,94.734 52.9362,96.131 51.5842,97.322 Z M40.5712,101.7 C41.8232,101.037 43.0012,100.241 44.0852,99.328 L48.8152,99.328 C46.3632,100.77 43.5572,101.62 40.5712,101.7 Z M31.5742,101.941 C21.6612,101.941 13.5962,93.467 13.5962,83.051 C13.5962,72.635 21.6612,64.161 31.5742,64.161 C41.4882,64.161 49.5532,72.635 49.5532,83.051 C49.5532,93.467 41.4872,101.941 31.5742,101.941 Z M40.1082,64.113 C43.3142,64.113 46.3242,65.008 48.9302,66.567 L43.8342,66.567 C42.6562,65.607 41.3742,64.781 40.0082,64.113 L40.1082,64.113 Z M40.1082,62.108 L32.3872,62.108 L32.3872,62.177 C32.1172,62.166 31.8472,62.156 31.5742,62.156 C20.5552,62.156 11.5902,71.53 11.5902,83.052 C11.5902,94.574 20.5552,103.948 31.5742,103.948 C32.5732,103.948 33.5542,103.869 34.5132,103.72 L40.1082,103.72 C51.0792,103.718 60.0062,94.385 60.0062,82.913 C60.0062,71.441 51.0792,62.108 40.1082,62.108 Z" id="Fill-7" fill="#363C75"></path>
                <path d="M31.5743,94.9103 C25.3603,94.9103 20.3043,89.5903 20.3043,83.0513 C20.3043,76.5113 25.3603,71.1913 31.5743,71.1913 C37.7883,71.1913 42.8443,76.5113 42.8443,83.0513 C42.8443,89.5913 37.7883,94.9103 31.5743,94.9103 M31.5743,69.1853 C24.2543,69.1853 18.2983,75.4053 18.2983,83.0513 C18.2983,90.6963 24.2543,96.9163 31.5743,96.9163 C38.8953,96.9163 44.8503,90.6963 44.8503,83.0513 C44.8503,75.4053 38.8943,69.1853 31.5743,69.1853" id="Fill-9" fill="#363C75"></path>
                <path d="M19.4888,57.7526 C17.4758,58.6336 15.7928,60.1816 14.7498,62.1126 L14.6098,62.3716 L14.4688,62.1126 C13.4258,60.1816 11.7438,58.6336 9.7308,57.7526 L9.3988,57.6066 L9.7308,57.4616 C11.7428,56.5806 13.4268,55.0316 14.4688,53.1016 L14.6098,52.8426 L14.7498,53.1016 C15.7928,55.0316 17.4758,56.5806 19.4888,57.4616 L19.8208,57.6066 L19.4888,57.7526 Z M23.2668,56.2406 C19.1458,56.1586 15.8068,52.9026 15.6328,48.7616 C15.6348,48.7026 15.6378,48.6566 15.6408,48.6106 C15.6418,48.6036 15.6418,48.5976 15.6418,48.5916 L13.5778,48.5916 C13.5778,48.5986 13.5788,48.6046 13.5788,48.6106 C13.5828,48.6566 13.5858,48.7026 13.5878,48.7506 C13.4128,52.9036 10.0738,56.1586 5.9528,56.2406 L5.9528,58.9736 C10.0738,59.0546 13.4128,62.3106 13.5878,66.4526 L13.5878,66.4586 L13.5878,66.4646 C13.5858,66.5126 13.5828,66.5576 13.5788,66.6046 C13.5788,66.6116 13.5788,66.6176 13.5778,66.6236 L15.6418,66.6236 C15.6418,66.6166 15.6418,66.6106 15.6408,66.6046 C15.6378,66.5576 15.6348,66.5126 15.6328,66.4646 C15.8068,62.3106 19.1458,59.0556 23.2668,58.9736 L23.2668,56.2406 Z" id="Fill-11" fill="#363C75"></path>
                <path d="M5.6861,73.4875 C5.0301,72.3405 4.0251,71.4105 2.8281,70.8445 C4.0241,70.2785 5.0301,69.3485 5.6861,68.2015 C6.3421,69.3495 7.3471,70.2795 8.5441,70.8445 C7.3481,71.4095 6.3421,72.3405 5.6861,73.4875 M6.5201,65.2215 C6.5211,65.1945 6.5231,65.1665 6.5251,65.1395 C6.5281,65.0975 6.5311,65.0565 6.5311,65.0145 L6.5101,64.9315 L4.8401,64.9315 L4.8401,65.0145 C4.8401,65.0565 4.8431,65.0975 4.8461,65.1395 C4.8481,65.1665 4.8501,65.1945 4.8511,65.2165 C4.7421,67.7825 2.6481,69.7925 0.0821,69.7925 L0.0001,69.7925 L0.0001,71.8965 L0.0831,71.8965 C2.6471,71.8965 4.7421,73.9055 4.8511,76.4705 C4.8511,76.4965 4.8491,76.5235 4.8461,76.5495 C4.8441,76.5915 4.8401,76.6325 4.8401,76.6755 L4.8611,76.7585 L6.5301,76.7585 L6.5301,76.6755 C6.5301,76.6325 6.5271,76.5915 6.5241,76.5495 C6.5221,76.5225 6.5201,76.4955 6.5191,76.4735 C6.6271,73.9065 8.7221,71.8965 11.2871,71.8965 L11.3711,71.8965 L11.3711,69.7925 L11.2871,69.7925 C8.7231,69.7925 6.6281,67.7825 6.5201,65.2215" id="Fill-13" fill="#363C75"></path>
                <path d="M155.3438,144.5002 L91.1228,144.5002 C88.7908,144.5002 86.8998,142.6092 86.8998,140.2772 L86.8998,4.7222 C86.8998,2.3902 88.7908,0.5002 91.1228,0.5002 L155.3438,0.5002 C157.6768,0.5002 159.5668,2.3902 159.5668,4.7222 L159.5668,140.2772 C159.5668,142.6092 157.6768,144.5002 155.3438,144.5002 Z" id="Stroke-15" stroke="#363C75" stroke-width="3"></path>
                <path d="M86.9,29.3 L159.566,29.3" id="Stroke-17" stroke="#363C75" stroke-width="3"></path>
                <path d="M86.9,58.1 L159.566,58.1" id="Stroke-19" stroke="#363C75" stroke-width="3"></path>
                <path d="M86.9,86.9001 L159.566,86.9001" id="Stroke-21" stroke="#363C75" stroke-width="3"></path>
                <path d="M86.9,115.7001 L159.566,115.7001" id="Stroke-23" stroke="#363C75" stroke-width="3"></path>
                <path d="M96.4937,14.9994 L115.0977,14.9994" id="Stroke-25" stroke="#363C75" stroke-width="3" stroke-linecap="round"></path>
                <path d="M122.0284,14.9994 L131.5124,14.9994" id="Stroke-27" stroke="#363C75" stroke-width="3" stroke-linecap="round"></path>
                <path d="M149.9727,14.9994 C149.9727,17.1364 148.2407,18.8684 146.1037,18.8684 C143.9667,18.8684 142.2347,17.1364 142.2347,14.9994 C142.2347,12.8624 143.9667,11.1304 146.1037,11.1304 C148.2407,11.1304 149.9727,12.8624 149.9727,14.9994" id="Fill-29" fill="#00F37B"></path>
                <path d="M149.9727,14.9994 C149.9727,17.1364 148.2407,18.8684 146.1037,18.8684 C143.9667,18.8684 142.2347,17.1364 142.2347,14.9994 C142.2347,12.8624 143.9667,11.1304 146.1037,11.1304 C148.2407,11.1304 149.9727,12.8624 149.9727,14.9994 Z" id="Stroke-31" stroke="#363C75" stroke-width="3"></path>
                <path d="M96.4937,43.7001 L115.0977,43.7001" id="Stroke-33" stroke="#363C75" stroke-width="3" stroke-linecap="round"></path>
                <path d="M122.0284,43.7001 L131.5124,43.7001" id="Stroke-35" stroke="#363C75" stroke-width="3" stroke-linecap="round"></path>
                <path d="M149.9727,43.7001 C149.9727,45.8371 148.2407,47.5691 146.1037,47.5691 C143.9667,47.5691 142.2347,45.8371 142.2347,43.7001 C142.2347,41.5631 143.9667,39.8311 146.1037,39.8311 C148.2407,39.8311 149.9727,41.5631 149.9727,43.7001" id="Fill-37" fill="#00F37B"></path>
                <path d="M149.9727,43.7001 C149.9727,45.8371 148.2407,47.5691 146.1037,47.5691 C143.9667,47.5691 142.2347,45.8371 142.2347,43.7001 C142.2347,41.5631 143.9667,39.8311 146.1037,39.8311 C148.2407,39.8311 149.9727,41.5631 149.9727,43.7001 Z" id="Stroke-39" stroke="#363C75" stroke-width="3"></path>
                <path d="M96.4937,72.4005 L115.0977,72.4005" id="Stroke-41" stroke="#363C75" stroke-width="3" stroke-linecap="round"></path>
                <path d="M122.0284,72.4005 L131.5124,72.4005" id="Stroke-43" stroke="#363C75" stroke-width="3" stroke-linecap="round"></path>
                <path d="M149.9727,72.4005 C149.9727,74.5375 148.2407,76.2695 146.1037,76.2695 C143.9667,76.2695 142.2347,74.5375 142.2347,72.4005 C142.2347,70.2635 143.9667,68.5315 146.1037,68.5315 C148.2407,68.5315 149.9727,70.2635 149.9727,72.4005" id="Fill-45" fill="#00F37B"></path>
                <path d="M149.9727,72.4005 C149.9727,74.5375 148.2407,76.2695 146.1037,76.2695 C143.9667,76.2695 142.2347,74.5375 142.2347,72.4005 C142.2347,70.2635 143.9667,68.5315 146.1037,68.5315 C148.2407,68.5315 149.9727,70.2635 149.9727,72.4005 Z" id="Stroke-47" stroke="#363C75" stroke-width="3"></path>
                <path d="M96.4937,101.1012 L115.0977,101.1012" id="Stroke-49" stroke="#363C75" stroke-width="3" stroke-linecap="round"></path>
                <path d="M122.0284,101.1012 L131.5124,101.1012" id="Stroke-51" stroke="#363C75" stroke-width="3" stroke-linecap="round"></path>
                <path d="M149.9727,101.1012 C149.9727,103.2382 148.2407,104.9702 146.1037,104.9702 C143.9667,104.9702 142.2347,103.2382 142.2347,101.1012 C142.2347,98.9642 143.9667,97.2322 146.1037,97.2322 C148.2407,97.2322 149.9727,98.9642 149.9727,101.1012" id="Fill-53" fill="#00F37B"></path>
                <path d="M149.9727,101.1012 C149.9727,103.2382 148.2407,104.9702 146.1037,104.9702 C143.9667,104.9702 142.2347,103.2382 142.2347,101.1012 C142.2347,98.9642 143.9667,97.2322 146.1037,97.2322 C148.2407,97.2322 149.9727,98.9642 149.9727,101.1012 Z" id="Stroke-55" stroke="#363C75" stroke-width="3"></path>
                <path d="M96.4937,129.8019 L115.0977,129.8019" id="Stroke-57" stroke="#363C75" stroke-width="3" stroke-linecap="round"></path>
                <path d="M122.0284,129.8019 L131.5124,129.8019" id="Stroke-59" stroke="#363C75" stroke-width="3" stroke-linecap="round"></path>
                <path d="M149.9727,129.8019 C149.9727,131.9389 148.2407,133.6709 146.1037,133.6709 C143.9667,133.6709 142.2347,131.9389 142.2347,129.8019 C142.2347,127.6649 143.9667,125.9329 146.1037,125.9329 C148.2407,125.9329 149.9727,127.6649 149.9727,129.8019" id="Fill-61" fill="#00F37B"></path>
                <path d="M149.9727,129.8019 C149.9727,131.9389 148.2407,133.6709 146.1037,133.6709 C143.9667,133.6709 142.2347,131.9389 142.2347,129.8019 C142.2347,127.6649 143.9667,125.9329 146.1037,125.9329 C148.2407,125.9329 149.9727,127.6649 149.9727,129.8019 Z" id="Stroke-63" stroke="#363C75" stroke-width="3"></path>
            </g>
        </g>
    </g>
</svg>