<?xml version="1.0" encoding="UTF-8" standalone="no"?>
<svg
   xmlns:dc="http://purl.org/dc/elements/1.1/"
   xmlns:cc="http://creativecommons.org/ns#"
   xmlns:rdf="http://www.w3.org/1999/02/22-rdf-syntax-ns#"
   xmlns:svg="http://www.w3.org/2000/svg"
   xmlns="http://www.w3.org/2000/svg"
   xmlns:sodipodi="http://sodipodi.sourceforge.net/DTD/sodipodi-0.dtd"
   xmlns:inkscape="http://www.inkscape.org/namespaces/inkscape"
   width="78.401161"
   height="12.471674"
   viewBox="0 0 78.401171 12.471674"
   version="1.1"
   id="svg4281"
   inkscape:version="0.91 r13725"
   sodipodi:docname="white_new.svg">
  <sodipodi:namedview
     pagecolor="#ffffff"
     bordercolor="#666666"
     borderopacity="1"
     objecttolerance="10"
     gridtolerance="10"
     guidetolerance="10"
     inkscape:pageopacity="0"
     inkscape:pageshadow="2"
     inkscape:window-width="1920"
     inkscape:window-height="1015"
     id="namedview4161"
     showgrid="false"
     fit-margin-top="0"
     fit-margin-left="0"
     fit-margin-right="0"
     fit-margin-bottom="0"
     inkscape:zoom="9.372523"
     inkscape:cx="40.938037"
     inkscape:cy="21.00696"
     inkscape:window-x="0"
     inkscape:window-y="36"
     inkscape:window-maximized="1"
     inkscape:current-layer="Symbols" />
  <metadata
     id="metadata4308">
    <rdf:RDF>
      <cc:Work
         rdf:about="">
        <dc:format>image/svg+xml</dc:format>
        <dc:type
           rdf:resource="http://purl.org/dc/dcmitype/StillImage" />
        <dc:title>logo/color</dc:title>
      </cc:Work>
    </rdf:RDF>
  </metadata>
  <!-- Generator: Sketch 48.1 (47250) - http://www.bohemiancoding.com/sketch -->
  <title
     id="title4283">logo/color</title>
  <desc
     id="desc4285">Created with Sketch.</desc>
  <defs
     id="defs4287">
    <polygon
       id="path-1"
       points="0.0046893507,0.039008454 20.393112,0.039008454 20.393112,29.4 0.0046893507,29.4 " />
  </defs>
  <g
     id="Symbols"
     style="fill:none;fill-rule:evenodd;stroke:none;stroke-width:1"
     transform="translate(-23.049097,-44.933274)">
    <g
       id="g4322"
       transform="matrix(0.43731444,0,0,0.43731444,47.742065,44.950119)"
       style="fill:#ffffff">
      <g
         id="g4344"
         transform="translate(0.2486767,0.2486767)"
         style="fill:#ffffff">
        <g
           id="g4469"
           style="fill:#ffffff;fill-opacity:1">
          <path
             id="Fill-4"
             d="m 81.388863,24.461851 c -2.930758,0.244491 -5.368568,-2.304121 -5.135101,-5.367949 0.183805,-2.410707 2.051939,-4.36375 4.357971,-4.555909 2.930102,-0.244078 5.367518,2.303571 5.134576,5.366987 -0.18328,2.410983 -2.051282,4.364437 -4.357446,4.556871 m 0.327406,-11.822096 c -4.200311,-0.465219 -7.723344,3.218214 -7.278218,7.609435 0.324253,3.199672 2.78466,5.771908 5.845356,6.111036 4.200575,0.465357 7.724001,-3.218488 7.278482,-7.609847 -0.324384,-3.199671 -2.785055,-5.77177 -5.84562,-6.110624"
             style="fill:#ffffff;fill-opacity:1"
             inkscape:connector-curvature="0" />
          <path
             id="Fill-6"
             d="m 81.260066,20.860941 c -0.939821,0.179227 -1.752339,-0.633258 -1.572684,-1.57318 0.100354,-0.525329 0.523947,-0.948905 1.049298,-1.049255 0.939962,-0.179367 1.75248,0.633539 1.572966,1.573321 -0.100495,0.525329 -0.524229,0.948904 -1.04958,1.049114 m 0.168287,-4.583823 c -2.155441,-0.273963 -3.976415,1.547076 -3.702581,3.702567 0.186532,1.469322 1.373099,2.655839 2.842341,2.842644 2.156003,0.274103 3.977117,-1.547216 3.702862,-3.702988 -0.186813,-1.469181 -1.373239,-2.655558 -2.842622,-2.842223"
             style="fill:#ffffff;fill-opacity:1"
             inkscape:connector-curvature="0" />
        </g>
      </g>
    </g>
    <g
       id="flowRoot4310"
       style="font-style:normal;font-variant:normal;font-weight:normal;font-stretch:normal;font-size:20px;line-height:125%;font-family:Sansation;-inkscape-font-specification:Sansation;letter-spacing:0px;word-spacing:0px;fill:#ffffff;fill-opacity:1;stroke:none;stroke-width:1px;stroke-linecap:butt;stroke-linejoin:miter;stroke-opacity:1"
       transform="translate(9.0518318,30.835911)" />
    <g
       transform="matrix(0.79589389,0,0,1.2564489,9.0518318,30.835911)"
       style="font-style:normal;font-variant:normal;font-weight:normal;font-stretch:normal;font-size:25.12897682px;line-height:125%;font-family:'Aero Matics Display';-inkscape-font-specification:'Aero Matics Display';letter-spacing:0px;word-spacing:0px;fill:#ffffff;fill-opacity:1;stroke:none;stroke-width:1px;stroke-linecap:butt;stroke-linejoin:miter;stroke-opacity:1"
       id="text4318" />
    <g
       style="font-style:normal;font-variant:normal;font-weight:500;font-stretch:normal;font-size:13.9087429px;line-height:125%;font-family:Texta;-inkscape-font-specification:'Texta Medium';letter-spacing:0px;word-spacing:0px;fill:#ffffff;fill-opacity:1;stroke:none;stroke-width:1px;stroke-linecap:butt;stroke-linejoin:miter;stroke-opacity:1"
       id="text4163">
      <path
         d="m 32.401557,52.897673 q 0,-1.37865 -0.570476,-2.159658 -0.563685,-0.7878 -1.555226,-0.7878 -0.991541,0 -1.562017,0.7878 -0.563684,0.781008 -0.563684,2.159658 0,1.37865 0.563684,2.16645 0.570476,0.781008 1.562017,0.781008 0.991541,0 1.555226,-0.781008 0.570476,-0.7878 0.570476,-2.16645 z m -4.251403,-2.655429 q 0.3939,-0.679138 0.991541,-1.005124 0.604433,-0.332777 1.439772,-0.332777 1.385441,0 2.247946,1.100203 0.869297,1.100203 0.869297,2.893127 0,1.792924 -0.869297,2.893127 -0.862505,1.100204 -2.247946,1.100204 -0.835339,0 -1.439772,-0.325987 -0.597641,-0.332777 -0.991541,-1.011915 l 0,1.140952 -1.256405,0 0,-10.567385 1.256405,0 0,4.115575 z"
         style="fill:#ffffff"
         id="path3405" />
      <path
         d="m 35.77008,46.126669 1.249614,0 0,10.567385 -1.249614,0 0,-10.567385 z"
         style="fill:#ffffff"
         id="path3407" />
      <path
         d="m 42.575041,49.963798 q -1.005124,0 -1.589182,0.7878 -0.584059,0.781008 -0.584059,2.146075 0,1.365067 0.577267,2.152867 0.584059,0.781009 1.595974,0.781009 0.998333,0 1.582391,-0.7878 0.584059,-0.7878 0.584059,-2.146076 0,-1.351484 -0.584059,-2.139284 -0.584058,-0.794591 -1.582391,-0.794591 z m 0,-1.059455 q 1.629931,0 2.56035,1.059455 0.930419,1.059455 0.930419,2.933875 0,1.867629 -0.930419,2.933876 -0.930419,1.059455 -2.56035,1.059455 -1.636722,0 -2.567141,-1.059455 -0.923627,-1.066247 -0.923627,-2.933876 0,-1.87442 0.923627,-2.933875 0.930419,-1.059455 2.567141,-1.059455 z"
         style="fill:#ffffff"
         id="path3409" />
      <path
         d="m 53.60424,49.379739 0,1.168117 q -0.529728,-0.292029 -1.066247,-0.434648 -0.529727,-0.14941 -1.073038,-0.14941 -1.215656,0 -1.888003,0.774217 -0.672346,0.767426 -0.672346,2.159658 0,1.392233 0.672346,2.16645 0.672347,0.767426 1.888003,0.767426 0.543311,0 1.073038,-0.142619 0.536519,-0.149411 1.066247,-0.44144 l 0,1.154534 q -0.522937,0.24449 -1.086621,0.366735 -0.556893,0.122245 -1.188491,0.122245 -1.718219,0 -2.730134,-1.07983 -1.011916,-1.079829 -1.011916,-2.913501 0,-1.860838 1.018707,-2.927084 1.025498,-1.066246 2.804839,-1.066246 0.577267,0 1.127369,0.122244 0.550102,0.115454 1.066247,0.353152 z"
         style="fill:#ffffff"
         id="path3411" />
      <path
         d="m 55.743524,46.126669 1.256405,0 0,6.241277 3.728467,-3.280236 1.595974,0 -4.034079,3.558682 4.203863,4.047662 -1.629931,0 -3.864294,-3.714884 0,3.714884 -1.256405,0 0,-10.567385 z"
         style="fill:#ffffff"
         id="path3413" />
      <path
         d="m 64.049378,46.554526 5.385563,0 0,1.154534 -4.129158,0 0,2.485645 q 0.29882,-0.101871 0.597641,-0.149411 0.29882,-0.05433 0.597641,-0.05433 1.697845,0 2.689386,0.930419 0.991541,0.930419 0.991541,2.519601 0,1.636723 -1.018707,2.546767 -1.018706,0.903254 -2.872753,0.903254 -0.638389,0 -1.303944,-0.108662 -0.658764,-0.108662 -1.365067,-0.325987 l 0,-1.378649 q 0.611224,0.332777 1.263196,0.49577 0.651972,0.162993 1.37865,0.162993 1.174908,0 1.860838,-0.618015 0.685929,-0.618016 0.685929,-1.677471 0,-1.059455 -0.685929,-1.67747 -0.68593,-0.618015 -1.860838,-0.618015 -0.550102,0 -1.100203,0.122244 -0.543311,0.122245 -1.113786,0.380318 l 0,-5.093534 z"
         style="fill:#ffffff"
         id="path3415" />
      <path
         d="m 73.12945,55.539519 2.241155,0 0,-7.73538 -2.438105,0.48898 0,-1.249614 2.424522,-0.488979 1.371859,0 0,8.984993 2.241154,0 0,1.154535 -5.840585,0 0,-1.154535 z"
         style="fill:#ffffff"
         id="path3417" />
    </g>
    <g
       style="font-style:normal;font-variant:normal;font-weight:500;font-stretch:normal;font-size:11.64256287px;line-height:125%;font-family:Texta;-inkscape-font-specification:'Texta Medium';letter-spacing:0px;word-spacing:0px;fill:#ffffff;fill-opacity:1;fill-rule:evenodd;stroke:none;stroke-width:1px;stroke-linecap:butt;stroke-linejoin:miter;stroke-opacity:1"
       id="text4163-3">
      <path
         d="m 87.772674,50.11546 1.046012,0 0,6.367027 -1.046012,0 0,-6.367027 z m 0,-2.478592 1.046012,0 0,1.324569 -1.046012,0 0,-1.324569 z"
         style="fill:#ffffff"
         id="path3420" />
      <path
         d="m 93.468889,50.848805 q -0.841357,0 -1.330254,0.659442 -0.488897,0.653757 -0.488897,1.796411 0,1.142654 0.483212,1.802096 0.488897,0.653757 1.335939,0.653757 0.835672,0 1.324569,-0.659442 0.488896,-0.659442 0.488896,-1.796411 0,-1.131284 -0.488896,-1.790726 -0.488897,-0.665127 -1.324569,-0.665127 z m 0,-0.886836 q 1.364363,0 2.143186,0.886836 0.778824,0.886836 0.778824,2.455853 0,1.563333 -0.778824,2.455853 -0.778823,0.886836 -2.143186,0.886836 -1.370048,0 -2.148872,-0.886836 -0.773139,-0.89252 -0.773139,-2.455853 0,-1.569017 0.773139,-2.455853 0.778824,-0.886836 2.148872,-0.886836 z"
         style="fill:#ffffff"
         id="path3422" />
    </g>
  </g>
</svg>
