<?xml version="1.0" encoding="UTF-8"?>
<svg width="22px" height="22px" viewBox="0 0 22 22" version="1.1" xmlns="http://www.w3.org/2000/svg" xmlns:xlink="http://www.w3.org/1999/xlink">
    <!-- Generator: Sketch 48.1 (47250) - http://www.bohemiancoding.com/sketch -->
    <title>icon/linkedin</title>
    <desc>Created with Sketch.</desc>
    <defs></defs>
    <g id="Symbols" stroke="none" stroke-width="1" fill="none" fill-rule="evenodd">
        <g id="icon/linkedin" fill-rule="nonzero">
            <circle id="linkedin-back" fill="#196DFF" cx="11" cy="11" r="11"></circle>
            <path d="M5.36955616,9.40701781 L8.01738904,9.40701781 L8.01738904,17.9180822 L5.36955616,17.9180822 L5.36955616,9.40701781 Z M6.69422055,5.17617671 C7.54036027,5.17617671 8.22722329,5.86344932 8.22722329,6.71012329 C8.22722329,7.55697534 7.54036027,8.24417671 6.69422055,8.24417671 C5.84467945,8.24417671 5.15965068,7.55697534 5.15965068,6.71012329 C5.15965068,5.86344932 5.84467945,5.17617671 6.69422055,5.17617671 Z" id="Shape" fill="#FFFFFF"></path>
            <path d="M9.67683014,9.40701781 L12.2123288,9.40701781 L12.2123288,10.5705534 L12.2486753,10.5705534 C12.6013671,9.9014274 13.4644781,9.19579452 14.751389,9.19579452 C17.4295849,9.19579452 17.9245288,10.9580959 17.9245288,13.2502096 L17.9245288,17.9180822 L15.2797233,17.9180822 L15.2797233,13.7790781 C15.2797233,12.7921466 15.2626808,11.5224384 13.9051603,11.5224384 C12.5288342,11.5224384 12.3187685,12.5980548 12.3187685,13.7084685 L12.3187685,17.9180822 L9.67683014,17.9180822 L9.67683014,9.40701781 Z" id="Shape" fill="#FFFFFF"></path>
        </g>
    </g>
</svg>