<?xml version="1.0" encoding="UTF-8"?>
<svg width="36px" height="36px" viewBox="0 0 36 36" version="1.1" xmlns="http://www.w3.org/2000/svg" xmlns:xlink="http://www.w3.org/1999/xlink">
    <!-- Generator: Sketch 48.1 (47250) - http://www.bohemiancoding.com/sketch -->
    <title>social/github</title>
    <desc>Created with Sketch.</desc>
    <defs>
        <path d="M11.7394312,22.640625 C11.7169312,22.69125 11.6381812,22.7053125 11.5650562,22.6715625 C11.4919312,22.640625 11.4497437,22.5703125 11.4750562,22.5196875 C11.4975562,22.4690625 11.5763062,22.455 11.6494312,22.48875 C11.7225562,22.5225 11.7619312,22.59 11.7394312,22.640625 M12.1472437,23.09625 C12.0994312,23.14125 12.0038062,23.1215625 11.9419312,23.05125 C11.87415,22.9809375 11.8631812,22.8853125 11.9109937,22.8403125 C11.9616187,22.7953125 12.0516187,22.8178125 12.1191187,22.888125 C12.1838062,22.9584375 12.1978687,23.05125 12.1472437,23.09625 M12.5438062,23.6784375 C12.4819312,23.720625 12.3806812,23.68125 12.3188062,23.59125 C12.2569312,23.50125 12.2569312,23.394375 12.3188062,23.349375 C12.3834937,23.3071875 12.4819312,23.3465625 12.5466187,23.43375 C12.6056812,23.5265625 12.6056812,23.6334375 12.5438062,23.6784375 M13.0894313,24.238125 C13.0331813,24.3 12.9150563,24.283125 12.8278688,24.19875 C12.7406813,24.1171875 12.7153688,24.001875 12.7716188,23.9428125 C12.8278688,23.8809375 12.9459938,23.8978125 13.0331813,23.9821875 C13.1203688,24.0609375 13.1484938,24.1790625 13.0894313,24.238125 M13.8403687,24.564375 C13.8150562,24.643125 13.702275,24.6796875 13.5872437,24.6459375 C13.4747438,24.609375 13.3988062,24.519375 13.421025,24.4378125 C13.4466187,24.3590625 13.5591187,24.3225 13.6744312,24.35625 C13.7897437,24.3928125 13.8628687,24.4828125 13.8403687,24.564375 M14.6644312,24.6234375 C14.6672437,24.7078125 14.5716187,24.7753125 14.4506812,24.778125 C14.3297438,24.7809375 14.2313062,24.7134375 14.2313062,24.631875 C14.2313062,24.5475 14.3269312,24.48 14.4450563,24.4771875 C14.5659937,24.474375 14.6644312,24.541875 14.6644312,24.6234375 M15.4322437,24.4940625 C15.4463062,24.575625 15.3619312,24.6571875 15.2438062,24.6796875 C15.1256812,24.7021875 15.0188062,24.6515625 15.0047437,24.57 C14.9878687,24.4884375 15.0750562,24.4040625 15.1903687,24.384375 C15.3113062,24.361875 15.4181812,24.4125 15.4322437,24.4940625 M21.1919625,27.8128125 C20.6831812,27.91125 20.5000875,27.59625 20.5000875,27.3290625 C20.5000875,26.9971875 20.5113375,25.9115625 20.5113375,24.5615625 C20.5113375,23.6221875 20.1909937,23.0090625 19.8281813,22.696875 C22.0725562,22.4465625 24.4322437,21.594375 24.4322437,17.7215625 C24.4322437,16.621875 24.0382125,15.721875 23.39415,15.0159375 C23.4984938,14.7628125 23.8444312,13.73625 23.2959938,12.3496875 C23.2959938,12.3496875 22.4494312,12.0796875 20.5256812,13.381875 C19.7184938,13.1596875 18.8578688,13.0471875 18.0000563,13.044375 C17.1450562,13.0471875 16.2816187,13.1596875 15.4772437,13.381875 C13.5506813,12.0796875 12.7041187,12.3496875 12.7041187,12.3496875 C12.1554,13.73625 12.5016188,14.7628125 12.6056812,15.0159375 C11.9616187,15.721875 11.5678688,16.621875 11.5678688,17.7215625 C11.5678688,21.5859375 13.9219313,22.449375 16.1606812,22.7025 C15.8738063,22.955625 15.6122437,23.4 15.5194312,24.0525 C14.9456812,24.3084375 13.4859937,24.755625 12.5859938,23.214375 C12.5859938,23.214375 12.0544313,22.246875 11.0419313,22.17375 C11.0419313,22.17375 10.0575562,22.1625 10.9744313,22.786875 C10.9744313,22.786875 11.6353688,23.09625 12.0938063,24.2634375 C12.0938063,24.2634375 12.6844312,26.060625 15.4884937,25.453125 C15.4941187,26.2940625 15.5025562,27.0871875 15.5025562,27.3290625 C15.5025562,27.59625 15.3169312,27.905625 14.8134937,27.8128125 C10.8084938,26.4796875 7.92005625,22.7025 7.92005625,18.2475 C7.92005625,12.6815625 12.4341187,8.1675 18.0000563,8.1675 C23.5659937,8.1675 28.0800562,12.6815625 28.0800562,18.2475 C28.0800562,22.6996875 25.1944313,26.476875 21.1919625,27.8128125 M18.0000563,0 C8.05786875,0 5.625e-05,8.0578125 5.625e-05,18 C5.625e-05,27.9421875 8.05786875,36 18.0000563,36 C27.9419625,36 36.0000563,27.9421875 36.0000563,18 C36.0000563,8.0578125 27.9419625,0 18.0000563,0" id="path-1"></path>
    </defs>
    <g id="Symbols" stroke="none" stroke-width="1" fill="none" fill-rule="evenodd">
        <g id="social/github">
            <mask id="mask-2" fill="white">
                <use xlink:href="#path-1"></use>
            </mask>
            <use id="Fill-1" fill="#061028" xlink:href="#path-1"></use>
        </g>
    </g>
</svg>