<?xml version="1.0" encoding="UTF-8"?>
<svg width="36px" height="36px" viewBox="0 0 36 36" version="1.1" xmlns="http://www.w3.org/2000/svg" xmlns:xlink="http://www.w3.org/1999/xlink">
    <!-- Generator: Sketch 48.1 (47250) - http://www.bohemiancoding.com/sketch -->
    <title>social/medium</title>
    <desc>Created with Sketch.</desc>
    <defs>
        <path d="M19.9963125,24.8982187 C20.106,24.6931875 20.158875,24.51375 20.2741875,24.3945 C20.7064688,23.9459062 21.169125,23.526 21.5985937,23.0754375 C21.7122188,22.9559062 21.8095312,22.7624062 21.8100938,22.602375 C21.8224687,19.7429062 21.8190938,16.8831562 21.8185312,14.02425 C21.8185312,13.993875 21.8100938,13.9643437 21.7949063,13.854375 C21.724875,14.0056875 21.6793125,14.0931562 21.6435938,14.1848437 C20.287125,17.62875 18.9320625,21.0735 17.5761562,24.51825 C17.4301875,24.8900625 17.3174063,24.9623437 16.929,24.870375 C16.84125,24.8498437 16.7535,24.7322812 16.7101875,24.6389062 C15.4884375,21.9875625 14.2725938,19.3339687 13.0553438,16.6806562 C12.661875,15.822 12.2695313,14.9627813 11.8760625,14.1049687 C11.8425938,14.0312812 11.7998438,13.962375 11.7070313,13.901625 L11.7070313,14.2048125 C11.7070313,16.5372187 11.7104063,18.8704687 11.7030938,21.2031562 C11.7025312,21.533625 11.79675,21.8044687 12.0090938,22.0573125 C12.6385312,22.8051562 13.2609375,23.55975 13.8720937,24.3227812 C13.9795313,24.4577812 14.0177812,24.6470625 14.1091875,24.861375 L8.1354375,24.861375 C8.21278125,24.6704062 8.242875,24.4926562 8.341875,24.368625 C8.97328125,23.5808437 9.63309375,22.8152812 10.2524062,22.017375 C10.4045625,21.8213437 10.5167813,21.5341875 10.51875,21.288375 C10.5370313,18.3861562 10.5370313,15.483375 10.5181875,12.5811562 C10.5162188,12.3387187 10.3890938,12.0585937 10.236375,11.8611562 C9.70284375,11.1743438 9.12740625,10.5201562 8.58234375,9.8415 C8.487,9.723375 8.46225,9.547875 8.377875,9.32878125 L10.101375,9.32878125 C11.3484375,9.32878125 12.5955,9.33525 13.8422813,9.32371875 C14.0706562,9.32090625 14.1803438,9.39515625 14.2737188,9.60159375 C15.6285,12.592125 16.9928437,15.5795625 18.3546562,18.5672812 C18.4030312,18.6724688 18.4547813,18.7756875 18.529875,18.9317813 C18.8035312,18.252 19.0589062,17.6172187 19.3137187,16.981875 C20.300625,14.5229062 21.2878125,12.0645 22.2721875,9.604125 C22.3340625,9.4505625 22.3725938,9.3223125 22.593375,9.32371875 C24.280875,9.33384375 25.968375,9.32934375 27.6564375,9.33046875 C27.6977812,9.33046875 27.739125,9.34228125 27.781875,9.34875 C27.8783437,9.56615625 27.8038125,9.71325 27.6429375,9.86034375 C27.1926563,10.27575 26.7429375,10.6922813 26.3199375,11.1344062 C26.1942187,11.26575 26.0929687,11.4831562 26.0924063,11.66175 C26.0794688,15.3059062 26.0794688,18.9500625 26.0915625,22.5942187 C26.0915625,22.764375 26.1824062,22.9719375 26.2999687,23.0979375 C26.7162187,23.5459687 27.1695937,23.96025 27.5934375,24.4026562 C27.7022812,24.5174062 27.752625,24.6886875 27.865125,24.8982187 L19.9963125,24.8982187 Z M18,0 C8.0589375,0 0,8.05865625 0,18 C0,27.9407813 8.0589375,36 18,36 C27.9413437,36 36,27.9407813 36,18 C36,8.05865625 27.9413437,0 18,0 Z" id="path-1"></path>
    </defs>
    <g id="Symbols" stroke="none" stroke-width="1" fill="none" fill-rule="evenodd">
        <g id="social/medium">
            <mask id="mask-2" fill="white">
                <use xlink:href="#path-1"></use>
            </mask>
            <use id="Fill-1" fill="#061028" xlink:href="#path-1"></use>
        </g>
    </g>
</svg>