<?xml version="1.0" encoding="UTF-8"?>
<svg width="36px" height="36px" viewBox="0 0 36 36" version="1.1" xmlns="http://www.w3.org/2000/svg" xmlns:xlink="http://www.w3.org/1999/xlink">
    <!-- Generator: Sketch 48.1 (47250) - http://www.bohemiancoding.com/sketch -->
    <title>social/slack</title>
    <desc>Created with Sketch.</desc>
    <defs>
        <path d="M15.7512375,16.8896813 C16.1334563,18.0214313 16.5083625,19.1312438 16.8888938,20.2579313 C18.020925,19.8754313 19.130175,19.5008063 20.257425,19.1197125 C19.8746438,17.9868375 19.49805,16.8728063 19.1194875,15.7525875 C17.9863313,16.1350875 16.8807375,16.5083063 15.7512375,16.8896813 M26.5803188,19.1129062 C26.5361625,19.6410938 26.2754438,20.0584688 25.7841,20.2643438 C25.2275063,20.4972187 24.6472875,20.6727187 24.0771938,20.8735312 C24.014475,20.8954687 23.9520375,20.9188125 23.877225,20.9458125 C24.0566625,21.488625 24.2375063,22.0221563 24.40935,22.5582187 C24.6301313,23.2472813 24.41835,23.8719375 23.841225,24.256125 C23.1338813,24.7272187 22.12335,24.4515937 21.7956938,23.6674687 C21.5816625,23.1544687 21.4309125,22.61475 21.2520375,22.087125 C21.2261625,22.0114687 21.199725,21.9358125 21.1634438,21.8309063 C20.0373188,22.2111562 18.9320063,22.5840938 17.8053188,22.9640625 C17.842725,23.0880937 17.8747875,23.202 17.9110688,23.3142188 C18.0713813,23.8131562 18.25335,24.3059062 18.3886313,24.8113125 C18.589725,25.561125 18.1923188,26.2859063 17.4835688,26.5204687 C16.7663813,26.7578438 15.9951938,26.4169687 15.7066313,25.7009062 C15.4985063,25.1845312 15.3367875,24.6495938 15.1542563,24.1228125 C15.1281,24.0474375 15.099975,23.9723438 15.0659438,23.878125 C14.5253813,24.0567187 13.9932563,24.2341875 13.4600063,24.4082812 C12.8772563,24.5989687 12.3575063,24.4974375 11.9212875,24.0553125 C11.2403813,23.3659688 11.4558188,22.1689688 12.3485063,21.7929375 C12.8609438,21.5772187 13.401225,21.427875 13.9291313,21.2487188 C14.0045063,21.223125 14.0801625,21.19725 14.1771938,21.1643438 C13.7989125,20.0421562 13.4245688,18.9320625 13.0431938,17.800875 C12.7585688,17.893125 12.4866,17.9814375 12.21435,18.0691875 C11.8821938,18.1763438 11.5536938,18.2986875 11.2167563,18.387 C10.449225,18.5880938 9.73513125,18.2064375 9.4912875,17.4822188 C9.24969375,16.763625 9.58381875,16.0025625 10.3077563,15.7080937 C10.829475,15.49575 11.3714438,15.3334688 11.9041313,15.1484063 C11.9733188,15.1242188 12.042225,15.0983437 12.132225,15.0654375 C11.9991938,14.666625 11.8574438,14.2776562 11.7410063,13.8808125 C11.6487563,13.5675 11.5399125,13.2474375 11.5230375,12.9256875 C11.4890063,12.2768437 11.9862563,11.7016875 12.640725,11.5599375 C13.2873188,11.4195938 13.9654125,11.7329062 14.2086938,12.3336563 C14.424975,12.8680312 14.586975,13.4240625 14.7734438,13.9708125 C14.7948188,14.0335313 14.8178813,14.09625 14.84685,14.1778125 C15.9724125,13.800375 17.0901,13.42575 18.23085,13.0435312 C18.10935,12.6869063 17.9811,12.3435 17.8756313,11.9933438 C17.7620063,11.6159063 17.6129438,11.2367812 17.5800375,10.8500625 C17.5204125,10.1477813 18.0117563,9.59371875 18.7511625,9.43284375 C19.3595063,9.300375 20.0370375,9.64546875 20.2803188,10.2515625 C20.4923813,10.780875 20.6602875,11.3279062 20.8481625,11.8667812 C20.87685,11.948625 20.9066625,12.029625 20.9435063,12.1328437 C21.3057563,12.0124688 21.6584438,11.8895625 22.0150688,11.7790313 C22.3221938,11.6836875 22.6290375,11.5540313 22.9440375,11.5250625 C23.712975,11.45475 24.3151313,11.9503125 24.4672875,12.7223438 C24.59835,13.3872188 24.1795688,14.0577188 23.4725063,14.3012813 C22.99635,14.46525 22.5165375,14.61825 22.0381313,14.7765937 C21.9754125,14.7974062 21.9132563,14.82075 21.8311313,14.8502813 C22.2096938,15.9721875 22.5846,17.0834062 22.9651313,18.2123437 C23.5276313,18.0267188 24.075225,17.8464375 24.6222563,17.6653125 C25.0863188,17.5114687 25.5371625,17.5165312 25.9548188,17.7977812 C26.4202875,18.1110938 26.6261625,18.561375 26.5803188,19.1129062 M17.9999438,0 C8.05888125,0 -5.625e-05,8.0589375 -5.625e-05,18 C-5.625e-05,27.9410625 8.05888125,36 17.9999438,36 C27.9412875,36 35.9999438,27.9410625 35.9999438,18 C35.9999438,8.0589375 27.9412875,0 17.9999438,0" id="path-1"></path>
    </defs>
    <g id="Symbols" stroke="none" stroke-width="1" fill="none" fill-rule="evenodd">
        <g id="social/slack">
            <mask id="mask-2" fill="white">
                <use xlink:href="#path-1"></use>
            </mask>
            <use id="Fill-3" fill="#061028" xlink:href="#path-1"></use>
        </g>
    </g>
</svg>