<?xml version="1.0" encoding="UTF-8"?>
<svg width="36px" height="36px" viewBox="0 0 36 36" version="1.1" xmlns="http://www.w3.org/2000/svg" xmlns:xlink="http://www.w3.org/1999/xlink">
    <!-- Generator: Sketch 48.1 (47250) - http://www.bohemiancoding.com/sketch -->
    <title>social/telegram</title>
    <desc>Created with Sketch.</desc>
    <defs>
        <path d="M21.6816188,13.1985562 C18.6784313,15.0879937 15.677775,16.9844625 12.6748688,18.8739 C12.5362125,18.96165 12.4999313,19.0344937 12.5556188,19.1950875 C12.8475563,20.0633062 13.1271188,20.9334937 13.4117438,21.8039625 C13.6108688,22.4170875 13.810275,23.0299312 14.0293688,23.705775 C14.0583375,23.5935562 14.0729625,23.5524937 14.0777438,23.5089 C14.1629625,22.6015875 14.2504313,21.6970875 14.3235563,20.7903375 C14.3404313,20.5785562 14.411025,20.4280875 14.5690875,20.2843687 C16.7721188,18.3074625 18.9655875,16.325775 21.1635563,14.3438062 C21.5381813,14.0034937 21.9175875,13.6676812 22.28715,13.3225875 C22.3431188,13.2714 22.3574625,13.1766187 22.3892438,13.1012437 C22.3065563,13.0719937 22.2143063,13.0039312 22.13865,13.0185562 C21.9805875,13.0551187 21.8177438,13.1133375 21.6816188,13.1985562 M25.6379062,11.2266562 C25.574625,11.8369687 25.419375,12.4374375 25.2925312,13.0407187 C24.4589062,16.9748437 23.6221875,20.90925 22.7835,24.8439375 C22.5765,25.81425 21.9102187,26.0597812 21.1055625,25.4663438 C19.7949375,24.4985625 18.4840312,23.5285312 17.1734062,22.5604687 C17.110125,22.5143437 17.0445937,22.4704687 16.9692187,22.4173125 C16.5996562,22.7770312 16.2374062,23.1297187 15.874875,23.4795937 C15.5176875,23.8272188 15.1576875,24.175125 14.80275,24.52275 C14.5740937,24.746625 14.308875,24.8487187 13.9879687,24.8340937 C13.74975,24.82425 13.6110937,24.7246875 13.5357187,24.4960312 C12.99825,22.8256875 12.4512187,21.1598437 11.9162812,19.4892187 C11.867625,19.3336875 11.7871875,19.263375 11.6367187,19.2169687 C10.3744687,18.8305312 9.11503125,18.4365 7.85784375,18.0376875 C7.69246875,17.9865 7.5245625,17.9282812 7.378875,17.8408125 C7.016625,17.6267812 6.9800625,17.2935 7.31053125,17.0333437 C7.529625,16.8606562 7.78725,16.7222812 8.0499375,16.617375 C9.518625,16.0388437 10.994625,15.4746562 12.470625,14.9056875 C16.444125,13.3737187 20.4173438,11.84175 24.3883125,10.30725 C25.1395312,10.018125 25.7205937,10.4217187 25.6379062,11.2266562 M18,0 C8.0589375,0 0,8.0589375 0,18 C0,27.9410625 8.0589375,36 18,36 C27.9410625,36 36.0002812,27.9410625 36.0002812,18 C36.0002812,8.0589375 27.9410625,0 18,0" id="path-1"></path>
    </defs>
    <g id="Symbols" stroke="none" stroke-width="1" fill="none" fill-rule="evenodd">
        <g id="social/telegram">
            <mask id="mask-2" fill="white">
                <use xlink:href="#path-1"></use>
            </mask>
            <use id="Fill-3" fill="#061028" xlink:href="#path-1"></use>
        </g>
    </g>
</svg>