<?xml version="1.0" encoding="UTF-8"?>
<svg width="36px" height="36px" viewBox="0 0 36 36" version="1.1" xmlns="http://www.w3.org/2000/svg" xmlns:xlink="http://www.w3.org/1999/xlink">
    <!-- Generator: Sketch 48.1 (47250) - http://www.bohemiancoding.com/sketch -->
    <title>social/twitter</title>
    <desc>Created with Sketch.</desc>
    <defs>
        <path d="M26.0161875,13.8886875 C26.0240625,14.0661563 26.0282812,14.2444688 26.0282812,14.423625 C26.0282812,19.8894375 21.8680312,26.1916875 14.2602187,26.1916875 C11.9244375,26.1916875 9.75065625,25.5074063 7.92,24.33375 C8.24371875,24.3717188 8.57278125,24.3914063 8.906625,24.3914063 C10.8444375,24.3914063 12.6278437,23.7301875 14.043375,22.6206563 C12.2335312,22.5874688 10.7060625,21.3915937 10.1795625,19.7485313 C10.432125,19.796625 10.6914375,19.8227813 10.9577812,19.8227813 C11.3349375,19.8227813 11.7005625,19.7721563 12.047625,19.6776563 C10.155375,19.2974063 8.72971875,17.6259375 8.72971875,15.6220313 C8.72971875,15.6045938 8.72971875,15.5871563 8.73028125,15.57 C9.28771875,15.8796563 9.92559375,16.0658438 10.6034062,16.0872188 C9.49359375,15.3455625 8.76346875,14.0796563 8.76346875,12.6447188 C8.76346875,11.88675 8.967375,11.1760313 9.3234375,10.5654375 C11.3633437,13.0677188 14.4109687,14.7144375 17.8484062,14.8868438 C17.7780937,14.5842188 17.7415312,14.2686563 17.7415312,13.9440938 C17.7415312,11.6600625 19.593,9.8083125 21.8775937,9.8083125 C23.0672812,9.8083125 24.1422187,10.3103438 24.8968125,11.1144375 C25.8387187,10.9290938 26.7240937,10.5845625 27.5228437,10.1106563 C27.2143125,11.0764688 26.5581562,11.8870313 25.7045625,12.3989063 C26.5412812,12.2990625 27.3383437,12.076875 28.08,11.7478125 C27.5256562,12.5772188 26.8242188,13.3056563 26.0161875,13.8886875 M18,0 C8.0589375,0 0,8.0589375 0,18 C0,27.9410625 8.0589375,36 18,36 C27.9413437,36 36,27.9410625 36,18 C36,8.0589375 27.9413437,0 18,0" id="path-1"></path>
    </defs>
    <g id="Symbols" stroke="none" stroke-width="1" fill="none" fill-rule="evenodd">
        <g id="social/twitter">
            <mask id="mask-2" fill="white">
                <use xlink:href="#path-1"></use>
            </mask>
            <use id="Fill-1" fill="#061028" xlink:href="#path-1"></use>
        </g>
    </g>
</svg>