<svg width="60px" height="60px" viewBox="0 0 60 60" version="1.1" xmlns="http://www.w3.org/2000/svg" xmlns:xlink="http://www.w3.org/1999/xlink">
    <!-- Generator: Sketch 50.2 (55047) - http://www.bohemiancoding.com/sketch -->
    <desc>Created with Sketch.</desc>
    <defs>
        <!--linearGradient x1="50%" y1="0%" x2="42.5180047%" y2="116.782579%" id="linearGradient-1">
            <stop stop-color="#00BFE6" offset="0%"></stop>
            <stop stop-color="#008BC9" offset="100%"></stop>
        </linearGradient-->
    </defs>
    <g id="Page-1" stroke="none" stroke-width="1" fill="none" fill-rule="evenodd">
        <g id="WINGS_Foundation_LP-Final" transform="translate(-232.000000, -8607.000000)">
            <g id="Group-29" transform="translate(232.000000, 8607.000000)">
                <circle id="Oval-Copy" fill="url(#linearGradient-1)" cx="30" cy="30" r="30"></circle>
                <path d="M36.1883562,39.6988151 C36.1883562,39.6988151 35.3869863,38.7416233 34.7191781,37.8957329 C37.635274,37.0721028 38.7482877,35.2467603 38.7482877,35.2467603 C37.8356164,35.8477877 36.9674658,36.2707329 36.1883562,36.5601165 C35.0753425,37.0275822 34.0068493,37.3392261 32.9606164,37.5173083 C30.8236301,37.9179932 28.864726,37.8066918 27.1952055,37.495048 C25.9263699,37.250185 24.8356164,36.8940206 23.9229452,36.5378562 C23.4109589,36.3375138 22.8544521,36.0926507 22.2979452,35.7810069 C22.2311644,35.7364864 22.1643836,35.7142261 22.0976027,35.6697055 C22.0530822,35.6474453 22.0308219,35.625185 22.0085616,35.6029247 C21.6078767,35.380322 21.385274,35.2245001 21.385274,35.2245001 C21.385274,35.2245001 22.4537671,37.005322 25.2808219,37.8512124 C24.6130137,38.6971028 23.7893836,39.6988151 23.7893836,39.6988151 C18.869863,39.5429932 17,36.3152535 17,36.3152535 C17,29.1474453 20.2054795,23.3375138 20.2054795,23.3375138 C23.4109589,20.9334042 26.4606164,21.000185 26.4606164,21.000185 L26.6832192,21.2673083 C22.6763699,22.4248425 20.8287671,24.1834042 20.8287671,24.1834042 C20.8287671,24.1834042 21.3184932,23.9162809 22.1421233,23.5378562 C24.5239726,22.4916233 26.4160959,22.2022398 27.1952055,22.135459 C27.3287671,22.1131987 27.4400685,22.0909384 27.5736301,22.0909384 C28.9315068,21.9128562 30.4674658,21.8683357 32.0702055,22.0464179 C34.1849315,22.2912809 36.4554795,22.9145686 38.7705479,24.1834042 C38.7705479,24.1834042 37.0119863,22.5138836 33.2277397,21.3563494 L33.5393836,21.000185 C33.5393836,21.000185 36.5890411,20.9334042 39.7945205,23.3375138 C39.7945205,23.3375138 43,29.1474453 43,36.3152535 C43,36.3152535 41.1078767,39.5429932 36.1883562,39.6988151 Z M25.8373288,29.3032672 C24.5684932,29.3032672 23.5667808,30.4162809 23.5667808,31.7741576 C23.5667808,33.1320343 24.5907534,34.245048 25.8373288,34.245048 C27.1061644,34.245048 28.1078767,33.1320343 28.1078767,31.7741576 C28.130137,30.4162809 27.1061644,29.3032672 25.8373288,29.3032672 Z M33.9623288,29.3032672 C32.6934932,29.3032672 31.6917808,30.4162809 31.6917808,31.7741576 C31.6917808,33.1320343 32.7157534,34.245048 33.9623288,34.245048 C35.2311644,34.245048 36.2328767,33.1320343 36.2328767,31.7741576 C36.2328767,30.4162809 35.2311644,29.3032672 33.9623288,29.3032672 Z" id="Shape" fill="#DDF9FF" fill-rule="nonzero"></path>
            </g>
        </g>
    </g>
</svg>