<svg width="60px" height="60px" viewBox="0 0 60 60" version="1.1" xmlns="http://www.w3.org/2000/svg" xmlns:xlink="http://www.w3.org/1999/xlink">
    <!-- Generator: Sketch 50.2 (55047) - http://www.bohemiancoding.com/sketch -->
    <desc>Created with Sketch.</desc>
    <defs>
        <!--linearGradient x1="50%" y1="0%" x2="42.5180047%" y2="116.782579%" id="linearGradient-1">
            <stop stop-color="#00BFE6" offset="0%"></stop>
            <stop stop-color="#008BC9" offset="100%"></stop>
        </linearGradient-->
    </defs>
    <g id="Page-1" stroke="none" stroke-width="1" fill="none" fill-rule="evenodd">
        <g id="WINGS_Foundation_LP-Final" transform="translate(-139.000000, -8700.000000)">
            <g id="Group-31" transform="translate(139.000000, 8700.000000)">
                <circle id="Oval-Copy-3" fill="url(#linearGradient-1)" cx="30" cy="30" r="30"></circle>
                <path d="M43,22.4026592 C42.0798596,22.8103804 41.0925622,23.0868923 40.0552239,23.2103402 C41.1144169,22.5760663 41.9252025,21.5700189 42.309476,20.3749189 C41.3159286,20.9622973 40.2192357,21.3888095 39.050688,21.620019 C38.114943,20.6217739 36.7839359,20 35.3076263,20 C32.4753504,20 30.1789006,22.2964498 30.1789006,25.1271734 C30.1789006,25.5286447 30.224203,25.9207613 30.3117031,26.2957211 C26.0500132,26.0816684 22.2710446,24.0398759 19.7418329,20.9372973 C19.2997162,21.693426 19.0482043,22.5744732 19.0482043,23.5149567 C19.0482043,25.2943305 19.9542924,26.8643495 21.3290496,27.7828967 C20.4885662,27.7547921 19.6980828,27.5235826 19.0060474,27.1392682 L19.0060474,27.2033206 C19.0060474,29.6872299 20.7744735,31.7602725 23.1193303,32.232087 C22.6897135,32.3476917 22.2366899,32.4117441 21.7680209,32.4117441 C21.436852,32.4117441 21.1165901,32.3789418 20.8025781,32.3164417 C21.4555612,34.3551297 23.3489875,35.8376484 25.5923327,35.8782939 C23.8379589,37.2530511 21.6258638,38.0700867 19.2232046,38.0700867 C18.8092333,38.0700867 18.4014712,38.0450867 18,37.9997843 C20.2698975,39.4573439 22.964714,40.3071819 25.8610423,40.3071819 C35.295208,40.3071819 40.4520792,32.4929943 40.4520792,25.716145 L40.4348814,25.0522141 C41.4424811,24.3335447 42.3141737,23.430602 43,22.4026592 Z" id="Shape" fill="#ffffff" fill-rule="nonzero"></path>
            </g>
        </g>
    </g>
</svg>