<svg width="60px" height="60px" viewBox="0 0 60 60" version="1.1" xmlns="http://www.w3.org/2000/svg" xmlns:xlink="http://www.w3.org/1999/xlink">
    <!-- Generator: Sketch 50.2 (55047) - http://www.bohemiancoding.com/sketch -->
    <desc>Created with Sketch.</desc>
    <defs>
        <!--linearGradient x1="50%" y1="0%" x2="42.5180047%" y2="116.782579%" id="linearGradient-1">
            <stop stop-color="#00BFE6" offset="0%"></stop>
            <stop stop-color="#008BC9" offset="100%"></stop>
        </linearGradient-->
    </defs>
    <g id="Page-1" stroke="none" stroke-width="1" fill="none" fill-rule="evenodd">
        <g id="WINGS_Foundation_LP-Final" transform="translate(-232.000000, -8700.000000)">
            <g id="Group-32" transform="translate(232.000000, 8700.000000)">
                <circle id="Oval-Copy-4" fill="url(#linearGradient-1)" cx="30" cy="30" r="30"></circle>
                <path d="M44,27.4753421 C44,25.6126907 42.4846112,24.0973019 40.6219598,24.0973019 C39.5826816,24.0973019 38.6265997,24.5617341 37.9891152,25.3581795 C36.2004912,24.5444579 34.1610235,24.0430602 32.0037105,23.8842923 L33.8573859,18.0265775 L37.9974155,18.9235919 C38.3144687,20.1572522 39.435592,21.0718325 40.7667329,21.0718325 C42.3434091,21.0718325 43.6261957,19.7891424 43.6261957,18.2124662 C43.6261957,16.6357901 42.3434091,15.3530034 40.7667329,15.3530034 C39.6277543,15.3530034 38.6434899,16.0229171 38.1840764,16.98894 L33.4068519,15.953812 C32.9203176,15.8484171 32.4326251,16.1307248 32.2823505,16.6058703 L29.9944521,23.835552 C27.4692223,23.8971288 25.0733231,24.4197599 23.0109813,25.358083 C22.3734003,24.5617341 21.4173184,24.0973019 20.3780402,24.0973019 C18.5153888,24.0973019 17,25.6126907 17,27.4753421 C17,28.3799813 17.3554663,29.2293171 17.9865808,29.860142 C17.6101706,30.6679762 17.4195526,31.5082396 17.4195526,32.3633663 C17.4195526,34.6843695 18.8089888,36.8505619 21.3320953,38.4630453 C23.7881236,40.0327724 27.0441683,40.8972611 30.5,40.8972611 C33.9560247,40.8972611 37.2118764,40.0327724 39.6679047,38.4630453 C42.1910112,36.8505619 43.5804474,34.6843695 43.5804474,32.3633663 C43.5804474,31.5083361 43.3898294,30.6680727 43.0134192,29.860142 C43.6445337,29.2292206 44,28.3799813 44,27.4753421 Z M18.4833457,28.6332378 C18.2698536,28.2867474 18.1581852,27.8912271 18.1581852,27.4753421 C18.1581852,26.2513333 19.153935,25.2554871 20.3780402,25.2554871 C20.9034703,25.2554871 21.3970502,25.4341372 21.7918948,25.7629652 C20.3806462,26.5642364 19.2697535,27.528136 18.4833457,28.6332378 Z M23.5669102,30.5892196 C23.5669102,29.2587543 24.6493308,28.1763337 25.9797961,28.1763337 C27.3102614,28.1763337 28.392682,29.2587543 28.392682,30.5892196 C28.392682,31.9196849 27.3102614,33.0021055 25.9797961,33.0021055 C24.6493308,33.0021055 23.5669102,31.9196849 23.5669102,30.5892196 Z M35.4497941,36.0958112 C34.5092512,37.1224459 32.6126264,37.7601234 30.5,37.7601234 C28.3874702,37.7601234 26.4908453,37.1224459 25.5503024,36.0958112 C25.3760921,35.9056758 25.2865257,35.6590789 25.2977215,35.4016722 C25.3089173,35.1440725 25.4199101,34.9062585 25.609949,34.7321446 C25.788406,34.5686475 26.01985,34.4785986 26.2618142,34.4785986 C26.5317679,34.4785986 26.7911049,34.5927764 26.9734225,34.7916947 C27.5335016,35.4029269 28.9835495,35.8298147 30.5,35.8298147 C32.0164505,35.8298147 33.4665949,35.4029269 34.0265775,34.7916947 C34.2088951,34.5926798 34.4682321,34.4785986 34.7382823,34.4785986 C34.980343,34.4785986 35.211787,34.5686475 35.3902441,34.7321446 C35.5803795,34.9062585 35.6911792,35.1440725 35.702375,35.4016722 C35.7136673,35.6590789 35.6240045,35.9056758 35.4497941,36.0958112 Z M35.0202039,33.0021055 C33.6897386,33.0021055 32.607318,31.9196849 32.607318,30.5892196 C32.607318,29.2587543 33.6897386,28.1763337 35.0202039,28.1763337 C36.3506692,28.1763337 37.4330898,29.2587543 37.4330898,30.5892196 C37.4330898,31.9196849 36.3506692,33.0021055 35.0202039,33.0021055 Z M42.5166543,28.6332378 C41.730343,27.528136 40.6194504,26.5643329 39.2081052,25.7629652 C39.6030463,25.4340406 40.0965297,25.2554871 40.6219598,25.2554871 C41.846065,25.2554871 42.8418148,26.2513333 42.8418148,27.4753421 C42.8418148,27.8912271 42.7301464,28.2867474 42.5166543,28.6332378 Z" id="Shape" fill="#DDF9FF" fill-rule="nonzero"></path>
            </g>
        </g>
    </g>
</svg>