<svg width="60px" height="60px" viewBox="0 0 60 60" version="1.1" xmlns="http://www.w3.org/2000/svg" xmlns:xlink="http://www.w3.org/1999/xlink">
    <!-- Generator: Sketch 50.2 (55047) - http://www.bohemiancoding.com/sketch -->
    <desc>Created with Sketch.</desc>
    <defs>
        <!--linearGradient x1="50%" y1="0%" x2="42.5180047%" y2="116.782579%" id="linearGradient-1">
            <stop stop-color="#00BFE6" offset="0%"></stop>
            <stop stop-color="#008BC9" offset="100%"></stop>
        </linearGradient-->
    </defs>
    <g id="Page-1" stroke="none" stroke-width="1" fill="none" fill-rule="evenodd">
        <g id="WINGS_Foundation_LP-Final" transform="translate(-325.000000, -8607.000000)">
            <g id="Group-30" transform="translate(325.000000, 8607.000000)">
                <circle id="Oval-Copy-2" fill="url(#linearGradient-1)" cx="30" cy="30" r="30"></circle>
                <path d="M38.793125,17.8939156 L21.9918187,17.8939156 C20.2801463,17.8939156 18.8925,19.2815057 18.8925,20.9932343 L18.8925,37.7946532 C18.8925,39.5063818 20.2800901,40.8939719 21.9918187,40.8939719 L30.2781428,40.8939719 L30.2922652,32.6749961 L28.1569789,32.6749961 C27.8794834,32.6749961 27.6542574,32.4506141 27.6531884,32.1731186 L27.6429483,29.5238017 C27.6418793,29.2447871 27.8677804,29.018042 28.146795,29.018042 L30.2781991,29.018042 L30.2781991,26.4581291 C30.2781991,23.4873743 32.0925538,21.8697758 34.7426584,21.8697758 L36.9172734,21.8697758 C37.1955004,21.8697758 37.4211202,22.0953393 37.4211202,22.3736225 L37.4211202,24.6075401 C37.4211202,24.8857108 37.1956691,25.1112181 36.9175547,25.1113869 L35.5830219,25.1120058 C34.141812,25.1120058 33.8627411,25.7968548 33.8627411,26.8019039 L33.8627411,29.0180982 L37.0295769,29.0180982 C37.3313224,29.0180982 37.5654381,29.2815839 37.5298791,29.5812476 L37.215868,32.2305645 C37.1858229,32.4840914 36.970837,32.6751087 36.7155659,32.6751087 L33.8768634,32.6751087 L33.8627411,40.8940844 L38.7932376,40.8940844 C40.5049099,40.8940844 41.8925,39.5064943 41.8925,37.7948219 L41.8925,20.9932343 C41.8924437,19.2815057 40.5048537,17.8939156 38.793125,17.8939156" id="Fill-1" fill="#ffffff"></path>
            </g>
        </g>
    </g>
</svg>