<svg width="196px" height="79px" viewBox="0 0 196 79" version="1.1" xmlns="http://www.w3.org/2000/svg" xmlns:xlink="http://www.w3.org/1999/xlink">
                  <!-- Generator: Sketch 50.2 (55047) - http://www.bohemiancoding.com/sketch -->
                  <desc>Created with Sketch.</desc>
                  <defs></defs>
                  <g id="Page-1" stroke="none" stroke-width="1" fill="none" fill-rule="evenodd">
                      <g id="WINGS_Foundation_LP-Final" transform="translate(-58.000000, -39.000000)">
                          <g id="Group-19" transform="translate(58.000000, 39.000000)">
                              <g id="Group" transform="translate(110.000000, 27.000000)" fill="#008BC9">
                                  <path d="M14.9424,11.7375 L12.6674,3.3125 L9.6674,3.3125 C8.9174,6.0875 8.1424,9.0125 7.3674,11.7375 L4.0174,0.8875 L0.0674,0.8875 L5.8674,18.1125 L8.7674,18.1125 L11.1424,9.0625 L13.5674,18.1125 L16.4424,18.1125 L22.2924,0.8875 L18.3174,0.8875 L14.9424,11.7375 Z" id="Fill-9"></path>
                                  <polygon id="Fill-11" points="25.767 18.112 29.417 18.112 29.417 0.887 25.767 0.887"></polygon>
                                  <polygon id="Fill-13" points="47.8921 0.8874 44.2171 0.8874 44.2171 11.1874 38.3171 0.8874 34.9671 0.8874 34.9671 18.1124 38.6171 18.1124 38.6171 7.6874 44.6171 18.1124 47.8921 18.1124"></polygon>
                                  <path d="M67.7422,3.5124 C66.2422,1.7874 63.9172,0.6874 61.2672,0.6874 C56.3172,0.6874 52.4422,4.6374 52.4422,9.5374 C52.4422,14.3874 56.3172,18.3624 61.2672,18.3624 C66.2172,18.3624 69.6672,15.5124 69.6672,9.0624 L60.8172,9.0624 L60.8172,12.0374 L65.4422,12.0374 C65.4172,13.8624 63.1172,15.0124 61.2672,15.0124 C58.3672,15.0124 56.1172,12.5124 56.1172,9.5374 C56.1172,6.5374 58.3672,4.0874 61.2672,4.0874 C62.7672,4.0874 64.0922,4.7624 65.0422,5.8374 L67.7422,3.5124 Z" id="Fill-14"></path>
                                  <path d="M72.9174,13.0627 C72.9174,16.1627 75.4174,18.3877 79.1674,18.3877 C82.2174,18.3877 85.3174,16.7627 85.3674,13.3377 C85.4174,11.6877 84.8174,9.3377 80.6424,8.1377 L78.5924,7.4877 C76.9174,7.0127 76.7424,6.1877 76.7424,5.7377 C76.7424,4.7127 77.6924,4.0127 78.9674,4.0127 C80.4174,4.0127 81.1924,4.8127 81.1924,5.9627 L84.8424,5.9627 C84.8424,2.6627 82.3424,0.6877 79.0174,0.6877 C75.7174,0.6877 73.0924,2.7627 73.0924,5.8377 C73.0924,7.3877 73.7424,9.6127 77.5424,10.7877 L79.6174,11.3627 C81.3674,11.8627 81.7174,12.5377 81.6924,13.3127 C81.6674,14.4377 80.6424,15.1377 79.1674,15.1377 C77.5174,15.1377 76.6424,14.1627 76.5924,13.0627 L72.9174,13.0627 Z" id="Fill-15"></path>
                              </g>
                              <g id="bird">
                                  <polygon id="Fill-1" fill="#06567B" points="44.3872 15.4465 52.4912 24.5555 49.7562 46.6525 34.7592 17.1435"></polygon>
                                  <polygon id="Fill-2" fill="#06567B" points="9.2685 15.5505 44.3875 15.4465 52.6645 24.6245"></polygon>
                                  <polygon id="Fill-3" fill="#74BBE4" points="82.3462 15.2043 82.8312 40.9023 70.0512 26.7723"></polygon>
                                  <polygon id="Fill-4" fill="#06567B" points="74.5884 22.5115 92.7014 26.2865 82.3464 15.2045"></polygon>
                                  <polygon id="Fill-5" fill="#008BC9" points="47.0888 0.0002 57.9288 12.1562 82.8308 40.9022 49.4438 46.0282 38.6378 0.2772"></polygon>
                                  <polygon id="Fill-6" fill="#008BC9" points="82.831 40.9025 50.102 59.7775 49.409 46.0285 54.674 36.0195"></polygon>
                                  <polygon id="Fill-7" fill="#06567B" points="16.0218 79 52.1798 58.566 49.4438 46.029"></polygon>
                                  <polygon id="Fill-8" fill="#06567B" points="47.0889 -0.0002 0.2979 0.1038 58.1369 12.2258"></polygon>
                              </g>
                          </g>
                      </g>
                  </g>
              </svg>