<svg width="54px" height="54px" viewBox="0 0 54 54" version="1.1" xmlns="http://www.w3.org/2000/svg" xmlns:xlink="http://www.w3.org/1999/xlink">
    <!-- Generator: Sketch 50.2 (55047) - http://www.bohemiancoding.com/sketch -->
    <desc>Created with Sketch.</desc>
    <defs>
        <linearGradient x1="50%" y1="0%" x2="50%" y2="97.0184949%" id="linearGradient-1">
            <stop stop-color="#DA8CFF" offset="0%"></stop>
            <stop stop-color="#A188FF" offset="100%"></stop>
        </linearGradient>
        <circle id="path-2" cx="27" cy="27" r="27"></circle>
        <linearGradient x1="50%" y1="105.248059%" x2="50%" y2="2.13268406%" id="linearGradient-4">
            <stop stop-color="#8E3AF2" offset="0%"></stop>
            <stop stop-color="#400BAB" offset="100%"></stop>
        </linearGradient>
    </defs>
    <g id="Page-1" stroke="none" stroke-width="1" fill="none" fill-rule="evenodd">
        <g id="WINGS_Foundation_LP-Final" transform="translate(-978.000000, -5900.000000)">
            <g id="Rectangle-16-+-Rectangle-16-Copy-Mask" transform="translate(978.000000, 5900.000000)">
                <mask id="mask-3" fill="white">
                    <use xlink:href="#path-2"></use>
                </mask>
                <use id="Mask" fill="url(#linearGradient-1)" xlink:href="#path-2"></use>
                <rect id="Rectangle-17" fill="#FFFFFF" mask="url(#mask-3)" x="24.6666667" y="36.6666667" width="1.33333333" height="18.6666667"></rect>
                <rect id="Rectangle-17-Copy-2" fill="#FFFFFF" mask="url(#mask-3)" x="20.6666667" y="33.3333333" width="1.33333333" height="10.6666667"></rect>
                <rect id="Rectangle-17-Copy-3" fill="#FFFFFF" mask="url(#mask-3)" transform="translate(12.666667, 43.333333) rotate(-270.000000) translate(-12.666667, -43.333333) " x="12" y="34" width="1.33333333" height="18.6666667"></rect>
                <g id="Group-8" mask="url(#mask-3)" fill="#FFFFFF">
                    <g transform="translate(42.000000, 38.666667) scale(-1, 1) translate(-42.000000, -38.666667) translate(32.666667, 33.333333)">
                        <rect id="Rectangle-17-Copy-4" x="17.3333333" y="0" width="1.33333333" height="10.6666667"></rect>
                        <rect id="Rectangle-17-Copy-5" transform="translate(9.333333, 10.000000) rotate(-270.000000) translate(-9.333333, -10.000000) " x="8.66666667" y="0.666666667" width="1.33333333" height="18.6666667"></rect>
                    </g>
                </g>
                <rect id="Rectangle-17-Copy" fill="#FFFFFF" mask="url(#mask-3)" x="28.6666667" y="36.6666667" width="1.33333333" height="18.6666667"></rect>
                <g id="Group-9" mask="url(#mask-3)" fill="#FFFFFF">
                    <g transform="translate(20.666667, 12.000000)">
                        <rect id="Rectangle-17-Copy-6" x="4" y="0" width="1.33333333" height="6.66666667"></rect>
                        <rect id="Rectangle-17-Copy-7" x="8" y="0" width="1.33333333" height="6.66666667"></rect>
                        <rect id="Rectangle-17-Copy-8" x="12" y="2" width="1.33333333" height="4.66666667"></rect>
                        <rect id="Rectangle-17-Copy-9" x="0" y="2" width="1.33333333" height="4.66666667"></rect>
                    </g>
                </g>
                <g id="Group-9-Copy" mask="url(#mask-3)" fill="#FFFFFF">
                    <g transform="translate(40.000000, 27.333333) rotate(-270.000000) translate(-40.000000, -27.333333) translate(33.333333, 24.000000)">
                        <rect id="Rectangle-17-Copy-6" x="4" y="0" width="1.33333333" height="6.66666667"></rect>
                        <rect id="Rectangle-17-Copy-7" x="8" y="0" width="1.33333333" height="6.66666667"></rect>
                        <rect id="Rectangle-17-Copy-8" x="12" y="2" width="1.33333333" height="4.66666667"></rect>
                        <rect id="Rectangle-17-Copy-9" x="0" y="2" width="1.33333333" height="4.66666667"></rect>
                    </g>
                </g>
                <g id="Group-9-Copy-2" mask="url(#mask-3)" fill="#FFFFFF">
                    <g transform="translate(14.166667, 27.666667) scale(-1, 1) rotate(-270.000000) translate(-14.166667, -27.666667) translate(7.166667, 24.166667)">
                        <rect id="Rectangle-17-Copy-6" x="4" y="0" width="1.33333333" height="6.66666667"></rect>
                        <rect id="Rectangle-17-Copy-7" x="8" y="0" width="1.33333333" height="6.66666667"></rect>
                        <rect id="Rectangle-17-Copy-8" x="12" y="2" width="1.33333333" height="4.66666667"></rect>
                        <rect id="Rectangle-17-Copy-9" x="0" y="2" width="1.33333333" height="4.66666667"></rect>
                    </g>
                </g>
                <rect id="Rectangle-16" fill="url(#linearGradient-4)" mask="url(#mask-3)" x="17.3333333" y="17.3333333" width="19.3333333" height="19.3333333" rx="2"></rect>
                <rect id="Rectangle-16-Copy" stroke="#FFFFFF" stroke-width="2" mask="url(#mask-3)" x="24.3333333" y="24.3333333" width="6" height="6"></rect>
            </g>
        </g>
    </g>
</svg>