<svg width="945px" height="344px" viewBox="0 0 945 344" version="1.1" xmlns="http://www.w3.org/2000/svg" xmlns:xlink="http://www.w3.org/1999/xlink">
    <!-- Generator: Sketch 50.2 (55047) - http://www.bohemiancoding.com/sketch -->
    <desc>Created with Sketch.</desc>
    <defs>
        <linearGradient x1="3.79876531%" y1="102.610449%" x2="43.6774467%" y2="102.610445%" id="linearGradient-1">
            <stop stop-color="#FFFFFF" offset="0%"></stop>
            <stop stop-color="#FFFFFF" stop-opacity="0" offset="100%"></stop>
        </linearGradient>
        <path d="M411,41 L476.004902,41 L431,0 L492.0198,0" id="path-2"></path>
        <path d="M0,41 L48.0049018,41 L93,0 L174.0198,0" id="path-3"></path>
        <path d="M156.014898,89 L204.0198,89 L151,140 L232.0198,140" id="path-4"></path>
        <path d="M465.014898,89 L518.0198,89 L587,155 L629,155" id="path-5"></path>
        <polygon id="path-6" points="0 0 81 0 115.666667 0 171 49 55.3333333 49"></polygon>
        <filter x="-28.9%" y="-84.7%" width="157.9%" height="302.0%" filterUnits="objectBoundingBox" id="filter-7">
            <feMorphology radius="0.5" operator="dilate" in="SourceAlpha" result="shadowSpreadOuter1"></feMorphology>
            <feOffset dx="0" dy="8" in="shadowSpreadOuter1" result="shadowOffsetOuter1"></feOffset>
            <feGaussianBlur stdDeviation="15" in="shadowOffsetOuter1" result="shadowBlurOuter1"></feGaussianBlur>
            <feComposite in="shadowBlurOuter1" in2="SourceAlpha" operator="out" result="shadowBlurOuter1"></feComposite>
            <feColorMatrix values="0 0 0 0 0.10274516   0 0 0 0 0.0867631931   0 0 0 0 0.320099915  0 0 0 1 0" type="matrix" in="shadowBlurOuter1"></feColorMatrix>
        </filter>
        <polygon id="path-8" points="0 0 81 0 115.666667 0 171 49 55.3333333 49"></polygon>
        <filter x="-28.9%" y="-84.7%" width="157.9%" height="302.0%" filterUnits="objectBoundingBox" id="filter-9">
            <feMorphology radius="0.5" operator="dilate" in="SourceAlpha" result="shadowSpreadOuter1"></feMorphology>
            <feOffset dx="0" dy="8" in="shadowSpreadOuter1" result="shadowOffsetOuter1"></feOffset>
            <feGaussianBlur stdDeviation="15" in="shadowOffsetOuter1" result="shadowBlurOuter1"></feGaussianBlur>
            <feComposite in="shadowBlurOuter1" in2="SourceAlpha" operator="out" result="shadowBlurOuter1"></feComposite>
            <feColorMatrix values="0 0 0 0 0.10274516   0 0 0 0 0.0867631931   0 0 0 0 0.320099915  0 0 0 1 0" type="matrix" in="shadowBlurOuter1"></feColorMatrix>
        </filter>
        <polygon id="path-10" points="0.593168328 0.582672398 166.307454 0.582672398 238.116978 0.582672398 348.593168 99.075439 111.069359 99.075439"></polygon>
        <filter x="-14.2%" y="-42.1%" width="128.4%" height="200.5%" filterUnits="objectBoundingBox" id="filter-11">
            <feMorphology radius="0.5" operator="dilate" in="SourceAlpha" result="shadowSpreadOuter1"></feMorphology>
            <feOffset dx="0" dy="8" in="shadowSpreadOuter1" result="shadowOffsetOuter1"></feOffset>
            <feGaussianBlur stdDeviation="15" in="shadowOffsetOuter1" result="shadowBlurOuter1"></feGaussianBlur>
            <feComposite in="shadowBlurOuter1" in2="SourceAlpha" operator="out" result="shadowBlurOuter1"></feComposite>
            <feColorMatrix values="0 0 0 0 0.10274516   0 0 0 0 0.0867631931   0 0 0 0 0.320099915  0 0 0 1 0" type="matrix" in="shadowBlurOuter1"></feColorMatrix>
        </filter>
        <polygon id="path-12" points="26.3897525 10.3177052 231.429336 10.3177052 321.796584 89.3404062 116.757001 89.3404062"></polygon>
        <filter x="-5.2%" y="-12.0%" width="110.5%" height="139.2%" filterUnits="objectBoundingBox" id="filter-13">
            <feMorphology radius="0.5" operator="dilate" in="SourceAlpha" result="shadowSpreadOuter1"></feMorphology>
            <feOffset dx="0" dy="6" in="shadowSpreadOuter1" result="shadowOffsetOuter1"></feOffset>
            <feGaussianBlur stdDeviation="4" in="shadowOffsetOuter1" result="shadowBlurOuter1"></feGaussianBlur>
            <feComposite in="shadowBlurOuter1" in2="SourceAlpha" operator="out" result="shadowBlurOuter1"></feComposite>
            <feColorMatrix values="0 0 0 0 0.10274516   0 0 0 0 0.0867631931   0 0 0 0 0.320099915  0 0 0 1 0" type="matrix" in="shadowBlurOuter1"></feColorMatrix>
        </filter>
        <filter x="-98.8%" y="-66.3%" width="297.6%" height="288.4%" filterUnits="objectBoundingBox" id="filter-14">
            <feOffset dx="0" dy="12" in="SourceAlpha" result="shadowOffsetOuter1"></feOffset>
            <feGaussianBlur stdDeviation="11.5" in="shadowOffsetOuter1" result="shadowBlurOuter1"></feGaussianBlur>
            <feColorMatrix values="0 0 0 0 0   0 0 0 0 0   0 0 0 0 0  0 0 0 0.397390172 0" type="matrix" in="shadowBlurOuter1" result="shadowMatrixOuter1"></feColorMatrix>
            <feMerge>
                <feMergeNode in="shadowMatrixOuter1"></feMergeNode>
                <feMergeNode in="SourceGraphic"></feMergeNode>
            </feMerge>
        </filter>
        <filter x="-51.3%" y="-35.2%" width="202.5%" height="200.0%" filterUnits="objectBoundingBox" id="filter-15">
            <feOffset dx="0" dy="12" in="SourceAlpha" result="shadowOffsetOuter1"></feOffset>
            <feGaussianBlur stdDeviation="11.5" in="shadowOffsetOuter1" result="shadowBlurOuter1"></feGaussianBlur>
            <feColorMatrix values="0 0 0 0 0   0 0 0 0 0   0 0 0 0 0  0 0 0 0.397390172 0" type="matrix" in="shadowBlurOuter1" result="shadowMatrixOuter1"></feColorMatrix>
            <feMerge>
                <feMergeNode in="shadowMatrixOuter1"></feMergeNode>
                <feMergeNode in="SourceGraphic"></feMergeNode>
            </feMerge>
        </filter>
        <linearGradient x1="94.882624%" y1="100%" x2="8.92602485%" y2="12.9050081%" id="linearGradient-16">
            <stop stop-color="#FFFFFF" stop-opacity="0.5" offset="0%"></stop>
            <stop stop-color="#000000" stop-opacity="0.5" offset="100%"></stop>
        </linearGradient>
        <polygon id="path-17" points="0.584210526 62 55.4210526 62 78.4684211 80.8571429 22.0421053 80.8571429"></polygon>
        <linearGradient x1="50%" y1="0%" x2="50%" y2="97.0184949%" id="linearGradient-18">
            <stop stop-color="#DA8CFF" offset="0%"></stop>
            <stop stop-color="#A188FF" offset="100%"></stop>
        </linearGradient>
        <linearGradient x1="96.8417996%" y1="100%" x2="10.5145054%" y2="18.6562885%" id="linearGradient-19">
            <stop stop-color="#FFFFFF" stop-opacity="0.5" offset="0%"></stop>
            <stop stop-color="#000000" stop-opacity="0.5" offset="100%"></stop>
        </linearGradient>
        <polygon id="path-20" points="0.584210526 1 55.4210526 1 78.4684211 19.8571429 22.0421053 19.8571429"></polygon>
        <linearGradient x1="50%" y1="0%" x2="50%" y2="100%" id="linearGradient-21">
            <stop stop-color="#FFFFFF" stop-opacity="0.5" offset="0%"></stop>
            <stop stop-color="#000000" stop-opacity="0.5" offset="100%"></stop>
        </linearGradient>
        <rect id="path-22" x="22.0421053" y="19.8571429" width="56.4263158" height="60.8571429"></rect>
        <polygon id="path-23" points="0.584210526 1 22.0421053 19.8571429 22.0421053 80.7142857 0.584210526 61.8571429"></polygon>
        <filter x="-101.2%" y="-79.2%" width="302.5%" height="325.0%" filterUnits="objectBoundingBox" id="filter-24">
            <feOffset dx="0" dy="12" in="SourceAlpha" result="shadowOffsetOuter1"></feOffset>
            <feGaussianBlur stdDeviation="11.5" in="shadowOffsetOuter1" result="shadowBlurOuter1"></feGaussianBlur>
            <feColorMatrix values="0 0 0 0 0   0 0 0 0 0   0 0 0 0 0  0 0 0 0.397390172 0" type="matrix" in="shadowBlurOuter1" result="shadowMatrixOuter1"></feColorMatrix>
            <feMerge>
                <feMergeNode in="shadowMatrixOuter1"></feMergeNode>
                <feMergeNode in="SourceGraphic"></feMergeNode>
            </feMerge>
        </filter>
        <filter x="-51.3%" y="-35.2%" width="213.9%" height="219.8%" filterUnits="objectBoundingBox" id="filter-25">
            <feOffset dx="0" dy="12" in="SourceAlpha" result="shadowOffsetOuter1"></feOffset>
            <feGaussianBlur stdDeviation="11.5" in="shadowOffsetOuter1" result="shadowBlurOuter1"></feGaussianBlur>
            <feColorMatrix values="0 0 0 0 0   0 0 0 0 0   0 0 0 0 0  0 0 0 0.397390172 0" type="matrix" in="shadowBlurOuter1" result="shadowMatrixOuter1"></feColorMatrix>
            <feMerge>
                <feMergeNode in="shadowMatrixOuter1"></feMergeNode>
                <feMergeNode in="SourceGraphic"></feMergeNode>
            </feMerge>
        </filter>
        <polygon id="path-26" points="0.584210526 62 55.4210526 62 78.4684211 80.8571429 22.0421053 80.8571429"></polygon>
        <polygon id="path-27" points="0.584210526 1 55.4210526 1 78.4684211 19.8571429 22.0421053 19.8571429"></polygon>
        <text id="text-28" font-family=".AppleSystemUIFont" font-size="18" font-weight="normal" line-spacing="18" letter-spacing="1.125" fill="#FFFFFF">
            <tspan x="25.5" y="43">ERC</tspan>
            <tspan x="32.4257812" y="61">20</tspan>
        </text>
        <filter x="-103.8%" y="-79.2%" width="307.7%" height="325.0%" filterUnits="objectBoundingBox" id="filter-29">
            <feOffset dx="0" dy="12" in="SourceAlpha" result="shadowOffsetOuter1"></feOffset>
            <feGaussianBlur stdDeviation="11.5" in="shadowOffsetOuter1" result="shadowBlurOuter1"></feGaussianBlur>
            <feColorMatrix values="0 0 0 0 0   0 0 0 0 0   0 0 0 0 0  0 0 0 0.397390172 0" type="matrix" in="shadowBlurOuter1"></feColorMatrix>
        </filter>
        <rect id="path-30" x="22.0421053" y="19.8571429" width="56.4263158" height="60.8571429"></rect>
        <polygon id="path-31" points="0.584210526 1 22.0421053 19.8571429 22.0421053 80.7142857 0.584210526 61.8571429"></polygon>
        <filter x="-51.3%" y="-35.2%" width="202.5%" height="200.0%" filterUnits="objectBoundingBox" id="filter-32">
            <feOffset dx="0" dy="12" in="SourceAlpha" result="shadowOffsetOuter1"></feOffset>
            <feGaussianBlur stdDeviation="11.5" in="shadowOffsetOuter1" result="shadowBlurOuter1"></feGaussianBlur>
            <feColorMatrix values="0 0 0 0 0   0 0 0 0 0   0 0 0 0 0  0 0 0 0.397390172 0" type="matrix" in="shadowBlurOuter1" result="shadowMatrixOuter1"></feColorMatrix>
            <feMerge>
                <feMergeNode in="shadowMatrixOuter1"></feMergeNode>
                <feMergeNode in="SourceGraphic"></feMergeNode>
            </feMerge>
        </filter>
        <polygon id="path-33" points="0.584210526 62 55.4210526 62 78.4684211 80.8571429 22.0421053 80.8571429"></polygon>
        <polygon id="path-34" points="0.584210526 1 55.4210526 1 78.4684211 19.8571429 22.0421053 19.8571429"></polygon>
        <rect id="path-35" x="22.0421053" y="19.8571429" width="56.4263158" height="60.8571429"></rect>
        <polygon id="path-36" points="0.584210526 1 22.0421053 19.8571429 22.0421053 80.7142857 0.584210526 61.8571429"></polygon>
        <filter x="-51.3%" y="-35.2%" width="202.5%" height="200.0%" filterUnits="objectBoundingBox" id="filter-37">
            <feOffset dx="0" dy="12" in="SourceAlpha" result="shadowOffsetOuter1"></feOffset>
            <feGaussianBlur stdDeviation="11.5" in="shadowOffsetOuter1" result="shadowBlurOuter1"></feGaussianBlur>
            <feColorMatrix values="0 0 0 0 0   0 0 0 0 0   0 0 0 0 0  0 0 0 0.397390172 0" type="matrix" in="shadowBlurOuter1" result="shadowMatrixOuter1"></feColorMatrix>
            <feMerge>
                <feMergeNode in="shadowMatrixOuter1"></feMergeNode>
                <feMergeNode in="SourceGraphic"></feMergeNode>
            </feMerge>
        </filter>
        <polygon id="path-38" points="0.584210526 62 55.4210526 62 78.4684211 80.8571429 22.0421053 80.8571429"></polygon>
        <polygon id="path-39" points="0.584210526 1 55.4210526 1 78.4684211 19.8571429 22.0421053 19.8571429"></polygon>
        <rect id="path-40" x="22.0421053" y="19.8571429" width="56.4263158" height="60.8571429"></rect>
        <polygon id="path-41" points="0.584210526 1 22.0421053 19.8571429 22.0421053 80.7142857 0.584210526 61.8571429"></polygon>
        <filter x="-23.7%" y="-16.3%" width="147.4%" height="146.3%" filterUnits="objectBoundingBox" id="filter-42">
            <feOffset dx="0" dy="12" in="SourceAlpha" result="shadowOffsetOuter1"></feOffset>
            <feGaussianBlur stdDeviation="11.5" in="shadowOffsetOuter1" result="shadowBlurOuter1"></feGaussianBlur>
            <feColorMatrix values="0 0 0 0 0   0 0 0 0 0   0 0 0 0 0  0 0 0 0.397390172 0" type="matrix" in="shadowBlurOuter1" result="shadowMatrixOuter1"></feColorMatrix>
            <feMerge>
                <feMergeNode in="shadowMatrixOuter1"></feMergeNode>
                <feMergeNode in="SourceGraphic"></feMergeNode>
            </feMerge>
        </filter>
        <polygon id="path-43" points="0 133 120.397959 133 171 174.481481 47.1122449 174.481481"></polygon>
        <polygon id="path-44" points="0 0 120.397959 0 171 41.4814815 47.1122449 41.4814815"></polygon>
        <polygon id="path-45" points="121 0 170.636364 41.3978495 170.636364 174 121 133"></polygon>
        <rect id="path-46" x="46.6363636" y="41.4814815" width="124.363636" height="132.222222"></rect>
        <polygon id="path-47" points="0 0 46.6363636 41.3978495 46.6363636 174 0 132.602151"></polygon>
    </defs>
    <g id="Page-1" stroke="none" stroke-width="1" fill="none" fill-rule="evenodd">
        <g id="WINGS_Foundation_LP-Final" transform="translate(-240.000000, -6073.000000)">
            <g id="Infrastructure-layer" transform="translate(266.000000, 6084.000000)">
                <g id="lines" transform="translate(147.000000, 116.000000)" stroke-dasharray="6,8">
                    <g id="Path-15">
                        <use stroke="#D98CFF" xlink:href="#path-2"></use>
                        <use stroke="url(#linearGradient-1)" xlink:href="#path-2"></use>
                    </g>
                    <g id="Path-15-Copy" transform="translate(87.009900, 20.500000) scale(-1, 1) translate(-87.009900, -20.500000) ">
                        <use stroke="#D98CFF" xlink:href="#path-3"></use>
                        <use stroke="url(#linearGradient-1)" xlink:href="#path-3"></use>
                    </g>
                    <g id="Path-15-Copy-2" transform="translate(191.509900, 114.500000) scale(-1, 1) translate(-191.509900, -114.500000) ">
                        <use stroke="#D98CFF" xlink:href="#path-4"></use>
                        <use stroke="url(#linearGradient-1)" xlink:href="#path-4"></use>
                    </g>
                    <g id="Path-15-Copy-3">
                        <use stroke="#D98CFF" xlink:href="#path-5"></use>
                        <use stroke="url(#linearGradient-1)" xlink:href="#path-5"></use>
                    </g>
                </g>
                <g id="platform-1" transform="translate(0.000000, 89.000000)">
                    <g id="Group-28-Copy">
                        <g id="Rectangle-22">
                            <use fill="black" fill-opacity="1" filter="url(#filter-7)" xlink:href="#path-6"></use>
                            <use stroke="#D98CFF" stroke-width="1" fill-opacity="0.0558763587" fill="#D078FB" fill-rule="evenodd" xlink:href="#path-6"></use>
                        </g>
                        <polygon id="Rectangle-22-Copy" stroke="#D98CFF" fill-opacity="0.0558763587" fill="#D078FB" points="18 6 111.70245 6 153 42 59.2975503 42"></polygon>
                    </g>
                </g>
                <g id="platform-2" transform="translate(608.000000, 89.000000)" fill="#D078FB" fill-opacity="0.0558763587" stroke="#D98CFF">
                    <g id="Group-28-Copy">
                        <polygon id="Rectangle-22" points="0 0 81 0 115.666667 0 171 49 55.3333333 49"></polygon>
                        <polygon id="Rectangle-22-Copy" points="18 6 111.70245 6 153 42 59.2975503 42"></polygon>
                    </g>
                </g>
                <g id="platform-3" transform="translate(171.000000, 246.000000)">
                    <g id="Group-28-Copy">
                        <g id="Rectangle-22">
                            <use fill="black" fill-opacity="1" filter="url(#filter-9)" xlink:href="#path-8"></use>
                            <use stroke="#D98CFF" stroke-width="1" fill-opacity="0.0558763587" fill="#D078FB" fill-rule="evenodd" xlink:href="#path-8"></use>
                        </g>
                        <polygon id="Rectangle-22-Copy" stroke="#D98CFF" fill-opacity="0.0558763587" fill="#D078FB" points="20 7 110.926081 7 151 42 60.0739192 42"></polygon>
                    </g>
                </g>
                <g id="platform-4" transform="translate(748.000000, 246.000000)" fill="#D078FB" fill-opacity="0.0558763587" stroke="#D98CFF">
                    <g id="Group-28-Copy">
                        <polygon id="Rectangle-22" points="0 0 81 0 115.666667 0 171 49 55.3333333 49"></polygon>
                        <polygon id="Rectangle-22-Copy" points="20 7 110.926081 7 151 42 60.0739192 42"></polygon>
                    </g>
                </g>
                <g id="platform-5" transform="translate(287.000000, 127.000000)">
                    <g id="Group-28">
                        <g id="Rectangle-22">
                            <use fill="black" fill-opacity="1" filter="url(#filter-11)" xlink:href="#path-10"></use>
                            <use stroke="#D98CFF" stroke-width="1" fill-opacity="0.0558763587" fill="#D078FB" fill-rule="evenodd" xlink:href="#path-10"></use>
                        </g>
                        <g id="Rectangle-22-Copy">
                            <use fill="black" fill-opacity="1" filter="url(#filter-13)" xlink:href="#path-12"></use>
                            <use stroke="#D98CFF" stroke-width="1" fill-opacity="0.0558763587" fill="#D078FB" fill-rule="evenodd" xlink:href="#path-12"></use>
                        </g>
                    </g>
                </g>
                <g id="boxes" transform="translate(46.000000, 0.000000)">
                    <g id="Group-25" filter="url(#filter-14)" transform="translate(25.000000, 59.000000)">
                        <g id="Page-1"></g>
                    </g>
                    <g id="JS" filter="url(#filter-15)" transform="translate(0.000000, 30.000000)">
                        <g id="Rectangle-23-Copy-3" opacity="0.680763134">
                            <use fill="#8B74E2" xlink:href="#path-17"></use>
                            <use fill="url(#linearGradient-16)" style="mix-blend-mode: overlay;" xlink:href="#path-17"></use>
                        </g>
                        <rect id="Rectangle-23" fill="url(#linearGradient-18)" opacity="0.196388134" x="0.584210526" y="0.857142857" width="54.8842105" height="60.8571429"></rect>
                        <g id="Rectangle-23-Copy-2" opacity="0.615319293">
                            <use fill="#C8AEFF" xlink:href="#path-20"></use>
                            <use fill="url(#linearGradient-19)" style="mix-blend-mode: overlay;" xlink:href="#path-20"></use>
                        </g>
                        <polygon id="Path" fill="#C8AEFF" opacity="0" points="55.5842105 1 79 20 79 81 55.5842105 61.8571429"></polygon>
                        <path d="M41.5569499,51.8281108 C41.7827079,51.9215643 42.002612,52.2050036 42.0917444,52.5168884 C42.1339573,52.6641838 42.1812887,52.9437046 42.0262924,53.1612963 C40.717708,54.9963524 38.8108332,54.9727828 37.4414005,54.6295061 C37.1592508,54.5589299 36.9055029,54.4363385 36.7566106,54.3346356 C36.8809841,54.2760651 37.1022855,54.196282 37.4861138,54.1170439 C39.3435538,53.7341704 39.6304396,53.4638417 40.2568669,52.6672478 C40.4004642,52.4845244 40.5632559,52.2775391 40.7887491,52.0253442 L40.7890139,52.0250644 C41.1248048,51.6484662 41.2784185,51.7123398 41.5569499,51.8281108 Z M37.1286992,49.0357473 C36.2487252,48.0830939 35.8490606,46.7580485 36.032039,45.3999833 C36.2882288,43.4985916 36.1937134,41.8425656 36.1428742,40.9528639 C36.1357254,40.8283639 36.1293883,40.7192436 36.1257569,40.6332149 C36.5401179,40.2520029 38.4604017,39.1846446 39.8298562,39.5101589 C40.4547086,39.6585927 40.83549,40.1000824 40.9938035,40.859404 C41.8130838,44.790765 41.1022036,46.4292987 40.5310243,47.7461002 C40.4132967,48.017335 40.3020628,48.2737664 40.2071344,48.539003 L40.1335101,48.7440801 C39.9471566,49.2625125 39.7737479,49.7445863 39.6662878,50.2022978 C38.7307609,50.1995055 37.8207106,49.78486 37.1287134,49.0355995 L37.1286992,49.0357473 Z M53.4845114,40.9966815 C53.3956829,41.5233435 53.3039241,42.0678727 53.2808411,42.7288675 C53.2580365,43.3721299 53.3459318,44.040936 53.4308804,44.6877449 C53.6026438,45.994142 53.7788764,47.3390717 53.096685,48.6661492 C52.9833493,48.4826144 52.8824064,48.2929143 52.7944129,48.0981115 C52.7096116,47.910237 52.5254555,47.6084407 52.2704625,47.1907325 C51.2785338,45.5646719 48.9556845,41.7568585 50.1447841,40.2030747 C50.4989847,39.7405937 51.397894,39.2650641 53.6542448,39.5211151 C53.6447988,40.0378559 53.5669716,40.5069958 53.4845114,40.9966815 Z M37.0125172,50.8373732 C36.497238,51.3814109 35.3773042,52.584504 34.1851784,53.9981775 C33.3416305,54.9980435 32.7591272,54.8063524 32.5675566,54.7434924 C31.3193654,54.3330638 29.8710269,51.7323583 28.5941009,47.6083353 C27.4891913,44.0399307 26.8435106,40.4516245 26.7923225,39.4454472 C26.6310571,36.2632083 27.4135567,34.0454533 29.1182588,32.8536283 C31.8925672,30.9142407 36.4537809,32.07506 38.2865894,32.663783 C38.2602705,32.6894301 38.2328191,32.7133952 38.2068022,32.739474 C35.1991572,35.7336836 35.2705036,40.8493709 35.2779478,41.1621379 C35.2776458,41.2827821 35.2879438,41.4536042 35.3019715,41.6885516 C35.3537183,42.549033 35.450085,44.1504381 35.1927247,45.9639567 C34.9536654,47.64921 35.4806922,49.2986792 36.6383603,50.4895219 C36.7571652,50.6114909 36.8820402,50.7275802 37.0125172,50.8373732 Z M51.6118883,34.3573689 C50.6909283,33.2930868 49.3479494,32.1020905 47.5142077,31.2987852 C48.3029508,31.1364792 49.3814958,30.9851349 50.5891228,31.0117498 C53.6485444,31.0788135 56.0686448,32.2151364 57.7820433,34.388976 C59.0962162,36.0563799 57.6491145,43.6433088 53.459821,50.1886009 C53.4176721,50.1354161 53.3753415,50.0823967 53.3327534,50.0295578 L53.2797,49.9637873 C54.3622736,48.1887508 54.1505902,46.4324951 53.9621697,44.8754606 C53.8847175,44.2364612 53.8115817,43.6329185 53.8302405,43.065975 C53.8494445,42.4651238 53.9294562,41.949711 54.0069084,41.451395 C54.1019743,40.8373115 54.198782,40.2018759 54.1721114,39.452823 C54.1920424,39.3742262 54.2000693,39.2813897 54.189604,39.1711858 C54.1214813,38.452898 53.2954661,36.303117 51.6118883,34.3573689 Z M52.6729696,50.6293613 C52.0908203,50.8002497 51.0451592,51.1950873 51.1404649,53.1687793 C51.0636064,54.1591116 50.5170971,58.7956996 50.2394446,60.4338661 C49.8729062,62.598072 49.090804,63.4041267 46.8917503,63.8843484 L46.8917503,63.8842131 C44.6117945,64.3816409 43.8045156,63.1970981 43.2725426,61.8429441 C42.9292034,60.9687264 42.7604041,57.0264966 42.8801633,52.6728994 C42.8816982,52.6149999 42.8735814,52.5590689 42.8579382,52.5064289 C42.8439478,52.4024713 42.8226376,52.2996557 42.7942142,52.1987937 C42.6161913,51.5653255 42.1823132,51.0354542 41.6617923,50.8157577 C41.454977,50.7285403 41.0754517,50.5684563 40.6193484,50.6872758 C40.7166021,50.2791843 40.8852685,49.8183175 41.0681762,49.3193119 L41.1449018,49.1094281 C41.2312494,48.8728111 41.3396894,48.6276587 41.4542687,48.3681253 C42.0737256,46.9668613 42.9220901,45.0475524 42.0013535,40.711597 C41.6564795,39.087526 40.5047692,38.2944096 38.758882,38.4786721 C37.712247,38.5889412 36.754616,39.0189422 36.2769959,39.2655222 C36.1742966,39.3184628 36.080393,39.3696752 35.9926434,39.4194751 C36.1259502,37.7831719 36.6295587,34.7251078 38.5135047,32.790291 C39.6997334,31.5722978 41.279463,30.970702 43.2042142,31.0031456 C46.9966779,31.0663196 49.4286829,33.0481113 50.801184,34.6996519 C51.9839298,36.1226601 52.624328,37.5562173 52.8799177,38.3294078 C50.9578228,38.1303435 49.6505805,38.5166607 48.9879424,39.4813868 C47.5462716,41.579834 49.7766265,45.6526946 50.8485564,47.6101573 C51.0451592,47.9688547 51.2147997,48.2789093 51.2681933,48.410667 C51.6172585,49.2720817 52.0691559,49.8471996 52.3990803,50.2669522 C52.5002595,50.3955843 52.5983396,50.5203696 52.6729696,50.6293613 Z M53.4458764,51.8305514 C54.3497187,52.3140061 55.9617801,52.3661578 58.2377315,51.9854108 L58.2626905,51.9813962 C57.9557045,52.2139877 57.4304227,52.5261385 56.6856542,52.806481 L56.6856542,52.8064938 C56.0452149,53.0473591 54.9734552,53.2280434 53.9553763,53.2669159 C52.8308565,53.3095457 52.2583717,53.1648129 52.1236694,53.0757446 C52.0605257,52.0225848 52.5441616,51.9125555 53.056059,51.7960796 C53.1364929,51.7777949 53.2149581,51.7598964 53.2907401,51.7384464 C53.3377843,51.7695212 53.3893535,51.8003387 53.4458764,51.8305514 Z" id="Combined-Shape" fill="#FFFFFF"></path>
                        <g id="Rectangle-23" opacity="0.505264946">
                            <use fill="url(#linearGradient-18)" xlink:href="#path-22"></use>
                            <use fill="url(#linearGradient-21)" style="mix-blend-mode: overlay;" xlink:href="#path-22"></use>
                        </g>
                        <g id="Rectangle-23-Copy" opacity="0.240602355">
                            <use fill="#B26AF4" xlink:href="#path-23"></use>
                            <use fill="url(#linearGradient-21)" style="mix-blend-mode: overlay;" xlink:href="#path-23"></use>
                        </g>
                    </g>
                    <g id="Group-25-Copy-2" filter="url(#filter-24)" transform="translate(199.000000, 220.000000)"></g>
                    <g id="JS" filter="url(#filter-25)" transform="translate(171.000000, 188.000000)">
                        <g id="Rectangle-23-Copy-3" opacity="0.680763134">
                            <use fill="#8B74E2" xlink:href="#path-26"></use>
                            <use fill="url(#linearGradient-16)" style="mix-blend-mode: overlay;" xlink:href="#path-26"></use>
                        </g>
                        <rect id="Rectangle-23" fill="url(#linearGradient-18)" opacity="0.196388134" x="0.584210526" y="0.857142857" width="54.8842105" height="60.8571429"></rect>
                        <g id="Rectangle-23-Copy-2" opacity="0.615319293">
                            <use fill="#C8AEFF" xlink:href="#path-27"></use>
                            <use fill="url(#linearGradient-19)" style="mix-blend-mode: overlay;" xlink:href="#path-27"></use>
                        </g>
                        <polygon id="Path" fill="#C8AEFF" opacity="0" points="55.5842105 1 79 20 79 81 55.5842105 61.8571429"></polygon>
                        <g id="ERC-20" fill="#FFFFFF" fill-opacity="1">
                            <use filter="url(#filter-29)" xlink:href="#text-28"></use>
                            <use xlink:href="#text-28"></use>
                        </g>
                        <g id="Rectangle-23" opacity="0.505264946">
                            <use fill="url(#linearGradient-18)" xlink:href="#path-30"></use>
                            <use fill="url(#linearGradient-21)" style="mix-blend-mode: overlay;" xlink:href="#path-30"></use>
                        </g>
                        <g id="Rectangle-23-Copy" opacity="0.240602355">
                            <use fill="#B26AF4" xlink:href="#path-31"></use>
                            <use fill="url(#linearGradient-21)" style="mix-blend-mode: overlay;" xlink:href="#path-31"></use>
                        </g>
                    </g>
                    <g id="Group-25-Copy" filter="url(#filter-32)" transform="translate(747.000000, 191.000000)">
                        <g id="JS">
                            <g id="Rectangle-23-Copy-3" opacity="0.680763134">
                                <use fill="#8B74E2" xlink:href="#path-33"></use>
                                <use fill="url(#linearGradient-16)" style="mix-blend-mode: overlay;" xlink:href="#path-33"></use>
                            </g>
                            <rect id="Rectangle-23" fill="url(#linearGradient-18)" opacity="0.196388134" x="0.584210526" y="0.857142857" width="54.8842105" height="60.8571429"></rect>
                            <g id="Rectangle-23-Copy-2" opacity="0.615319293">
                                <use fill="#C8AEFF" xlink:href="#path-34"></use>
                                <use fill="url(#linearGradient-19)" style="mix-blend-mode: overlay;" xlink:href="#path-34"></use>
                            </g>
                            <polygon id="Path" fill="#C8AEFF" opacity="0" points="55.5842105 1 79 20 79 81 55.5842105 61.8571429"></polygon>
                            <path d="M43.6609528,26.0557253 C44.6992676,25.4614011 46.051672,25.4587166 47.089092,26.0557253 C52.3082574,29.0048259 57.5290632,31.9493031 62.7473337,34.9001934 C63.7288261,35.4530565 64.3853418,36.5453602 64.3753494,37.6762912 L64.3753494,55.4192162 C64.3826573,56.5969773 63.6612656,57.7153805 62.6257843,58.2557158 C57.4237702,61.1885601 52.2244405,64.1249838 47.0233212,67.0578281 C45.9635301,67.6637852 44.5839822,67.6171043 43.5573002,66.9614834 C41.99774,66.0573949 40.4354952,65.1577805 38.8757857,64.2545867 C38.5570729,64.064582 38.1977939,63.9133537 37.9727411,63.604335 C38.1716943,63.3361807 38.527394,63.3027732 38.8164279,63.1856981 C39.4674254,62.9786913 40.0653289,62.6464067 40.6633816,62.3239654 C40.8146098,62.220462 40.9992456,62.2601333 41.1442099,62.3527494 C42.4778226,63.1173918 43.7996532,63.9042561 45.1377402,64.6615907 C45.4231947,64.8263907 45.7122286,64.6076019 45.9562222,64.4715859 C51.0609969,61.5864665 56.1720355,58.7122343 61.2759154,55.8262201 C61.4650253,55.7352445 61.5695726,55.5345017 61.5542112,55.3273458 C61.5577906,49.4743341 61.555106,43.6202785 61.5560009,37.7672668 C61.5776262,37.5322217 61.4416102,37.3161173 61.2290853,37.2199218 C56.0451171,34.3005002 50.8638334,31.3766043 45.68076,28.4564369 C45.4969495,28.3300693 45.2543598,28.3297138 45.0701796,28.4555421 C39.8871062,31.3766043 34.7067174,34.3031847 29.523644,37.2224572 C29.3118648,37.3188019 29.169734,37.5313268 29.1949388,37.7672668 C29.1958336,43.6202785 29.1949388,49.4743341 29.1949388,55.3282406 C29.1765314,55.5352562 29.2890122,55.7318298 29.476814,55.8208511 C30.8599412,56.60518 32.2448582,57.3839907 33.6288803,58.1656351 C34.4085859,58.5853159 35.3659176,58.8346785 36.2249658,58.513132 C36.983046,58.2412492 37.514433,57.4676584 37.4999663,56.6627481 C37.5071251,50.8438896 37.496387,45.0241362 37.5053354,39.2061725 C37.4863946,38.9478615 37.7314321,38.7344417 37.9825844,38.7587516 C38.6471536,38.7542774 39.3126177,38.7498032 39.977187,38.7605413 C40.254588,38.7542774 40.4454876,39.0324241 40.4111853,39.2926739 C40.4085008,45.1483701 40.418344,51.0042154 40.4067111,56.8599116 C40.4085008,58.4205159 39.7673466,60.1186275 38.3238174,60.8822259 C36.5454683,61.8034657 34.3474384,61.6080918 32.5905655,60.7247338 C31.0696325,59.9656096 29.618199,59.0697237 28.1242604,58.2564615 C27.0860947,57.719109 26.3682824,56.5962316 26.3755902,55.4193653 L26.3755902,37.6762912 C26.364703,36.5219452 27.0473182,35.4098058 28.0593844,34.8649963 C33.2605037,31.9297657 38.4607283,28.9922981 43.6609528,26.0557253 Z M48.1983977,38.3463786 C50.4668219,38.2003703 52.8952736,38.2598773 54.9365571,39.3773856 C56.516997,40.2337493 57.3931964,42.0310393 57.4210856,43.7868682 C57.3769401,44.023703 57.1293672,44.1543499 56.9032705,44.1380936 C56.2451143,44.1371988 55.5868089,44.147042 54.9286527,44.1336194 C54.649462,44.1443575 54.4871974,43.8869413 54.4521494,43.6401141 C54.2630395,42.8000067 53.8048804,41.9679529 53.0141385,41.5627387 C51.8002854,40.9549919 50.3928483,40.9855656 49.069228,40.9982426 C48.1029479,41.0495468 47.0638873,41.1332146 46.2452561,41.7014392 C45.6167788,42.1318581 45.4258792,43.0007496 45.6501863,43.7005159 C45.8616672,44.2029697 46.4416739,44.3650852 46.9162384,44.5145238 C49.6499804,45.2295025 52.5468819,45.1583625 55.2284247,46.0992888 C56.3386252,46.4828777 57.424665,47.2285792 57.8046745,48.3909788 C58.3017592,49.9488986 58.0838652,51.8110646 56.9754544,53.0617552 C56.0765857,54.0909725 54.767432,54.6511436 53.4617086,54.9553898 C51.7246713,55.3427072 49.9220123,55.3525505 48.1579807,55.1805917 C46.4992421,54.9914818 44.7730921,54.5556938 43.4925733,53.4255085 C42.3975851,52.474739 41.862768,50.9933282 41.9158619,49.56352 C41.9285389,49.3220618 42.168953,49.1536824 42.4002697,49.1735181 C43.0630492,49.168149 43.7258288,49.1663593 44.3886084,49.1744129 C44.6533324,49.1554721 44.8496011,49.3842533 44.8631728,49.6337651 C44.9854679,50.4342012 45.2862839,51.2743086 45.9842606,51.748873 C47.3312959,52.6179137 49.0215031,52.5584067 50.5639122,52.5827165 C51.8417465,52.5260432 53.276178,52.5088921 54.3189671,51.6643105 C54.8691457,51.1825873 55.0321561,50.376633 54.8834632,49.6832797 C54.7223916,49.0979039 54.1100215,48.8251263 53.5841528,48.6467545 C50.8854588,47.7930753 47.9561938,48.1028398 45.2835994,47.1374545 C44.1986036,46.7540148 43.1494015,46.0290437 42.7325543,44.914369 C42.1509071,43.3367627 42.4174208,41.3854108 43.6420119,40.1769269 C44.8360293,38.9748559 46.5596439,38.5119244 48.1983977,38.3462295 L48.1983977,38.3463786 Z" id="Combined-Shape" fill="#FFFFFF" fill-rule="nonzero"></path>
                            <g id="Rectangle-23" opacity="0.505264946">
                                <use fill="url(#linearGradient-18)" xlink:href="#path-35"></use>
                                <use fill="url(#linearGradient-21)" style="mix-blend-mode: overlay;" xlink:href="#path-35"></use>
                            </g>
                            <g id="Rectangle-23-Copy" opacity="0.240602355">
                                <use fill="#B26AF4" xlink:href="#path-36"></use>
                                <use fill="url(#linearGradient-21)" style="mix-blend-mode: overlay;" xlink:href="#path-36"></use>
                            </g>
                        </g>
                    </g>
                    <g id="JS" filter="url(#filter-37)" transform="translate(606.000000, 32.000000)">
                        <g id="Rectangle-23-Copy-3" opacity="0.680763134">
                            <use fill="#8B74E2" xlink:href="#path-38"></use>
                            <use fill="url(#linearGradient-16)" style="mix-blend-mode: overlay;" xlink:href="#path-38"></use>
                        </g>
                        <rect id="Rectangle-23" fill="url(#linearGradient-18)" opacity="0.196388134" x="0.584210526" y="0.857142857" width="54.8842105" height="60.8571429"></rect>
                        <g id="Rectangle-23-Copy-2" opacity="0.615319293">
                            <use fill="#C8AEFF" xlink:href="#path-39"></use>
                            <use fill="url(#linearGradient-19)" style="mix-blend-mode: overlay;" xlink:href="#path-39"></use>
                        </g>
                        <polygon id="Path" fill="#C8AEFF" opacity="0" points="55.5842105 1 79 20 79 81 55.5842105 61.8571429"></polygon>
                        <path d="M43.6526316,30.0016741 L43.6526316,30.0030872 L31.429436,59.388632 L35.9881287,59.2976191 L38.4390316,52.6727631 L43.6526316,52.6727631 L43.6642995,52.6664375 L49.2448967,52.6723182 L51.8586498,59.3894666 L56.1075741,59.4768032 L43.6527465,30.002111 L43.6526316,30.0016741 Z M43.6526316,28.5249982 L61.1578947,35.1477457 L61.157747,35.1477457 L58.3228115,60.1816867 L43.6526316,69.1892875 L28.8245819,60.3014911 L26.1473684,35.2676666 L26.14752,35.2674845 L43.6526316,28.5249982 Z M43.6526316,48.8498141 L43.6526316,48.8571429 L40.2862348,48.8571429 L43.6526316,39.4172185 L43.6526316,39.5021624 L43.684427,39.4172185 L47.6923077,48.8571429 L43.8447946,48.8571429 L43.6526316,48.8498141 Z" id="Combined-Shape" fill="#FFFFFF"></path>
                        <g id="Rectangle-23" opacity="0.505264946">
                            <use fill="url(#linearGradient-18)" xlink:href="#path-40"></use>
                            <use fill="url(#linearGradient-21)" style="mix-blend-mode: overlay;" xlink:href="#path-40"></use>
                        </g>
                        <g id="Rectangle-23-Copy" opacity="0.240602355">
                            <use fill="#B26AF4" xlink:href="#path-41"></use>
                            <use fill="url(#linearGradient-21)" style="mix-blend-mode: overlay;" xlink:href="#path-41"></use>
                        </g>
                    </g>
                    <g id="Group-26" filter="url(#filter-42)" transform="translate(323.000000, 0.000000)">
                        <g id="Group-27">
                            <g id="Rectangle-23-Copy-5" opacity="0.680763134">
                                <use fill="#8B74E2" xlink:href="#path-43"></use>
                                <use fill="url(#linearGradient-16)" style="mix-blend-mode: overlay;" xlink:href="#path-43"></use>
                            </g>
                            <g id="Rectangle-23-Copy-2" opacity="0.615319293">
                                <use fill="#C8AEFF" xlink:href="#path-44"></use>
                                <use fill="url(#linearGradient-19)" style="mix-blend-mode: overlay;" xlink:href="#path-44"></use>
                            </g>
                            <g id="Rectangle-23-Copy-4" opacity="0.240602355">
                                <use fill="#B26AF4" xlink:href="#path-45"></use>
                                <use fill="url(#linearGradient-21)" style="mix-blend-mode: overlay;" xlink:href="#path-45"></use>
                            </g>
                            <path d="M100.689424,127.071967 L128.744657,110.496128 L100.457293,150.359479 L100.456941,150.35845 L72.1871609,110.495686 L100.689424,127.071967 Z M100.457403,58.1937223 L128.727646,105.131392 L100.457514,121.85265 L72.1871609,105.131392 L100.457403,58.1937223 Z M72.1871609,105.131392 L100.457072,121.852781 L72.1871609,105.131392 Z" id="Combined-Shape" fill="#FFFFFF" fill-rule="nonzero"></path>
                            <g id="Rectangle-23" opacity="0.505264946">
                                <use fill="url(#linearGradient-18)" xlink:href="#path-46"></use>
                                <use fill="url(#linearGradient-21)" style="mix-blend-mode: overlay;" xlink:href="#path-46"></use>
                            </g>
                            <g id="Rectangle-23-Copy" opacity="0.240602355">
                                <use fill="#B26AF4" xlink:href="#path-47"></use>
                                <use fill="url(#linearGradient-21)" style="mix-blend-mode: overlay;" xlink:href="#path-47"></use>
                            </g>
                        </g>
                    </g>
                </g>
            </g>
        </g>
    </g>
</svg>